<svg width="16" height="16" viewBox="0 0 16 16" fill="none" xmlns="http://www.w3.org/2000/svg">
<g clip-path="url(#clip0_707_1750)">
<rect width="16" height="16" fill="#FFFEF6"/>
<path d="M5.57422 4.94531C7.23043 4.17413 9.25005 4.24597 10.8389 5.16016C11.8314 6.88409 11.8311 9.11479 10.8389 10.8389C9.11479 11.8311 6.88409 11.8314 5.16016 10.8389C4.24597 9.25005 4.17413 7.23043 4.94531 5.57422M5.57422 4.94531L5.69922 5.69922M5.57422 4.94531C5.43343 5.01087 5.2952 5.08242 5.16016 5.16016C5.08242 5.2952 5.01087 5.43343 4.94531 5.57422M5.57422 4.94531L5.69922 5.69922M5.69922 5.69922L4.94531 5.57422M5.69922 5.69922L4.94531 5.57422M9.16602 9.48145C9.29606 9.27416 9.49866 9.11892 9.74023 9.05078L9.84766 9.02539L10.0811 8.98633C11.16 8.80609 11.1935 7.29796 10.1816 7.03516L10.0811 7.01367L9.84766 6.97461C9.4624 6.91041 9.15471 6.62858 9.05078 6.25879L9.02539 6.15234L8.98633 5.91895C8.80031 4.80542 7.19969 4.80542 7.01367 5.91895L6.97461 6.15234C6.90437 6.57384 6.57384 6.90437 6.15234 6.97461L5.91895 7.01367L5.81836 7.03516C4.80653 7.29796 4.84003 8.80609 5.91895 8.98633L6.15234 9.02539L6.25879 9.05078M9.16602 9.48145L9.43652 9.43652M9.16602 9.48145C9.11611 9.56099 9.07693 9.64753 9.05078 9.74023M9.16602 9.48145L9.43652 9.43652M9.43652 9.43652L9.39551 9.68359M9.43652 9.43652L9.39551 9.68359M9.39551 9.68359L9.05078 9.74023M9.39551 9.68359L9.05078 9.74023M9.05078 9.74023C9.04089 9.7753 9.03148 9.81111 9.02539 9.84766L8.98633 10.0811L8.96484 10.1816C8.71048 11.161 7.28953 11.161 7.03516 10.1816L7.01367 10.0811L6.97461 9.84766C6.95239 9.71431 6.90194 9.59119 6.83301 9.48145M6.83301 9.48145L6.31543 9.39551M6.83301 9.48145L6.31543 9.39551M6.83301 9.48145C6.70279 9.27412 6.50059 9.11874 6.25879 9.05078M6.31543 9.39551L6.25879 9.05078M6.31543 9.39551L6.25879 9.05078M1.78516 1.78516C4.6366 -2.48273 11.3621 -2.48242 14.2139 1.78516C18.4827 4.63649 18.4823 11.3623 14.2139 14.2139C11.3623 18.4824 4.63649 18.4826 1.78516 14.2139C-2.48243 11.3622 -2.48273 4.6366 1.78516 1.78516Z" fill="#750506" stroke="#FFFEF6" stroke-width="13"/>
</g>
<defs>
<clipPath id="clip0_707_1750">
<rect width="16" height="16" rx="8" fill="white"/>
</clipPath>
</defs>
</svg>
