<svg width="44" height="44" viewBox="0 0 44 44" fill="none" xmlns="http://www.w3.org/2000/svg">
<rect x="0.5" y="0.5" width="43" height="43" fill="#871B1C"/>
<rect x="0.5" y="0.5" width="43" height="43" stroke="#9E3D3E"/>
<rect x="12" y="18.5" width="5" height="14" rx="0.5" fill="#FFF8BD"/>
<ellipse cx="14.48" cy="14" rx="2.48" ry="2.5" fill="#FFF8BD"/>
<path d="M28.5 32.5028H31.5C31.7761 32.5028 32 32.279 32 32.0028V23.6028C32 19.8328 29.87 18.0028 26.89 18.0028C25.7014 17.9593 24.5498 18.4207 23.72 19.2728C23.6077 19.4025 23.4266 19.4486 23.266 19.3884C23.1054 19.3282 22.9993 19.1743 23 19.0028C23 18.7267 22.7761 18.5028 22.5 18.5028H19.5C19.2239 18.5028 19 18.7267 19 19.0028V32.0028C19 32.279 19.2239 32.5028 19.5 32.5028H22.5C22.7761 32.5028 23 32.279 23 32.0028V24.5028C23 23.1221 24.1193 22.0028 25.5 22.0028C26.8807 22.0028 28 23.1221 28 24.5028V32.0028C28 32.279 28.2239 32.5028 28.5 32.5028Z" fill="#FFF8BD"/>
</svg>
