<svg width="20" height="20" viewBox="0 0 20 20" fill="none" xmlns="http://www.w3.org/2000/svg">
<path d="M13.75 2.50001C13.0224 2.49876 12.3045 2.66731 11.6535 2.99226C11.0025 3.31722 10.4363 3.7896 10 4.37184C9.40903 3.58555 8.58577 3.005 7.64669 2.71235C6.70762 2.4197 5.7003 2.42977 4.76726 2.74114C3.83423 3.0525 3.02273 3.64938 2.4476 4.44733C1.87247 5.24529 1.56283 6.20389 1.5625 7.18751C1.5625 12.8018 9.36256 17.2344 9.6946 17.4203C9.7879 17.4726 9.89306 17.5 10 17.5C10.1069 17.5 10.2121 17.4726 10.3054 17.4203C11.74 16.5801 13.0864 15.5977 14.3243 14.488C17.0536 12.0316 18.4375 9.57539 18.4375 7.18751C18.4361 5.94474 17.9418 4.75327 17.063 3.8745C16.1842 2.99573 14.9928 2.50142 13.75 2.50001V2.50001Z" fill="#FFF8BD"/>
</svg>
