<svg width="44" height="44" viewBox="0 0 44 44" fill="none" xmlns="http://www.w3.org/2000/svg">
<rect x="0.5" y="0.5" width="43" height="43" fill="#871B1C"/>
<rect x="0.5" y="0.5" width="43" height="43" stroke="#9E3D3E"/>
<path d="M22 25.75C24.0711 25.75 25.75 24.0711 25.75 22C25.75 19.9289 24.0711 18.25 22 18.25C19.9289 18.25 18.25 19.9289 18.25 22C18.25 24.0711 19.9289 25.75 22 25.75Z" stroke="#FFF8BD" stroke-width="2.5" stroke-linecap="round" stroke-linejoin="round"/>
<path d="M26.974 29.5002C25.3031 30.6091 23.3098 31.1283 21.3103 30.9753C19.3108 30.8223 17.4196 30.006 15.9369 28.6558C14.4541 27.3057 13.4647 25.499 13.1257 23.5225C12.7866 21.546 13.1174 19.5129 14.0654 17.7458C15.0134 15.9786 16.5244 14.5787 18.3586 13.7681C20.1928 12.9575 22.2452 12.7827 24.1901 13.2713C26.1351 13.76 27.8611 14.8842 29.0943 16.4655C30.3276 18.0468 30.9975 19.9946 30.9976 22C30.9976 24.0711 30.2476 25.75 28.3726 25.75C26.4976 25.75 25.7476 24.0711 25.7476 22V18.25" stroke="#FFF8BD" stroke-width="2.5" stroke-linecap="round" stroke-linejoin="round"/>
</svg>
