<svg width="371" height="606" viewBox="0 0 371 606" fill="none" xmlns="http://www.w3.org/2000/svg">
<rect width="371" height="605.173" rx="6" fill="#FFFEF6"/>
<rect x="0.5" y="0.5" width="370" height="604.173" rx="5.5" stroke="#A9A683" stroke-opacity="0.5"/>
<path d="M183.69 43.8536C184.41 42.3207 186.59 42.3207 187.31 43.8536L189.348 48.192C189.546 48.614 189.886 48.9536 190.308 49.1518L194.646 51.1898C196.179 51.9098 196.179 54.0902 194.646 54.8102L190.308 56.8482C189.886 57.0464 189.546 57.386 189.348 57.808L187.31 62.1464C186.59 63.6793 184.41 63.6793 183.69 62.1464L181.652 57.808C181.454 57.386 181.114 57.0464 180.692 56.8482L176.354 54.8102C174.821 54.0902 174.821 51.9098 176.354 51.1898L180.692 49.1518C181.114 48.9536 181.454 48.614 181.652 48.192L183.69 43.8536Z" fill="#D9CD95"/>
<path d="M120.346 106.401C119.753 106.401 119.086 106.341 118.344 106.223C117.632 106.104 116.95 105.955 116.297 105.777C115.674 105.599 115.184 105.407 114.828 105.199C114.621 105.08 114.458 104.962 114.339 104.843C114.25 104.695 114.205 104.457 114.205 104.131L113.983 97.1445C113.983 96.5512 114.176 96.2545 114.561 96.2545C114.888 96.2545 115.11 96.5215 115.229 97.0555L115.629 98.7465C116.638 102.989 118.522 105.11 121.281 105.11C122.764 105.11 123.936 104.62 124.796 103.641C125.686 102.633 126.131 101.224 126.131 99.414C126.131 97.6637 125.672 96.032 124.752 94.519C123.862 93.006 122.423 91.5078 120.435 90.0245C118.24 88.4522 116.638 86.9392 115.629 85.4855C114.621 84.0022 114.116 82.4298 114.116 80.7685C114.116 78.5732 114.873 76.8228 116.386 75.5175C117.929 74.1825 119.887 73.515 122.26 73.515C123.15 73.515 124.01 73.6188 124.841 73.8265C125.672 74.0342 126.354 74.3308 126.888 74.7165C127.066 74.8352 127.199 74.9687 127.288 75.117C127.407 75.2653 127.466 75.4582 127.466 75.6955L127.6 82.415C127.6 82.9193 127.407 83.1715 127.021 83.1715C126.754 83.1715 126.562 82.9638 126.443 82.5485L126.131 81.436C125.479 79.1517 124.796 77.4903 124.084 76.452C123.402 75.384 122.408 74.85 121.103 74.85C119.827 74.85 118.804 75.2653 118.032 76.096C117.291 76.9267 116.92 78.0985 116.92 79.6115C116.92 80.8872 117.335 82.1035 118.166 83.2605C118.997 84.4175 120.45 85.8267 122.527 87.488C124.752 89.2977 126.369 91.048 127.377 92.739C128.416 94.4003 128.935 96.1803 128.935 98.079C128.935 99.7403 128.564 101.194 127.822 102.44C127.081 103.686 126.057 104.665 124.752 105.377C123.476 106.059 122.008 106.401 120.346 106.401ZM129.702 106C129.346 106 129.168 105.837 129.168 105.51C129.168 105.214 129.331 105.036 129.657 104.976L130.28 104.887C130.903 104.798 131.304 104.62 131.482 104.353C131.689 104.086 131.793 103.641 131.793 103.018V77.52C131.793 76.986 131.704 76.63 131.526 76.452C131.378 76.2443 131.096 76.1108 130.681 76.0515L129.746 75.918C129.42 75.8587 129.257 75.6807 129.257 75.384C129.257 75.0873 129.42 74.9093 129.746 74.85C130.577 74.672 131.274 74.4643 131.838 74.227C132.401 73.9897 132.876 73.7523 133.262 73.515C133.736 73.2183 134.092 73.07 134.33 73.07C134.656 73.07 134.819 73.3073 134.819 73.782V92.4275C134.819 92.7242 134.938 92.917 135.175 93.006C135.442 93.0653 135.694 92.9615 135.932 92.6945L141.138 87.0875C141.761 86.4052 142.013 85.8415 141.895 85.3965C141.806 84.9218 141.464 84.6252 140.871 84.5065L139.848 84.3285C139.462 84.2395 139.269 84.0467 139.269 83.75C139.269 83.4533 139.477 83.305 139.892 83.305H147.546C147.961 83.305 148.169 83.4682 148.169 83.7945C148.169 84.1208 147.976 84.2988 147.591 84.3285L147.19 84.373C146.508 84.4323 145.825 84.6993 145.143 85.174C144.461 85.619 143.645 86.331 142.696 87.31L139.937 90.247C139.314 90.9293 139.165 91.5968 139.492 92.2495L145.099 103.018C145.425 103.612 145.781 104.042 146.167 104.309C146.552 104.576 147.027 104.769 147.591 104.887L148.036 104.976C148.392 105.065 148.57 105.243 148.57 105.51C148.57 105.837 148.362 106 147.947 106H140.204C139.788 106 139.581 105.837 139.581 105.51C139.581 105.214 139.773 105.036 140.159 104.976L140.916 104.887C142.043 104.739 142.28 104.012 141.628 102.707L137.4 94.4745C137.252 94.1778 137.029 94.0147 136.733 93.985C136.466 93.9553 136.213 94.0592 135.976 94.2965L135.487 94.786C135.22 95.053 135.042 95.32 134.953 95.587C134.864 95.854 134.819 96.1507 134.819 96.477V103.018C134.819 103.641 134.908 104.086 135.086 104.353C135.294 104.62 135.709 104.784 136.332 104.843L137.534 104.976C137.86 105.036 138.023 105.214 138.023 105.51C138.023 105.837 137.845 106 137.489 106H129.702ZM151.088 79.0775C150.465 79.0775 149.931 78.855 149.486 78.41C149.071 77.965 148.863 77.4013 148.863 76.719C148.863 76.0367 149.071 75.4878 149.486 75.0725C149.931 74.6275 150.465 74.405 151.088 74.405C151.711 74.405 152.23 74.6275 152.645 75.0725C153.061 75.4878 153.268 76.0367 153.268 76.719C153.268 77.4013 153.061 77.965 152.645 78.41C152.23 78.855 151.711 79.0775 151.088 79.0775ZM147.35 106C146.905 106 146.682 105.837 146.682 105.51C146.682 105.243 146.875 105.065 147.261 104.976L147.795 104.887C148.537 104.769 149.011 104.591 149.219 104.353C149.427 104.086 149.53 103.641 149.53 103.018V88.0665C149.53 87.5325 149.441 87.1765 149.263 86.9985C149.115 86.7908 148.833 86.6573 148.418 86.598L147.483 86.4645C147.098 86.4348 146.905 86.2717 146.905 85.975C146.905 85.7377 147.142 85.5745 147.617 85.4855C148.537 85.3372 149.278 85.0998 149.842 84.7735C150.406 84.4472 150.954 84.0467 151.488 83.572C151.755 83.305 151.978 83.1715 152.156 83.1715C152.423 83.1715 152.556 83.3495 152.556 83.7055V103.018C152.556 103.641 152.645 104.086 152.823 104.353C153.001 104.62 153.343 104.784 153.847 104.843L154.959 104.976C155.286 105.036 155.449 105.199 155.449 105.466C155.449 105.822 155.226 106 154.781 106H147.35ZM155.033 106C154.677 106 154.499 105.837 154.499 105.51C154.499 105.214 154.662 105.036 154.989 104.976L155.612 104.887C156.235 104.798 156.694 104.62 156.991 104.353C157.288 104.086 157.436 103.641 157.436 103.018V77.52C157.436 76.986 157.347 76.6152 157.169 76.4075C157.021 76.1998 156.739 76.0812 156.324 76.0515L155.3 75.918C154.974 75.8587 154.811 75.6807 154.811 75.384C154.811 75.0873 154.974 74.9093 155.3 74.85C156.131 74.672 156.843 74.4643 157.436 74.227C158.029 73.9897 158.519 73.7523 158.905 73.515C159.379 73.2183 159.735 73.07 159.973 73.07C160.299 73.07 160.462 73.3073 160.462 73.782V103.018C160.462 103.641 160.551 104.086 160.729 104.353C160.937 104.591 161.352 104.754 161.975 104.843L162.999 104.976C163.325 105.036 163.488 105.214 163.488 105.51C163.488 105.837 163.31 106 162.954 106H155.033ZM163.031 106C162.675 106 162.497 105.837 162.497 105.51C162.497 105.214 162.66 105.036 162.986 104.976L163.609 104.887C164.232 104.798 164.692 104.62 164.989 104.353C165.286 104.086 165.434 103.641 165.434 103.018V77.52C165.434 76.986 165.345 76.6152 165.167 76.4075C165.019 76.1998 164.737 76.0812 164.321 76.0515L163.298 75.918C162.972 75.8587 162.808 75.6807 162.808 75.384C162.808 75.0873 162.972 74.9093 163.298 74.85C164.129 74.672 164.841 74.4643 165.434 74.227C166.027 73.9897 166.517 73.7523 166.902 73.515C167.377 73.2183 167.733 73.07 167.97 73.07C168.297 73.07 168.46 73.3073 168.46 73.782V103.018C168.46 103.641 168.549 104.086 168.727 104.353C168.935 104.591 169.35 104.754 169.973 104.843L170.996 104.976C171.323 105.036 171.486 105.214 171.486 105.51C171.486 105.837 171.308 106 170.952 106H163.031ZM177.255 106C176.81 106 176.588 105.837 176.588 105.51C176.588 105.243 176.781 105.065 177.166 104.976L177.7 104.887C178.323 104.769 178.724 104.591 178.902 104.353C179.11 104.086 179.213 103.641 179.213 103.018V88.0665C179.213 87.5325 179.124 87.1765 178.946 86.9985C178.798 86.7908 178.516 86.6573 178.101 86.598L177.166 86.4645C176.781 86.4348 176.588 86.2717 176.588 85.975C176.588 85.7377 176.825 85.5745 177.3 85.4855C178.22 85.3372 178.917 85.0998 179.391 84.7735C179.896 84.4472 180.415 84.0467 180.949 83.572C181.216 83.305 181.438 83.1715 181.616 83.1715C181.883 83.1715 182.017 83.3495 182.017 83.7055V85.708C182.017 85.9157 182.106 86.0788 182.284 86.1975C182.462 86.2865 182.655 86.2272 182.862 86.0195C184.079 84.8625 185.132 84.0763 186.022 83.661C186.942 83.2457 187.861 83.038 188.781 83.038C189.641 83.038 190.398 83.2753 191.05 83.75C191.733 84.195 192.237 84.8773 192.563 85.797C192.652 86.0343 192.801 86.1827 193.008 86.242C193.246 86.2717 193.468 86.1827 193.676 85.975C194.892 84.8477 195.945 84.0763 196.835 83.661C197.725 83.2457 198.63 83.038 199.55 83.038C200.796 83.038 201.805 83.5127 202.576 84.462C203.377 85.3817 203.777 86.7463 203.777 88.556V103.018C203.777 103.641 203.866 104.086 204.044 104.353C204.252 104.591 204.667 104.754 205.29 104.843L206.269 104.976C206.596 105.036 206.759 105.214 206.759 105.51C206.759 105.837 206.581 106 206.225 106H198.615C198.2 106 197.992 105.837 197.992 105.51C197.992 105.214 198.156 105.036 198.482 104.976L199.105 104.887C199.787 104.798 200.232 104.62 200.44 104.353C200.648 104.086 200.751 103.641 200.751 103.018V89.0455C200.751 87.5918 200.484 86.5683 199.95 85.975C199.446 85.3817 198.749 85.085 197.859 85.085C196.969 85.085 196.153 85.3668 195.411 85.9305C194.699 86.4645 194.121 87.1913 193.676 88.111C193.231 89.001 193.008 89.9948 193.008 91.0925V103.018C193.008 103.641 193.112 104.086 193.32 104.353C193.528 104.591 193.958 104.754 194.61 104.843L195.589 104.976C195.916 105.036 196.079 105.214 196.079 105.51C196.079 105.837 195.901 106 195.545 106H187.98C187.565 106 187.357 105.837 187.357 105.51C187.357 105.214 187.52 105.036 187.846 104.976L188.469 104.887C189.092 104.798 189.493 104.62 189.671 104.353C189.879 104.086 189.982 103.641 189.982 103.018V89.0455C189.982 87.5918 189.715 86.5683 189.181 85.975C188.677 85.3817 187.98 85.085 187.09 85.085C186.2 85.085 185.384 85.3668 184.642 85.9305C183.93 86.4645 183.352 87.1913 182.907 88.111C182.462 89.001 182.239 89.9948 182.239 91.0925V103.018C182.239 103.641 182.328 104.086 182.506 104.353C182.714 104.62 183.129 104.784 183.752 104.843L184.954 104.976C185.28 105.036 185.443 105.199 185.443 105.466C185.443 105.822 185.221 106 184.776 106H177.255ZM214.017 106.401C212.593 106.401 211.317 105.926 210.19 104.976C209.063 104.027 208.158 102.692 207.475 100.971C206.823 99.2212 206.496 97.2038 206.496 94.9195C206.496 92.5758 206.838 90.514 207.52 88.734C208.202 86.954 209.137 85.5597 210.323 84.551C211.51 83.5423 212.83 83.038 214.284 83.038C216.034 83.038 217.443 83.7648 218.511 85.2185C219.609 86.6425 220.158 88.9713 220.158 92.205C220.158 93.184 219.787 93.6735 219.045 93.6735H210.59C209.997 93.6735 209.7 94.0147 209.7 94.697C209.7 97.8417 210.16 100.2 211.08 101.772C212 103.345 213.171 104.131 214.595 104.131C215.723 104.131 216.642 103.73 217.354 102.929C218.066 102.128 218.645 100.779 219.09 98.88C219.179 98.5537 219.372 98.3905 219.668 98.3905C220.024 98.3905 220.158 98.6872 220.069 99.2805C219.594 101.921 218.838 103.775 217.799 104.843C216.761 105.881 215.5 106.401 214.017 106.401ZM210.457 92.561H214.951C216.375 92.561 217.087 91.8193 217.087 90.336C217.087 88.4077 216.85 86.8947 216.375 85.797C215.901 84.6993 215.189 84.1505 214.239 84.1505C213.082 84.1505 212.103 84.818 211.302 86.153C210.531 87.488 210.027 89.3867 209.789 91.849C209.73 92.3237 209.953 92.561 210.457 92.561ZM220.846 106C220.401 106 220.179 105.837 220.179 105.51C220.179 105.243 220.372 105.065 220.757 104.976L221.291 104.887C221.914 104.769 222.315 104.591 222.493 104.353C222.7 104.086 222.804 103.641 222.804 103.018V88.0665C222.804 87.5325 222.715 87.1765 222.537 86.9985C222.389 86.7908 222.107 86.6573 221.692 86.598L220.757 86.4645C220.372 86.4348 220.179 86.2717 220.179 85.975C220.179 85.7377 220.416 85.5745 220.891 85.4855C221.81 85.3372 222.508 85.0998 222.982 84.7735C223.487 84.4472 224.006 84.0467 224.54 83.572C224.807 83.305 225.029 83.1715 225.207 83.1715C225.474 83.1715 225.608 83.3495 225.608 83.7055V85.708C225.608 85.975 225.697 86.153 225.875 86.242C226.082 86.3013 226.305 86.2123 226.542 85.975C227.729 84.8477 228.767 84.0763 229.657 83.661C230.577 83.2457 231.541 83.038 232.55 83.038C233.885 83.038 234.953 83.5127 235.754 84.462C236.555 85.3817 236.955 86.7463 236.955 88.556V103.018C236.955 103.641 237.044 104.086 237.222 104.353C237.43 104.591 237.845 104.754 238.468 104.843L239.447 104.976C239.774 105.036 239.937 105.214 239.937 105.51C239.937 105.837 239.759 106 239.403 106H231.927C231.511 106 231.304 105.837 231.304 105.51C231.304 105.214 231.467 105.036 231.793 104.976L232.416 104.887C233.039 104.798 233.44 104.62 233.618 104.353C233.825 104.086 233.929 103.641 233.929 103.018V89.0455C233.929 87.5918 233.662 86.5683 233.128 85.975C232.594 85.3817 231.838 85.085 230.859 85.085C229.909 85.085 229.049 85.3668 228.278 85.9305C227.536 86.4645 226.943 87.1913 226.498 88.111C226.053 89.001 225.83 89.9948 225.83 91.0925V103.018C225.83 103.641 225.919 104.086 226.097 104.353C226.305 104.62 226.72 104.784 227.343 104.843L228.545 104.976C228.871 105.036 229.034 105.199 229.034 105.466C229.034 105.822 228.812 106 228.367 106H220.846ZM246.244 106.401C245.502 106.401 244.79 106.237 244.108 105.911C243.425 105.585 242.862 105.065 242.417 104.353C241.972 103.641 241.749 102.692 241.749 101.505V86.0195C241.749 85.4855 241.66 85.1147 241.482 84.907C241.334 84.6993 241.052 84.5807 240.637 84.551L239.88 84.462C239.376 84.4027 239.124 84.2098 239.124 83.8835C239.124 83.4978 239.405 83.305 239.969 83.305H244.108C244.553 83.305 244.775 83.5275 244.775 83.9725V100.571C244.775 101.936 245.027 102.915 245.532 103.508C246.066 104.072 246.792 104.353 247.712 104.353C248.632 104.353 249.448 104.101 250.16 103.597C250.872 103.063 251.435 102.366 251.851 101.505C252.296 100.615 252.518 99.6513 252.518 98.613V86.0195C252.518 85.4855 252.429 85.1147 252.251 84.907C252.103 84.6993 251.821 84.5807 251.406 84.551L250.649 84.462C250.145 84.4027 249.893 84.2098 249.893 83.8835C249.893 83.4978 250.174 83.305 250.738 83.305H254.877C255.322 83.305 255.544 83.5275 255.544 83.9725V101.238C255.544 101.772 255.618 102.143 255.767 102.351C255.945 102.529 256.241 102.648 256.657 102.707L257.591 102.84C257.977 102.87 258.17 103.018 258.17 103.285C258.17 103.552 257.932 103.73 257.458 103.819C256.538 103.938 255.796 104.175 255.233 104.532C254.699 104.887 254.224 105.318 253.809 105.822C253.542 106.089 253.319 106.223 253.141 106.223C252.874 106.223 252.741 106.045 252.741 105.688V103.641C252.741 103.404 252.652 103.271 252.474 103.241C252.325 103.182 252.162 103.241 251.984 103.419C250.886 104.517 249.907 105.288 249.047 105.733C248.216 106.178 247.282 106.401 246.244 106.401Z" fill="#750506"/>
<path d="M47.56 209.76C47.496 209.76 47.424 209.736 47.344 209.688C47.264 209.64 47.208 209.536 47.176 209.376L43.552 194.664C43.536 194.552 43.488 194.504 43.408 194.52C43.328 194.52 43.288 194.576 43.288 194.688L42.808 207.936C42.792 208.384 42.864 208.728 43.024 208.968C43.184 209.192 43.464 209.336 43.864 209.4L44.176 209.448C44.384 209.464 44.488 209.56 44.488 209.736C44.488 209.912 44.368 210 44.128 210H40.696C40.456 210 40.336 209.912 40.336 209.736C40.336 209.56 40.44 209.464 40.648 209.448L40.96 209.4C41.376 209.336 41.656 209.192 41.8 208.968C41.96 208.728 42.048 208.384 42.064 207.936L42.544 194.304C42.56 193.968 42.512 193.744 42.4 193.632C42.288 193.52 42.048 193.432 41.68 193.368L41.128 193.272C40.92 193.224 40.816 193.128 40.816 192.984C40.816 192.808 40.936 192.72 41.176 192.72H44.056C44.552 192.72 44.856 192.96 44.968 193.44L47.872 205.416C47.904 205.528 47.952 205.584 48.016 205.584C48.096 205.584 48.144 205.528 48.16 205.416L51.184 193.32C51.28 192.92 51.536 192.72 51.952 192.72H54.784C55.024 192.72 55.144 192.808 55.144 192.984C55.144 193.128 55.04 193.224 54.832 193.272L54.28 193.368C53.944 193.432 53.72 193.52 53.608 193.632C53.496 193.744 53.448 193.968 53.464 194.304L53.944 208.416C53.96 208.752 54.016 208.976 54.112 209.088C54.208 209.2 54.424 209.288 54.76 209.352L55.312 209.448C55.52 209.496 55.624 209.592 55.624 209.736C55.624 209.912 55.504 210 55.264 210H50.92C50.68 210 50.56 209.912 50.56 209.736C50.56 209.592 50.664 209.496 50.872 209.448L51.424 209.352C51.76 209.288 51.984 209.2 52.096 209.088C52.208 208.976 52.256 208.752 52.24 208.416L51.832 194.688C51.832 194.576 51.792 194.52 51.712 194.52C51.648 194.504 51.6 194.544 51.568 194.64L47.92 209.376C47.888 209.536 47.832 209.64 47.752 209.688C47.688 209.736 47.624 209.76 47.56 209.76ZM60.5986 210.216C59.7826 210.216 59.0466 209.944 58.3906 209.4C57.7506 208.84 57.2386 208.08 56.8546 207.12C56.4706 206.16 56.2786 205.088 56.2786 203.904C56.2786 202.72 56.4706 201.656 56.8546 200.712C57.2386 199.768 57.7586 199.016 58.4146 198.456C59.0706 197.896 59.7986 197.616 60.5986 197.616C61.4146 197.616 62.1426 197.896 62.7826 198.456C63.4386 199.016 63.9586 199.768 64.3426 200.712C64.7266 201.656 64.9186 202.72 64.9186 203.904C64.9186 205.088 64.7266 206.16 64.3426 207.12C63.9746 208.08 63.4626 208.84 62.8066 209.4C62.1506 209.944 61.4146 210.216 60.5986 210.216ZM60.5986 209.616C62.2626 209.616 63.0946 207.712 63.0946 203.904C63.0946 200.112 62.2626 198.216 60.5986 198.216C58.9346 198.216 58.1026 200.112 58.1026 203.904C58.1026 207.712 58.9346 209.616 60.5986 209.616ZM68.6674 210.216C68.2994 210.216 67.9074 210.168 67.4914 210.072C67.0754 209.992 66.7394 209.888 66.4834 209.76C66.3394 209.68 66.2674 209.544 66.2674 209.352L66.1954 206.664C66.1954 206.392 66.2994 206.256 66.5074 206.256C66.6834 206.256 66.8034 206.384 66.8674 206.64C67.1394 207.776 67.4674 208.552 67.8514 208.968C68.2514 209.384 68.7314 209.592 69.2914 209.592C69.7554 209.592 70.1394 209.416 70.4434 209.064C70.7474 208.696 70.8994 208.192 70.8994 207.552C70.8994 206.912 70.7234 206.344 70.3714 205.848C70.0194 205.352 69.4274 204.808 68.5954 204.216C67.7634 203.656 67.1554 203.096 66.7714 202.536C66.3874 201.96 66.1954 201.336 66.1954 200.664C66.1954 199.752 66.5154 199.016 67.1554 198.456C67.7954 197.896 68.6434 197.616 69.6994 197.616C70.0194 197.616 70.3314 197.656 70.6354 197.736C70.9394 197.8 71.2114 197.912 71.4514 198.072C71.5954 198.168 71.6674 198.296 71.6674 198.456L71.7154 201.096C71.7154 201.336 71.6194 201.456 71.4274 201.456C71.3154 201.456 71.2354 201.424 71.1874 201.36C71.1394 201.28 71.0994 201.184 71.0674 201.072C70.7474 200.032 70.4274 199.312 70.1074 198.912C69.7874 198.496 69.3954 198.288 68.9314 198.288C68.5154 198.288 68.1714 198.432 67.8994 198.72C67.6274 199.008 67.4914 199.368 67.4914 199.8C67.4914 200.36 67.6594 200.848 67.9954 201.264C68.3314 201.68 68.9394 202.192 69.8194 202.8C70.6194 203.376 71.2194 204 71.6194 204.672C72.0354 205.328 72.2434 206.048 72.2434 206.832C72.2434 207.856 71.9154 208.68 71.2594 209.304C70.6034 209.912 69.7394 210.216 68.6674 210.216ZM76.4342 210.216C75.8743 210.216 75.4103 210.024 75.0423 209.64C74.6903 209.24 74.5143 208.592 74.5143 207.696V198.72C74.5143 198.528 74.4183 198.432 74.2263 198.432H73.5303C73.2743 198.432 73.1463 198.336 73.1463 198.144C73.1463 198.016 73.2183 197.904 73.3623 197.808C73.8903 197.44 74.3143 197.048 74.6343 196.632C74.9543 196.2 75.2343 195.616 75.4743 194.88C75.5863 194.544 75.7223 194.376 75.8823 194.376C76.0583 194.376 76.1463 194.504 76.1463 194.76V197.424C76.1463 197.648 76.2583 197.76 76.4823 197.76H78.0423C78.2983 197.76 78.4263 197.872 78.4263 198.096C78.4263 198.32 78.2983 198.432 78.0423 198.432H76.4823C76.2583 198.432 76.1463 198.544 76.1463 198.768V207.72C76.1463 208.072 76.2023 208.352 76.3143 208.56C76.4263 208.752 76.6343 208.848 76.9383 208.848C77.2743 208.848 77.5463 208.68 77.7543 208.344C77.9783 208.008 78.1223 207.464 78.1863 206.712C78.2183 206.488 78.3223 206.376 78.4983 206.376C78.6903 206.376 78.7863 206.496 78.7863 206.736C78.7383 207.968 78.4823 208.856 78.0183 209.4C77.5703 209.944 77.0423 210.216 76.4342 210.216ZM87.2993 210.216C86.8993 210.216 86.5153 210.128 86.1473 209.952C85.7793 209.776 85.4753 209.496 85.2353 209.112C84.9953 208.728 84.8753 208.216 84.8753 207.576V199.224C84.8753 198.936 84.8273 198.736 84.7313 198.624C84.6513 198.512 84.4993 198.448 84.2753 198.432L83.8673 198.384C83.5953 198.352 83.4593 198.248 83.4593 198.072C83.4593 197.864 83.6113 197.76 83.9153 197.76H86.1473C86.3873 197.76 86.5073 197.88 86.5073 198.12V207.072C86.5073 207.808 86.6433 208.336 86.9153 208.656C87.2033 208.96 87.5953 209.112 88.0913 209.112C88.5873 209.112 89.0273 208.976 89.4113 208.704C89.7953 208.416 90.0993 208.04 90.3233 207.576C90.5633 207.096 90.6833 206.576 90.6833 206.016V199.224C90.6833 198.936 90.6353 198.736 90.5393 198.624C90.4593 198.512 90.3073 198.448 90.0833 198.432L89.6753 198.384C89.4033 198.352 89.2673 198.248 89.2673 198.072C89.2673 197.864 89.4193 197.76 89.7233 197.76H91.9553C92.1953 197.76 92.3153 197.88 92.3153 198.12V207.432C92.3153 207.72 92.3553 207.92 92.4353 208.032C92.5313 208.128 92.6913 208.192 92.9153 208.224L93.4193 208.296C93.6273 208.312 93.7313 208.392 93.7313 208.536C93.7313 208.68 93.6033 208.776 93.3473 208.824C92.8513 208.888 92.4513 209.016 92.1473 209.208C91.8593 209.4 91.6033 209.632 91.3793 209.904C91.2353 210.048 91.1153 210.12 91.0193 210.12C90.8753 210.12 90.8033 210.024 90.8033 209.832V208.728C90.8033 208.6 90.7553 208.528 90.6593 208.512C90.5793 208.48 90.4913 208.512 90.3953 208.608C89.8033 209.2 89.2753 209.616 88.8113 209.856C88.3633 210.096 87.8593 210.216 87.2993 210.216ZM97.2378 210.216C96.8698 210.216 96.4778 210.168 96.0618 210.072C95.6458 209.992 95.3098 209.888 95.0538 209.76C94.9098 209.68 94.8378 209.544 94.8378 209.352L94.7658 206.664C94.7658 206.392 94.8698 206.256 95.0778 206.256C95.2538 206.256 95.3738 206.384 95.4378 206.64C95.7098 207.776 96.0378 208.552 96.4218 208.968C96.8218 209.384 97.3018 209.592 97.8618 209.592C98.3258 209.592 98.7098 209.416 99.0138 209.064C99.3178 208.696 99.4698 208.192 99.4698 207.552C99.4698 206.912 99.2938 206.344 98.9418 205.848C98.5898 205.352 97.9978 204.808 97.1658 204.216C96.3338 203.656 95.7258 203.096 95.3418 202.536C94.9578 201.96 94.7658 201.336 94.7658 200.664C94.7658 199.752 95.0858 199.016 95.7258 198.456C96.3658 197.896 97.2138 197.616 98.2698 197.616C98.5898 197.616 98.9018 197.656 99.2058 197.736C99.5098 197.8 99.7818 197.912 100.022 198.072C100.166 198.168 100.238 198.296 100.238 198.456L100.286 201.096C100.286 201.336 100.19 201.456 99.9978 201.456C99.8858 201.456 99.8058 201.424 99.7578 201.36C99.7098 201.28 99.6698 201.184 99.6378 201.072C99.3178 200.032 98.9978 199.312 98.6778 198.912C98.3578 198.496 97.9658 198.288 97.5018 198.288C97.0858 198.288 96.7418 198.432 96.4698 198.72C96.1978 199.008 96.0618 199.368 96.0618 199.8C96.0618 200.36 96.2298 200.848 96.5658 201.264C96.9018 201.68 97.5098 202.192 98.3898 202.8C99.1898 203.376 99.7898 204 100.19 204.672C100.606 205.328 100.814 206.048 100.814 206.832C100.814 207.856 100.486 208.68 99.8298 209.304C99.1738 209.912 98.3098 210.216 97.2378 210.216ZM106.085 210.216C105.317 210.216 104.629 209.96 104.021 209.448C103.413 208.936 102.925 208.216 102.557 207.288C102.205 206.344 102.029 205.256 102.029 204.024C102.029 202.76 102.213 201.648 102.581 200.688C102.949 199.728 103.453 198.976 104.093 198.432C104.733 197.888 105.445 197.616 106.229 197.616C107.173 197.616 107.933 198.008 108.509 198.792C109.101 199.56 109.397 200.816 109.397 202.56C109.397 203.088 109.197 203.352 108.797 203.352H104.237C103.917 203.352 103.757 203.536 103.757 203.904C103.757 205.6 104.005 206.872 104.501 207.72C104.997 208.568 105.629 208.992 106.397 208.992C107.005 208.992 107.501 208.776 107.885 208.344C108.269 207.912 108.581 207.184 108.821 206.16C108.869 205.984 108.973 205.896 109.133 205.896C109.325 205.896 109.397 206.056 109.349 206.376C109.093 207.8 108.685 208.8 108.125 209.376C107.565 209.936 106.885 210.216 106.085 210.216ZM104.165 202.752H106.589C107.357 202.752 107.741 202.352 107.741 201.552C107.741 200.512 107.613 199.696 107.357 199.104C107.101 198.512 106.717 198.216 106.205 198.216C105.581 198.216 105.053 198.576 104.621 199.296C104.205 200.016 103.933 201.04 103.805 202.368C103.773 202.624 103.893 202.752 104.165 202.752ZM114.352 210.216C113.648 210.216 113.016 209.976 112.456 209.496C111.912 209 111.488 208.32 111.184 207.456C110.88 206.576 110.728 205.56 110.728 204.408C110.728 203.064 110.936 201.888 111.352 200.88C111.768 199.856 112.344 199.056 113.08 198.48C113.816 197.904 114.648 197.616 115.576 197.616C115.8 197.616 116.024 197.64 116.248 197.688C116.472 197.72 116.688 197.784 116.896 197.88C117.152 198.008 117.28 197.952 117.28 197.712V194.64C117.28 194.352 117.232 194.152 117.136 194.04C117.056 193.928 116.904 193.864 116.68 193.848L116.056 193.776C115.88 193.744 115.792 193.648 115.792 193.488C115.792 193.328 115.88 193.232 116.056 193.2C116.568 193.104 116.976 192.992 117.28 192.864C117.6 192.736 117.864 192.608 118.072 192.48C118.328 192.32 118.52 192.24 118.648 192.24C118.824 192.24 118.912 192.368 118.912 192.624V207.72C118.912 208.392 119.08 208.728 119.416 208.728C119.624 208.728 119.816 208.592 119.992 208.32C120.168 208.032 120.256 207.552 120.256 206.88C120.256 206.624 120.36 206.496 120.568 206.496C120.76 206.496 120.856 206.632 120.856 206.904C120.856 208.072 120.656 208.92 120.256 209.448C119.856 209.96 119.4 210.216 118.888 210.216C118.424 210.216 118.072 210.064 117.832 209.76C117.592 209.44 117.432 209.064 117.352 208.632C117.336 208.504 117.28 208.44 117.184 208.44C117.088 208.424 117 208.48 116.92 208.608C116.472 209.232 116.064 209.656 115.696 209.88C115.328 210.104 114.88 210.216 114.352 210.216ZM114.88 209.112C115.296 209.112 115.68 208.976 116.032 208.704C116.4 208.416 116.696 208.032 116.92 207.552C117.16 207.072 117.28 206.536 117.28 205.944V200.544C117.28 199.824 117.112 199.256 116.776 198.84C116.456 198.424 116.032 198.216 115.504 198.216C114.608 198.216 113.88 198.744 113.32 199.8C112.776 200.84 112.504 202.264 112.504 204.072C112.504 205.72 112.712 206.976 113.128 207.84C113.56 208.688 114.144 209.112 114.88 209.112ZM128.583 210.216C128.023 210.216 127.559 210.024 127.191 209.64C126.839 209.24 126.663 208.592 126.663 207.696V198.72C126.663 198.528 126.567 198.432 126.375 198.432H125.679C125.423 198.432 125.295 198.336 125.295 198.144C125.295 198.016 125.367 197.904 125.511 197.808C126.039 197.44 126.463 197.048 126.783 196.632C127.103 196.2 127.383 195.616 127.623 194.88C127.735 194.544 127.871 194.376 128.031 194.376C128.207 194.376 128.295 194.504 128.295 194.76V197.424C128.295 197.648 128.407 197.76 128.631 197.76H130.191C130.447 197.76 130.575 197.872 130.575 198.096C130.575 198.32 130.447 198.432 130.191 198.432H128.631C128.407 198.432 128.295 198.544 128.295 198.768V207.72C128.295 208.072 128.351 208.352 128.463 208.56C128.575 208.752 128.783 208.848 129.087 208.848C129.423 208.848 129.695 208.68 129.903 208.344C130.127 208.008 130.271 207.464 130.335 206.712C130.367 206.488 130.471 206.376 130.647 206.376C130.839 206.376 130.935 206.496 130.935 206.736C130.887 207.968 130.631 208.856 130.167 209.4C129.719 209.944 129.191 210.216 128.583 210.216ZM135.874 210.216C135.106 210.216 134.418 209.96 133.81 209.448C133.202 208.936 132.714 208.216 132.346 207.288C131.994 206.344 131.818 205.256 131.818 204.024C131.818 202.76 132.002 201.648 132.37 200.688C132.738 199.728 133.242 198.976 133.882 198.432C134.522 197.888 135.234 197.616 136.018 197.616C136.962 197.616 137.722 198.008 138.298 198.792C138.89 199.56 139.186 200.816 139.186 202.56C139.186 203.088 138.986 203.352 138.586 203.352H134.026C133.706 203.352 133.546 203.536 133.546 203.904C133.546 205.6 133.794 206.872 134.29 207.72C134.786 208.568 135.418 208.992 136.186 208.992C136.794 208.992 137.29 208.776 137.674 208.344C138.058 207.912 138.37 207.184 138.61 206.16C138.658 205.984 138.762 205.896 138.922 205.896C139.114 205.896 139.186 206.056 139.138 206.376C138.882 207.8 138.474 208.8 137.914 209.376C137.354 209.936 136.674 210.216 135.874 210.216ZM133.954 202.752H136.378C137.146 202.752 137.53 202.352 137.53 201.552C137.53 200.512 137.402 199.696 137.146 199.104C136.89 198.512 136.506 198.216 135.994 198.216C135.37 198.216 134.842 198.576 134.41 199.296C133.994 200.016 133.722 201.04 133.594 202.368C133.562 202.624 133.682 202.752 133.954 202.752ZM144.117 210.216C143.413 210.216 142.773 209.984 142.197 209.52C141.637 209.04 141.189 208.36 140.853 207.48C140.517 206.6 140.349 205.552 140.349 204.336C140.349 202.976 140.549 201.792 140.949 200.784C141.365 199.776 141.925 199 142.629 198.456C143.333 197.896 144.117 197.616 144.981 197.616C145.717 197.616 146.293 197.76 146.709 198.048C146.869 198.16 146.949 198.336 146.949 198.576L146.997 201.504C146.997 201.744 146.901 201.864 146.709 201.864C146.533 201.864 146.421 201.76 146.373 201.552C146.149 200.672 145.933 199.992 145.725 199.512C145.517 199.032 145.301 198.704 145.077 198.528C144.853 198.336 144.605 198.24 144.333 198.24C144.013 198.24 143.677 198.424 143.325 198.792C142.989 199.16 142.701 199.76 142.461 200.592C142.237 201.408 142.125 202.488 142.125 203.832C142.125 205.544 142.341 206.832 142.773 207.696C143.221 208.56 143.797 208.992 144.501 208.992C145.061 208.992 145.525 208.76 145.893 208.296C146.277 207.832 146.605 206.992 146.877 205.776C146.925 205.6 147.021 205.512 147.165 205.512C147.357 205.512 147.429 205.672 147.381 205.992C147.205 207.112 146.957 207.984 146.637 208.608C146.333 209.216 145.965 209.64 145.533 209.88C145.117 210.104 144.645 210.216 144.117 210.216ZM148.578 210C148.386 210 148.29 209.912 148.29 209.736C148.29 209.576 148.378 209.48 148.554 209.448L148.89 209.4C149.226 209.352 149.442 209.256 149.538 209.112C149.65 208.968 149.706 208.728 149.706 208.392V194.64C149.706 194.352 149.658 194.16 149.562 194.064C149.482 193.952 149.33 193.88 149.106 193.848L148.602 193.776C148.426 193.744 148.338 193.648 148.338 193.488C148.338 193.328 148.426 193.232 148.602 193.2C149.05 193.104 149.426 192.992 149.73 192.864C150.034 192.736 150.29 192.608 150.498 192.48C150.754 192.32 150.946 192.24 151.074 192.24C151.25 192.24 151.338 192.368 151.338 192.624V198.984C151.338 199.128 151.386 199.216 151.482 199.248C151.578 199.264 151.698 199.208 151.842 199.08C152.45 198.52 152.986 198.136 153.45 197.928C153.914 197.72 154.402 197.616 154.914 197.616C155.666 197.616 156.258 197.872 156.69 198.384C157.122 198.88 157.338 199.616 157.338 200.592V208.392C157.338 208.728 157.386 208.968 157.482 209.112C157.594 209.24 157.818 209.328 158.154 209.376L158.682 209.448C158.858 209.48 158.946 209.576 158.946 209.736C158.946 209.912 158.85 210 158.658 210H154.626C154.402 210 154.29 209.912 154.29 209.736C154.29 209.576 154.378 209.48 154.554 209.448L154.89 209.4C155.226 209.352 155.442 209.256 155.538 209.112C155.65 208.968 155.706 208.728 155.706 208.392V200.856C155.706 200.072 155.562 199.52 155.274 199.2C154.986 198.88 154.578 198.72 154.05 198.72C153.538 198.72 153.074 198.872 152.658 199.176C152.258 199.464 151.938 199.856 151.698 200.352C151.458 200.832 151.338 201.368 151.338 201.96V208.392C151.338 208.728 151.386 208.968 151.482 209.112C151.594 209.256 151.818 209.344 152.154 209.376L152.802 209.448C152.978 209.48 153.066 209.576 153.066 209.736C153.066 209.912 152.97 210 152.778 210H148.578ZM166.425 210.216C166.057 210.216 165.665 210.168 165.249 210.072C164.833 209.992 164.497 209.888 164.241 209.76C164.097 209.68 164.025 209.544 164.025 209.352L163.953 206.664C163.953 206.392 164.057 206.256 164.265 206.256C164.441 206.256 164.561 206.384 164.625 206.64C164.897 207.776 165.225 208.552 165.609 208.968C166.009 209.384 166.489 209.592 167.049 209.592C167.513 209.592 167.897 209.416 168.201 209.064C168.505 208.696 168.657 208.192 168.657 207.552C168.657 206.912 168.481 206.344 168.129 205.848C167.777 205.352 167.185 204.808 166.353 204.216C165.521 203.656 164.913 203.096 164.529 202.536C164.145 201.96 163.953 201.336 163.953 200.664C163.953 199.752 164.273 199.016 164.913 198.456C165.553 197.896 166.401 197.616 167.457 197.616C167.777 197.616 168.089 197.656 168.393 197.736C168.697 197.8 168.969 197.912 169.209 198.072C169.353 198.168 169.425 198.296 169.425 198.456L169.473 201.096C169.473 201.336 169.377 201.456 169.185 201.456C169.073 201.456 168.993 201.424 168.945 201.36C168.897 201.28 168.857 201.184 168.825 201.072C168.505 200.032 168.185 199.312 167.865 198.912C167.545 198.496 167.153 198.288 166.689 198.288C166.273 198.288 165.929 198.432 165.657 198.72C165.385 199.008 165.249 199.368 165.249 199.8C165.249 200.36 165.417 200.848 165.753 201.264C166.089 201.68 166.697 202.192 167.577 202.8C168.377 203.376 168.977 204 169.377 204.672C169.793 205.328 170.001 206.048 170.001 206.832C170.001 207.856 169.673 208.68 169.017 209.304C168.361 209.912 167.497 210.216 166.425 210.216ZM174.192 210.216C173.632 210.216 173.168 210.024 172.8 209.64C172.448 209.24 172.272 208.592 172.272 207.696V198.72C172.272 198.528 172.176 198.432 171.984 198.432H171.288C171.032 198.432 170.904 198.336 170.904 198.144C170.904 198.016 170.976 197.904 171.12 197.808C171.648 197.44 172.072 197.048 172.392 196.632C172.712 196.2 172.992 195.616 173.232 194.88C173.344 194.544 173.48 194.376 173.64 194.376C173.816 194.376 173.904 194.504 173.904 194.76V197.424C173.904 197.648 174.016 197.76 174.24 197.76H175.8C176.056 197.76 176.184 197.872 176.184 198.096C176.184 198.32 176.056 198.432 175.8 198.432H174.24C174.016 198.432 173.904 198.544 173.904 198.768V207.72C173.904 208.072 173.96 208.352 174.072 208.56C174.184 208.752 174.392 208.848 174.696 208.848C175.032 208.848 175.304 208.68 175.512 208.344C175.736 208.008 175.88 207.464 175.944 206.712C175.976 206.488 176.08 206.376 176.256 206.376C176.448 206.376 176.544 206.496 176.544 206.736C176.496 207.968 176.24 208.856 175.776 209.4C175.328 209.944 174.8 210.216 174.192 210.216ZM179.755 210.216C179.083 210.216 178.531 210.008 178.099 209.592C177.667 209.16 177.451 208.592 177.451 207.888C177.451 207.2 177.667 206.552 178.099 205.944C178.531 205.32 179.123 204.76 179.875 204.264C180.627 203.768 181.483 203.368 182.443 203.064C182.651 203 182.755 202.864 182.755 202.656V200.472C182.755 199.704 182.635 199.16 182.395 198.84C182.155 198.504 181.827 198.336 181.411 198.336C181.011 198.336 180.643 198.52 180.307 198.888C179.987 199.24 179.755 199.84 179.611 200.688C179.531 201.2 179.355 201.576 179.083 201.816C178.827 202.04 178.563 202.152 178.291 202.152C177.843 202.152 177.619 201.928 177.619 201.48C177.619 201.016 177.747 200.56 178.003 200.112C178.275 199.648 178.627 199.232 179.059 198.864C179.491 198.48 179.963 198.176 180.475 197.952C180.987 197.728 181.499 197.616 182.011 197.616C183.595 197.616 184.387 198.536 184.387 200.376V207.72C184.387 208.392 184.555 208.728 184.891 208.728C185.099 208.728 185.291 208.592 185.467 208.32C185.643 208.032 185.731 207.552 185.731 206.88C185.731 206.624 185.835 206.496 186.043 206.496C186.235 206.496 186.331 206.632 186.331 206.904C186.331 208.072 186.123 208.92 185.707 209.448C185.307 209.96 184.851 210.216 184.339 210.216C183.955 210.216 183.651 210.064 183.427 209.76C183.203 209.44 183.051 209.064 182.971 208.632C182.955 208.472 182.883 208.392 182.755 208.392C182.643 208.376 182.531 208.448 182.419 208.608C182.035 209.136 181.643 209.536 181.243 209.808C180.843 210.08 180.347 210.216 179.755 210.216ZM180.403 209.112C180.819 209.112 181.203 208.968 181.555 208.68C181.907 208.376 182.195 207.976 182.419 207.48C182.643 206.984 182.755 206.424 182.755 205.8V204.048C182.755 203.744 182.587 203.656 182.251 203.784C181.275 204.136 180.515 204.624 179.971 205.248C179.443 205.856 179.179 206.592 179.179 207.456C179.179 208.56 179.587 209.112 180.403 209.112ZM190.781 210.216C190.077 210.216 189.437 209.984 188.861 209.52C188.301 209.04 187.853 208.36 187.517 207.48C187.181 206.6 187.013 205.552 187.013 204.336C187.013 202.976 187.213 201.792 187.613 200.784C188.029 199.776 188.589 199 189.293 198.456C189.997 197.896 190.781 197.616 191.645 197.616C192.381 197.616 192.957 197.76 193.373 198.048C193.533 198.16 193.613 198.336 193.613 198.576L193.661 201.504C193.661 201.744 193.565 201.864 193.373 201.864C193.197 201.864 193.085 201.76 193.037 201.552C192.813 200.672 192.597 199.992 192.389 199.512C192.181 199.032 191.965 198.704 191.741 198.528C191.517 198.336 191.269 198.24 190.997 198.24C190.677 198.24 190.341 198.424 189.989 198.792C189.653 199.16 189.365 199.76 189.125 200.592C188.901 201.408 188.789 202.488 188.789 203.832C188.789 205.544 189.005 206.832 189.437 207.696C189.885 208.56 190.461 208.992 191.165 208.992C191.725 208.992 192.189 208.76 192.557 208.296C192.941 207.832 193.269 206.992 193.541 205.776C193.589 205.6 193.685 205.512 193.829 205.512C194.021 205.512 194.093 205.672 194.045 205.992C193.869 207.112 193.621 207.984 193.301 208.608C192.997 209.216 192.629 209.64 192.197 209.88C191.781 210.104 191.309 210.216 190.781 210.216ZM195.242 210C195.05 210 194.954 209.912 194.954 209.736C194.954 209.576 195.042 209.48 195.218 209.448L195.554 209.4C195.89 209.352 196.106 209.256 196.202 209.112C196.314 208.968 196.37 208.728 196.37 208.392V194.64C196.37 194.352 196.322 194.16 196.226 194.064C196.146 193.952 195.994 193.88 195.77 193.848L195.266 193.776C195.09 193.744 195.002 193.648 195.002 193.488C195.002 193.328 195.09 193.232 195.266 193.2C195.714 193.104 196.09 192.992 196.394 192.864C196.698 192.736 196.954 192.608 197.162 192.48C197.418 192.32 197.61 192.24 197.738 192.24C197.914 192.24 198.002 192.368 198.002 192.624V202.68C198.002 202.84 198.066 202.944 198.194 202.992C198.338 203.024 198.474 202.968 198.602 202.824L201.41 199.8C201.746 199.432 201.882 199.128 201.818 198.888C201.77 198.632 201.586 198.472 201.266 198.408L200.714 198.312C200.506 198.264 200.402 198.16 200.402 198C200.402 197.84 200.514 197.76 200.738 197.76H204.866C205.09 197.76 205.202 197.848 205.202 198.024C205.202 198.2 205.098 198.296 204.89 198.312L204.674 198.336C204.306 198.368 203.938 198.512 203.57 198.768C203.202 199.008 202.762 199.392 202.25 199.92L200.762 201.504C200.426 201.872 200.346 202.232 200.522 202.584L203.546 208.392C203.722 208.712 203.914 208.944 204.122 209.088C204.33 209.232 204.586 209.336 204.89 209.4L205.13 209.448C205.322 209.496 205.418 209.592 205.418 209.736C205.418 209.912 205.306 210 205.082 210H200.906C200.682 210 200.57 209.912 200.57 209.736C200.57 209.576 200.674 209.48 200.882 209.448L201.29 209.4C201.898 209.32 202.026 208.928 201.674 208.224L199.394 203.784C199.314 203.624 199.194 203.536 199.034 203.52C198.89 203.504 198.754 203.56 198.626 203.688L198.362 203.952C198.218 204.096 198.122 204.24 198.074 204.384C198.026 204.528 198.002 204.688 198.002 204.864V208.392C198.002 208.728 198.05 208.968 198.146 209.112C198.258 209.256 198.482 209.344 198.818 209.376L199.466 209.448C199.642 209.48 199.73 209.576 199.73 209.736C199.73 209.912 199.634 210 199.442 210H195.242Z" fill="#750506"/>
<path d="M41.152 251V242.48H46.528V243.824H41.728L42.64 242.96V246.872L41.728 246.164H46.312V247.496H41.728L42.64 246.8V251H41.152ZM49.9073 251V249.632H51.8513V243.848H49.9073V242.48H55.2833V243.848H53.3393V249.632H55.2833V251H49.9073ZM61.5906 251.192C60.9666 251.192 60.4146 251.024 59.9346 250.688C59.4546 250.344 59.0786 249.84 58.8066 249.176C58.5346 248.512 58.3986 247.704 58.3986 246.752C58.3986 245.832 58.5266 245.04 58.7826 244.376C59.0386 243.712 59.4066 243.2 59.8866 242.84C60.3746 242.472 60.9546 242.288 61.6266 242.288C62.1706 242.288 62.6506 242.404 63.0666 242.636C63.4826 242.868 63.8266 243.204 64.0986 243.644C64.3786 244.076 64.5786 244.592 64.6986 245.192L63.1626 245.288C63.0586 244.768 62.8786 244.364 62.6226 244.076C62.3666 243.788 62.0386 243.644 61.6386 243.644C61.2786 243.644 60.9706 243.764 60.7146 244.004C60.4586 244.244 60.2626 244.596 60.1266 245.06C59.9986 245.524 59.9346 246.088 59.9346 246.752C59.9346 247.408 60.0026 247.968 60.1386 248.432C60.2826 248.888 60.4866 249.236 60.7506 249.476C61.0146 249.716 61.3386 249.836 61.7226 249.836C62.0426 249.836 62.3186 249.756 62.5506 249.596C62.7826 249.428 62.9626 249.192 63.0906 248.888C63.2266 248.584 63.3026 248.228 63.3186 247.82H61.6146V246.608H64.6866V251H63.6066L63.5346 249.104L63.8946 248.996C63.8226 249.396 63.6906 249.764 63.4986 250.1C63.3146 250.436 63.0626 250.704 62.7426 250.904C62.4306 251.096 62.0466 251.192 61.5906 251.192ZM70.0939 249.896L68.7499 244.304L68.9299 244.28V251H67.5379V242.48H69.3379L70.8139 248.408H70.3579L71.8339 242.48H73.6339V251H72.2419V244.28L72.4219 244.304L71.0779 249.896H70.0939ZM76.2333 251L78.6573 242.48H80.5053L82.9293 251H81.4053L79.5813 244.16L77.7573 251H76.2333ZM77.7213 248.984L78.1293 247.652H81.0333L81.4413 248.984H77.7213Z" fill="#750506"/>
<line x1="40" y1="271.5" x2="331" y2="271.5" stroke="#A0A09C"/>
<ellipse cx="326.318" cy="272" rx="1.9504" ry="5" fill="#B91D22"/>
<line x1="43.4766" y1="276" x2="43.4766" y2="267" stroke="#A0A09C" stroke-width="2"/>
<line x1="322.836" y1="276" x2="322.836" y2="267" stroke="#A0A09C" stroke-width="2"/>
<path opacity="0.5" d="M43.684 301.192C43.06 301.192 42.516 301.068 42.052 300.82C41.596 300.572 41.236 300.224 40.972 299.776C40.708 299.32 40.552 298.784 40.504 298.168L42.016 298.084C42.072 298.476 42.172 298.804 42.316 299.068C42.468 299.324 42.664 299.52 42.904 299.656C43.152 299.784 43.436 299.848 43.756 299.848C44.06 299.848 44.316 299.808 44.524 299.728C44.74 299.648 44.904 299.528 45.016 299.368C45.128 299.208 45.184 299.016 45.184 298.792C45.184 298.552 45.128 298.344 45.016 298.168C44.904 297.992 44.704 297.828 44.416 297.676C44.128 297.524 43.716 297.376 43.18 297.232C42.604 297.08 42.132 296.904 41.764 296.704C41.396 296.504 41.124 296.256 40.948 295.96C40.772 295.656 40.684 295.276 40.684 294.82C40.684 294.308 40.796 293.864 41.02 293.488C41.252 293.104 41.584 292.808 42.016 292.6C42.456 292.392 42.98 292.288 43.588 292.288C44.188 292.288 44.7 292.404 45.124 292.636C45.548 292.86 45.88 293.184 46.12 293.608C46.368 294.024 46.52 294.52 46.576 295.096L45.052 295.168C45.012 294.856 44.928 294.588 44.8 294.364C44.68 294.132 44.512 293.952 44.296 293.824C44.088 293.696 43.832 293.632 43.528 293.632C43.12 293.632 42.796 293.736 42.556 293.944C42.316 294.144 42.196 294.408 42.196 294.736C42.196 294.968 42.248 295.16 42.352 295.312C42.464 295.464 42.652 295.6 42.916 295.72C43.18 295.84 43.552 295.96 44.032 296.08C44.696 296.256 45.22 296.464 45.604 296.704C45.996 296.944 46.276 297.232 46.444 297.568C46.612 297.904 46.696 298.3 46.696 298.756C46.696 299.244 46.572 299.672 46.324 300.04C46.076 300.408 45.728 300.692 45.28 300.892C44.832 301.092 44.3 301.192 43.684 301.192ZM52.5953 301.192C51.9153 301.192 51.3353 301.02 50.8553 300.676C50.3833 300.332 50.0233 299.828 49.7753 299.164C49.5273 298.5 49.4033 297.696 49.4033 296.752C49.4033 295.792 49.5273 294.98 49.7753 294.316C50.0233 293.652 50.3833 293.148 50.8553 292.804C51.3353 292.46 51.9153 292.288 52.5953 292.288C53.2753 292.288 53.8513 292.46 54.3233 292.804C54.8033 293.148 55.1673 293.652 55.4153 294.316C55.6633 294.98 55.7873 295.792 55.7873 296.752C55.7873 297.696 55.6633 298.5 55.4153 299.164C55.1673 299.828 54.8033 300.332 54.3233 300.676C53.8513 301.02 53.2753 301.192 52.5953 301.192ZM52.5953 299.848C52.9553 299.848 53.2593 299.736 53.5073 299.512C53.7553 299.288 53.9393 298.948 54.0593 298.492C54.1873 298.028 54.2513 297.448 54.2513 296.752C54.2513 296.056 54.1873 295.476 54.0593 295.012C53.9393 294.548 53.7553 294.204 53.5073 293.98C53.2593 293.748 52.9553 293.632 52.5953 293.632C52.2353 293.632 51.9313 293.748 51.6833 293.98C51.4353 294.204 51.2473 294.548 51.1193 295.012C50.9993 295.476 50.9393 296.056 50.9393 296.752C50.9393 297.448 50.9993 298.028 51.1193 298.492C51.2473 298.948 51.4353 299.288 51.6833 299.512C51.9313 299.736 52.2353 299.848 52.5953 299.848ZM61.5906 301.192C60.6706 301.192 59.9506 300.92 59.4306 300.376C58.9186 299.824 58.6626 299.048 58.6626 298.048V292.48H60.1506V298.144C60.1506 298.688 60.2706 299.108 60.5106 299.404C60.7586 299.7 61.1186 299.848 61.5906 299.848C62.0626 299.848 62.4186 299.7 62.6586 299.404C62.9066 299.108 63.0306 298.688 63.0306 298.144V292.48H64.5186V298.048C64.5186 299.048 64.2586 299.824 63.7386 300.376C63.2266 300.92 62.5106 301.192 61.5906 301.192ZM67.7539 301V292.48H70.4539C71.3659 292.48 72.0819 292.708 72.6019 293.164C73.1219 293.62 73.3819 294.244 73.3819 295.036C73.3819 295.444 73.2899 295.804 73.1059 296.116C72.9299 296.428 72.6939 296.676 72.3979 296.86C72.1019 297.036 71.7779 297.136 71.4259 297.16L71.3779 297.004C71.9939 297.028 72.4539 297.164 72.7579 297.412C73.0619 297.652 73.2379 298.048 73.2859 298.6L73.4899 301H72.0019L71.8219 298.948C71.7979 298.644 71.7379 298.408 71.6419 298.24C71.5539 298.072 71.4139 297.956 71.2219 297.892C71.0379 297.828 70.7819 297.796 70.4539 297.796H69.2419V301H67.7539ZM69.2419 296.428H70.4179C70.8819 296.428 71.2339 296.316 71.4739 296.092C71.7219 295.868 71.8459 295.548 71.8459 295.132C71.8459 294.716 71.7219 294.4 71.4739 294.184C71.2339 293.96 70.8819 293.848 70.4179 293.848H69.2419V296.428Z" fill="#424242"/>
<path opacity="0.5" d="M290.684 301.192C290.06 301.192 289.516 301.068 289.052 300.82C288.596 300.572 288.236 300.224 287.972 299.776C287.708 299.32 287.552 298.784 287.504 298.168L289.016 298.084C289.072 298.476 289.172 298.804 289.316 299.068C289.468 299.324 289.664 299.52 289.904 299.656C290.152 299.784 290.436 299.848 290.756 299.848C291.06 299.848 291.316 299.808 291.524 299.728C291.74 299.648 291.904 299.528 292.016 299.368C292.128 299.208 292.184 299.016 292.184 298.792C292.184 298.552 292.128 298.344 292.016 298.168C291.904 297.992 291.704 297.828 291.416 297.676C291.128 297.524 290.716 297.376 290.18 297.232C289.604 297.08 289.132 296.904 288.764 296.704C288.396 296.504 288.124 296.256 287.948 295.96C287.772 295.656 287.684 295.276 287.684 294.82C287.684 294.308 287.796 293.864 288.02 293.488C288.252 293.104 288.584 292.808 289.016 292.6C289.456 292.392 289.98 292.288 290.588 292.288C291.188 292.288 291.7 292.404 292.124 292.636C292.548 292.86 292.88 293.184 293.12 293.608C293.368 294.024 293.52 294.52 293.576 295.096L292.052 295.168C292.012 294.856 291.928 294.588 291.8 294.364C291.68 294.132 291.512 293.952 291.296 293.824C291.088 293.696 290.832 293.632 290.528 293.632C290.12 293.632 289.796 293.736 289.556 293.944C289.316 294.144 289.196 294.408 289.196 294.736C289.196 294.968 289.248 295.16 289.352 295.312C289.464 295.464 289.652 295.6 289.916 295.72C290.18 295.84 290.552 295.96 291.032 296.08C291.696 296.256 292.22 296.464 292.604 296.704C292.996 296.944 293.276 297.232 293.444 297.568C293.612 297.904 293.696 298.3 293.696 298.756C293.696 299.244 293.572 299.672 293.324 300.04C293.076 300.408 292.728 300.692 292.28 300.892C291.832 301.092 291.3 301.192 290.684 301.192ZM297.207 301L296.307 292.48H297.747L298.359 299.536H298.215L299.043 293.44H300.147L300.975 299.536H300.831L301.443 292.48H302.883L301.983 301H300.267L299.451 295.24H299.739L298.923 301H297.207ZM306.023 301V292.48H311.303V293.848H307.511V296.068H311.159V297.388H307.511V299.632H311.399V301H306.023ZM315.018 301V292.48H320.298V293.848H316.506V296.068H320.154V297.388H316.506V299.632H320.394V301H315.018ZM325.837 301V293.848H323.461V292.48H329.701V293.848H327.325V301H325.837Z" fill="#424242"/>
<path d="M41.152 337V328.48H46.528V329.824H41.728L42.64 328.96V332.872L41.728 332.164H46.312V333.496H41.728L42.64 332.8V337H41.152ZM49.7633 337V328.48H52.4633C53.3753 328.48 54.0913 328.708 54.6113 329.164C55.1313 329.62 55.3913 330.244 55.3913 331.036C55.3913 331.444 55.2993 331.804 55.1153 332.116C54.9393 332.428 54.7033 332.676 54.4073 332.86C54.1113 333.036 53.7873 333.136 53.4353 333.16L53.3873 333.004C54.0033 333.028 54.4633 333.164 54.7673 333.412C55.0713 333.652 55.2473 334.048 55.2953 334.6L55.4993 337H54.0113L53.8313 334.948C53.8073 334.644 53.7473 334.408 53.6513 334.24C53.5633 334.072 53.4233 333.956 53.2313 333.892C53.0473 333.828 52.7913 333.796 52.4633 333.796H51.2513V337H49.7633ZM51.2513 332.428H52.4273C52.8913 332.428 53.2433 332.316 53.4833 332.092C53.7313 331.868 53.8553 331.548 53.8553 331.132C53.8553 330.716 53.7313 330.4 53.4833 330.184C53.2433 329.96 52.8913 329.848 52.4273 329.848H51.2513V332.428ZM58.2426 337L60.6666 328.48H62.5146L64.9386 337H63.4146L61.5906 330.16L59.7666 337H58.2426ZM59.7306 334.984L60.1386 333.652H63.0426L63.4506 334.984H59.7306ZM70.0939 335.896L68.7499 330.304L68.9299 330.28V337H67.5379V328.48H69.3379L70.8139 334.408H70.3579L71.8339 328.48H73.6339V337H72.2419V330.28L72.4219 330.304L71.0779 335.896H70.0939ZM77.0133 337V328.48H82.2933V329.848H78.5013V332.068H82.1493V333.388H78.5013V335.632H82.3893V337H77.0133ZM85.7446 337V328.48H88.4446C89.3566 328.48 90.0726 328.708 90.5926 329.164C91.1126 329.62 91.3726 330.244 91.3726 331.036C91.3726 331.444 91.2806 331.804 91.0966 332.116C90.9206 332.428 90.6846 332.676 90.3886 332.86C90.0926 333.036 89.7686 333.136 89.4166 333.16L89.3686 333.004C89.9846 333.028 90.4446 333.164 90.7486 333.412C91.0526 333.652 91.2286 334.048 91.2766 334.6L91.4806 337H89.9926L89.8126 334.948C89.7886 334.644 89.7286 334.408 89.6326 334.24C89.5446 334.072 89.4046 333.956 89.2126 333.892C89.0286 333.828 88.7726 333.796 88.4446 333.796H87.2326V337H85.7446ZM87.2326 332.428H88.4086C88.8726 332.428 89.2246 332.316 89.4646 332.092C89.7126 331.868 89.8366 331.548 89.8366 331.132C89.8366 330.716 89.7126 330.4 89.4646 330.184C89.2246 329.96 88.8726 329.848 88.4086 329.848H87.2326V332.428Z" fill="#750506"/>
<line x1="40" y1="357.586" x2="331" y2="357.586" stroke="#A0A09C"/>
<ellipse cx="1.95206" cy="4.99935" rx="1.95206" ry="4.99935" transform="matrix(0.999 0.0447026 -0.00680872 0.999977 318.555 353)" fill="#B91D22"/>
<line x1="43.4766" y1="362.078" x2="43.4766" y2="353.078" stroke="#A0A09C" stroke-width="2"/>
<line x1="322.84" y1="362.078" x2="322.84" y2="353.078" stroke="#A0A09C" stroke-width="2"/>
<path opacity="0.5" d="M43.684 387.364C43.06 387.364 42.516 387.24 42.052 386.992C41.596 386.744 41.236 386.396 40.972 385.948C40.708 385.492 40.552 384.956 40.504 384.34L42.016 384.256C42.072 384.648 42.172 384.976 42.316 385.24C42.468 385.496 42.664 385.692 42.904 385.828C43.152 385.956 43.436 386.02 43.756 386.02C44.06 386.02 44.316 385.98 44.524 385.9C44.74 385.82 44.904 385.7 45.016 385.54C45.128 385.38 45.184 385.188 45.184 384.964C45.184 384.724 45.128 384.516 45.016 384.34C44.904 384.164 44.704 384 44.416 383.848C44.128 383.696 43.716 383.548 43.18 383.404C42.604 383.252 42.132 383.076 41.764 382.876C41.396 382.676 41.124 382.428 40.948 382.132C40.772 381.828 40.684 381.448 40.684 380.992C40.684 380.48 40.796 380.036 41.02 379.66C41.252 379.276 41.584 378.98 42.016 378.772C42.456 378.564 42.98 378.46 43.588 378.46C44.188 378.46 44.7 378.576 45.124 378.808C45.548 379.032 45.88 379.356 46.12 379.78C46.368 380.196 46.52 380.692 46.576 381.268L45.052 381.34C45.012 381.028 44.928 380.76 44.8 380.536C44.68 380.304 44.512 380.124 44.296 379.996C44.088 379.868 43.832 379.804 43.528 379.804C43.12 379.804 42.796 379.908 42.556 380.116C42.316 380.316 42.196 380.58 42.196 380.908C42.196 381.14 42.248 381.332 42.352 381.484C42.464 381.636 42.652 381.772 42.916 381.892C43.18 382.012 43.552 382.132 44.032 382.252C44.696 382.428 45.22 382.636 45.604 382.876C45.996 383.116 46.276 383.404 46.444 383.74C46.612 384.076 46.696 384.472 46.696 384.928C46.696 385.416 46.572 385.844 46.324 386.212C46.076 386.58 45.728 386.864 45.28 387.064C44.832 387.264 44.3 387.364 43.684 387.364ZM52.5953 387.364C51.9153 387.364 51.3353 387.192 50.8553 386.848C50.3833 386.504 50.0233 386 49.7753 385.336C49.5273 384.672 49.4033 383.868 49.4033 382.924C49.4033 381.964 49.5273 381.152 49.7753 380.488C50.0233 379.824 50.3833 379.32 50.8553 378.976C51.3353 378.632 51.9153 378.46 52.5953 378.46C53.2753 378.46 53.8513 378.632 54.3233 378.976C54.8033 379.32 55.1673 379.824 55.4153 380.488C55.6633 381.152 55.7873 381.964 55.7873 382.924C55.7873 383.868 55.6633 384.672 55.4153 385.336C55.1673 386 54.8033 386.504 54.3233 386.848C53.8513 387.192 53.2753 387.364 52.5953 387.364ZM52.5953 386.02C52.9553 386.02 53.2593 385.908 53.5073 385.684C53.7553 385.46 53.9393 385.12 54.0593 384.664C54.1873 384.2 54.2513 383.62 54.2513 382.924C54.2513 382.228 54.1873 381.648 54.0593 381.184C53.9393 380.72 53.7553 380.376 53.5073 380.152C53.2593 379.92 52.9553 379.804 52.5953 379.804C52.2353 379.804 51.9313 379.92 51.6833 380.152C51.4353 380.376 51.2473 380.72 51.1193 381.184C50.9993 381.648 50.9393 382.228 50.9393 382.924C50.9393 383.62 50.9993 384.2 51.1193 384.664C51.2473 385.12 51.4353 385.46 51.6833 385.684C51.9313 385.908 52.2353 386.02 52.5953 386.02ZM61.5906 387.364C60.6706 387.364 59.9506 387.092 59.4306 386.548C58.9186 385.996 58.6626 385.22 58.6626 384.22V378.652H60.1506V384.316C60.1506 384.86 60.2706 385.28 60.5106 385.576C60.7586 385.872 61.1186 386.02 61.5906 386.02C62.0626 386.02 62.4186 385.872 62.6586 385.576C62.9066 385.28 63.0306 384.86 63.0306 384.316V378.652H64.5186V384.22C64.5186 385.22 64.2586 385.996 63.7386 386.548C63.2266 387.092 62.5106 387.364 61.5906 387.364ZM67.7539 387.172V378.652H70.4539C71.3659 378.652 72.0819 378.88 72.6019 379.336C73.1219 379.792 73.3819 380.416 73.3819 381.208C73.3819 381.616 73.2899 381.976 73.1059 382.288C72.9299 382.6 72.6939 382.848 72.3979 383.032C72.1019 383.208 71.7779 383.308 71.4259 383.332L71.3779 383.176C71.9939 383.2 72.4539 383.336 72.7579 383.584C73.0619 383.824 73.2379 384.22 73.2859 384.772L73.4899 387.172H72.0019L71.8219 385.12C71.7979 384.816 71.7379 384.58 71.6419 384.412C71.5539 384.244 71.4139 384.128 71.2219 384.064C71.0379 384 70.7819 383.968 70.4539 383.968H69.2419V387.172H67.7539ZM69.2419 382.6H70.4179C70.8819 382.6 71.2339 382.488 71.4739 382.264C71.7219 382.04 71.8459 381.72 71.8459 381.304C71.8459 380.888 71.7219 380.572 71.4739 380.356C71.2339 380.132 70.8819 380.02 70.4179 380.02H69.2419V382.6Z" fill="#424242"/>
<path opacity="0.5" d="M290.684 387.364C290.06 387.364 289.516 387.24 289.052 386.992C288.596 386.744 288.236 386.396 287.972 385.948C287.708 385.492 287.552 384.956 287.504 384.34L289.016 384.256C289.072 384.648 289.172 384.976 289.316 385.24C289.468 385.496 289.664 385.692 289.904 385.828C290.152 385.956 290.436 386.02 290.756 386.02C291.06 386.02 291.316 385.98 291.524 385.9C291.74 385.82 291.904 385.7 292.016 385.54C292.128 385.38 292.184 385.188 292.184 384.964C292.184 384.724 292.128 384.516 292.016 384.34C291.904 384.164 291.704 384 291.416 383.848C291.128 383.696 290.716 383.548 290.18 383.404C289.604 383.252 289.132 383.076 288.764 382.876C288.396 382.676 288.124 382.428 287.948 382.132C287.772 381.828 287.684 381.448 287.684 380.992C287.684 380.48 287.796 380.036 288.02 379.66C288.252 379.276 288.584 378.98 289.016 378.772C289.456 378.564 289.98 378.46 290.588 378.46C291.188 378.46 291.7 378.576 292.124 378.808C292.548 379.032 292.88 379.356 293.12 379.78C293.368 380.196 293.52 380.692 293.576 381.268L292.052 381.34C292.012 381.028 291.928 380.76 291.8 380.536C291.68 380.304 291.512 380.124 291.296 379.996C291.088 379.868 290.832 379.804 290.528 379.804C290.12 379.804 289.796 379.908 289.556 380.116C289.316 380.316 289.196 380.58 289.196 380.908C289.196 381.14 289.248 381.332 289.352 381.484C289.464 381.636 289.652 381.772 289.916 381.892C290.18 382.012 290.552 382.132 291.032 382.252C291.696 382.428 292.22 382.636 292.604 382.876C292.996 383.116 293.276 383.404 293.444 383.74C293.612 384.076 293.696 384.472 293.696 384.928C293.696 385.416 293.572 385.844 293.324 386.212C293.076 386.58 292.728 386.864 292.28 387.064C291.832 387.264 291.3 387.364 290.684 387.364ZM297.207 387.172L296.307 378.652H297.747L298.359 385.708H298.215L299.043 379.612H300.147L300.975 385.708H300.831L301.443 378.652H302.883L301.983 387.172H300.267L299.451 381.412H299.739L298.923 387.172H297.207ZM306.023 387.172V378.652H311.303V380.02H307.511V382.24H311.159V383.56H307.511V385.804H311.399V387.172H306.023ZM315.018 387.172V378.652H320.298V380.02H316.506V382.24H320.154V383.56H316.506V385.804H320.394V387.172H315.018ZM325.837 387.172V380.02H323.461V378.652H329.701V380.02H327.325V387.172H325.837Z" fill="#424242"/>
<path d="M43.648 423.364C42.952 423.364 42.364 423.184 41.884 422.824C41.404 422.464 41.036 421.952 40.78 421.288C40.532 420.624 40.408 419.836 40.408 418.924C40.408 418.004 40.532 417.212 40.78 416.548C41.036 415.884 41.404 415.372 41.884 415.012C42.364 414.644 42.952 414.46 43.648 414.46C44.448 414.46 45.116 414.724 45.652 415.252C46.188 415.78 46.532 416.528 46.684 417.496L45.16 417.568C45.056 416.992 44.868 416.556 44.596 416.26C44.332 415.956 44.016 415.804 43.648 415.804C43.272 415.804 42.956 415.928 42.7 416.176C42.452 416.416 42.264 416.768 42.136 417.232C42.008 417.696 41.944 418.26 41.944 418.924C41.944 419.58 42.008 420.14 42.136 420.604C42.264 421.068 42.452 421.42 42.7 421.66C42.956 421.9 43.272 422.02 43.648 422.02C44.032 422.02 44.364 421.86 44.644 421.54C44.924 421.212 45.112 420.736 45.208 420.112L46.732 420.172C46.588 421.18 46.244 421.964 45.7 422.524C45.164 423.084 44.48 423.364 43.648 423.364ZM50.1473 423.172V414.652H51.6353V422.692L50.6153 421.804H55.5233V423.172H50.1473ZM58.2426 423.172L60.6666 414.652H62.5146L64.9386 423.172H63.4146L61.5906 416.332L59.7666 423.172H58.2426ZM59.7306 421.156L60.1386 419.824H63.0426L63.4506 421.156H59.7306ZM70.5859 423.364C69.6659 423.364 68.9459 423.092 68.4259 422.548C67.9139 421.996 67.6579 421.22 67.6579 420.22V414.652H69.1459V420.316C69.1459 420.86 69.2659 421.28 69.5059 421.576C69.7539 421.872 70.1139 422.02 70.5859 422.02C71.0579 422.02 71.4139 421.872 71.6539 421.576C71.9019 421.28 72.0259 420.86 72.0259 420.316V414.652H73.5139V420.22C73.5139 421.22 73.2539 421.996 72.7339 422.548C72.2219 423.092 71.5059 423.364 70.5859 423.364ZM76.8933 423.172V414.652H79.0173C79.7933 414.652 80.4613 414.82 81.0213 415.156C81.5893 415.484 82.0213 415.968 82.3173 416.608C82.6213 417.24 82.7733 418.012 82.7733 418.924C82.7733 419.836 82.6213 420.608 82.3173 421.24C82.0213 421.872 81.5893 422.352 81.0213 422.68C80.4613 423.008 79.7933 423.172 79.0173 423.172H76.8933ZM78.3693 421.804H79.0173C79.7293 421.804 80.2773 421.564 80.6613 421.084C81.0453 420.604 81.2373 419.884 81.2373 418.924C81.2373 417.956 81.0453 417.232 80.6613 416.752C80.2773 416.264 79.7293 416.02 79.0173 416.02H78.3693V421.804ZM86.0086 423.172V414.652H91.2886V416.02H87.4966V418.24H91.1446V419.56H87.4966V421.804H91.3846V423.172H86.0086ZM106.615 423.364C105.919 423.364 105.331 423.184 104.851 422.824C104.371 422.464 104.003 421.952 103.747 421.288C103.499 420.624 103.375 419.836 103.375 418.924C103.375 418.004 103.499 417.212 103.747 416.548C104.003 415.884 104.371 415.372 104.851 415.012C105.331 414.644 105.919 414.46 106.615 414.46C107.415 414.46 108.083 414.724 108.619 415.252C109.155 415.78 109.499 416.528 109.651 417.496L108.127 417.568C108.023 416.992 107.835 416.556 107.563 416.26C107.299 415.956 106.983 415.804 106.615 415.804C106.239 415.804 105.923 415.928 105.667 416.176C105.419 416.416 105.231 416.768 105.103 417.232C104.975 417.696 104.911 418.26 104.911 418.924C104.911 419.58 104.975 420.14 105.103 420.604C105.231 421.068 105.419 421.42 105.667 421.66C105.923 421.9 106.239 422.02 106.615 422.02C106.999 422.02 107.331 421.86 107.611 421.54C107.891 421.212 108.079 420.736 108.175 420.112L109.699 420.172C109.555 421.18 109.211 421.964 108.667 422.524C108.131 423.084 107.447 423.364 106.615 423.364ZM115.563 423.364C114.883 423.364 114.303 423.192 113.823 422.848C113.351 422.504 112.991 422 112.743 421.336C112.495 420.672 112.371 419.868 112.371 418.924C112.371 417.964 112.495 417.152 112.743 416.488C112.991 415.824 113.351 415.32 113.823 414.976C114.303 414.632 114.883 414.46 115.563 414.46C116.243 414.46 116.819 414.632 117.291 414.976C117.771 415.32 118.135 415.824 118.383 416.488C118.631 417.152 118.755 417.964 118.755 418.924C118.755 419.868 118.631 420.672 118.383 421.336C118.135 422 117.771 422.504 117.291 422.848C116.819 423.192 116.243 423.364 115.563 423.364ZM115.563 422.02C115.923 422.02 116.227 421.908 116.475 421.684C116.723 421.46 116.907 421.12 117.027 420.664C117.155 420.2 117.219 419.62 117.219 418.924C117.219 418.228 117.155 417.648 117.027 417.184C116.907 416.72 116.723 416.376 116.475 416.152C116.227 415.92 115.923 415.804 115.563 415.804C115.203 415.804 114.899 415.92 114.651 416.152C114.403 416.376 114.215 416.72 114.087 417.184C113.967 417.648 113.907 418.228 113.907 418.924C113.907 419.62 113.967 420.2 114.087 420.664C114.215 421.12 114.403 421.46 114.651 421.684C114.899 421.908 115.203 422.02 115.563 422.02ZM121.87 423.172V414.652H123.994C124.77 414.652 125.438 414.82 125.998 415.156C126.566 415.484 126.998 415.968 127.294 416.608C127.598 417.24 127.75 418.012 127.75 418.924C127.75 419.836 127.598 420.608 127.294 421.24C126.998 421.872 126.566 422.352 125.998 422.68C125.438 423.008 124.77 423.172 123.994 423.172H121.87ZM123.346 421.804H123.994C124.706 421.804 125.254 421.564 125.638 421.084C126.022 420.604 126.214 419.884 126.214 418.924C126.214 417.956 126.022 417.232 125.638 416.752C125.254 416.264 124.706 416.02 123.994 416.02H123.346V421.804ZM130.985 423.172V414.652H136.265V416.02H132.473V418.24H136.121V419.56H132.473V421.804H136.361V423.172H130.985Z" fill="#750506"/>
<line x1="40" y1="443.672" x2="331" y2="443.672" stroke="#A0A09C"/>
<ellipse cx="320.466" cy="444.172" rx="1.9504" ry="5" fill="#B91D22"/>
<line x1="43.4766" y1="448.172" x2="43.4766" y2="439.172" stroke="#A0A09C" stroke-width="2"/>
<line x1="322.836" y1="448.172" x2="322.836" y2="439.172" stroke="#A0A09C" stroke-width="2"/>
<path opacity="0.5" d="M43.684 473.364C43.06 473.364 42.516 473.24 42.052 472.992C41.596 472.744 41.236 472.396 40.972 471.948C40.708 471.492 40.552 470.956 40.504 470.34L42.016 470.256C42.072 470.648 42.172 470.976 42.316 471.24C42.468 471.496 42.664 471.692 42.904 471.828C43.152 471.956 43.436 472.02 43.756 472.02C44.06 472.02 44.316 471.98 44.524 471.9C44.74 471.82 44.904 471.7 45.016 471.54C45.128 471.38 45.184 471.188 45.184 470.964C45.184 470.724 45.128 470.516 45.016 470.34C44.904 470.164 44.704 470 44.416 469.848C44.128 469.696 43.716 469.548 43.18 469.404C42.604 469.252 42.132 469.076 41.764 468.876C41.396 468.676 41.124 468.428 40.948 468.132C40.772 467.828 40.684 467.448 40.684 466.992C40.684 466.48 40.796 466.036 41.02 465.66C41.252 465.276 41.584 464.98 42.016 464.772C42.456 464.564 42.98 464.46 43.588 464.46C44.188 464.46 44.7 464.576 45.124 464.808C45.548 465.032 45.88 465.356 46.12 465.78C46.368 466.196 46.52 466.692 46.576 467.268L45.052 467.34C45.012 467.028 44.928 466.76 44.8 466.536C44.68 466.304 44.512 466.124 44.296 465.996C44.088 465.868 43.832 465.804 43.528 465.804C43.12 465.804 42.796 465.908 42.556 466.116C42.316 466.316 42.196 466.58 42.196 466.908C42.196 467.14 42.248 467.332 42.352 467.484C42.464 467.636 42.652 467.772 42.916 467.892C43.18 468.012 43.552 468.132 44.032 468.252C44.696 468.428 45.22 468.636 45.604 468.876C45.996 469.116 46.276 469.404 46.444 469.74C46.612 470.076 46.696 470.472 46.696 470.928C46.696 471.416 46.572 471.844 46.324 472.212C46.076 472.58 45.728 472.864 45.28 473.064C44.832 473.264 44.3 473.364 43.684 473.364ZM52.5953 473.364C51.9153 473.364 51.3353 473.192 50.8553 472.848C50.3833 472.504 50.0233 472 49.7753 471.336C49.5273 470.672 49.4033 469.868 49.4033 468.924C49.4033 467.964 49.5273 467.152 49.7753 466.488C50.0233 465.824 50.3833 465.32 50.8553 464.976C51.3353 464.632 51.9153 464.46 52.5953 464.46C53.2753 464.46 53.8513 464.632 54.3233 464.976C54.8033 465.32 55.1673 465.824 55.4153 466.488C55.6633 467.152 55.7873 467.964 55.7873 468.924C55.7873 469.868 55.6633 470.672 55.4153 471.336C55.1673 472 54.8033 472.504 54.3233 472.848C53.8513 473.192 53.2753 473.364 52.5953 473.364ZM52.5953 472.02C52.9553 472.02 53.2593 471.908 53.5073 471.684C53.7553 471.46 53.9393 471.12 54.0593 470.664C54.1873 470.2 54.2513 469.62 54.2513 468.924C54.2513 468.228 54.1873 467.648 54.0593 467.184C53.9393 466.72 53.7553 466.376 53.5073 466.152C53.2593 465.92 52.9553 465.804 52.5953 465.804C52.2353 465.804 51.9313 465.92 51.6833 466.152C51.4353 466.376 51.2473 466.72 51.1193 467.184C50.9993 467.648 50.9393 468.228 50.9393 468.924C50.9393 469.62 50.9993 470.2 51.1193 470.664C51.2473 471.12 51.4353 471.46 51.6833 471.684C51.9313 471.908 52.2353 472.02 52.5953 472.02ZM61.5906 473.364C60.6706 473.364 59.9506 473.092 59.4306 472.548C58.9186 471.996 58.6626 471.22 58.6626 470.22V464.652H60.1506V470.316C60.1506 470.86 60.2706 471.28 60.5106 471.576C60.7586 471.872 61.1186 472.02 61.5906 472.02C62.0626 472.02 62.4186 471.872 62.6586 471.576C62.9066 471.28 63.0306 470.86 63.0306 470.316V464.652H64.5186V470.22C64.5186 471.22 64.2586 471.996 63.7386 472.548C63.2266 473.092 62.5106 473.364 61.5906 473.364ZM67.7539 473.172V464.652H70.4539C71.3659 464.652 72.0819 464.88 72.6019 465.336C73.1219 465.792 73.3819 466.416 73.3819 467.208C73.3819 467.616 73.2899 467.976 73.1059 468.288C72.9299 468.6 72.6939 468.848 72.3979 469.032C72.1019 469.208 71.7779 469.308 71.4259 469.332L71.3779 469.176C71.9939 469.2 72.4539 469.336 72.7579 469.584C73.0619 469.824 73.2379 470.22 73.2859 470.772L73.4899 473.172H72.0019L71.8219 471.12C71.7979 470.816 71.7379 470.58 71.6419 470.412C71.5539 470.244 71.4139 470.128 71.2219 470.064C71.0379 470 70.7819 469.968 70.4539 469.968H69.2419V473.172H67.7539ZM69.2419 468.6H70.4179C70.8819 468.6 71.2339 468.488 71.4739 468.264C71.7219 468.04 71.8459 467.72 71.8459 467.304C71.8459 466.888 71.7219 466.572 71.4739 466.356C71.2339 466.132 70.8819 466.02 70.4179 466.02H69.2419V468.6Z" fill="#424242"/>
<path opacity="0.5" d="M290.684 473.364C290.06 473.364 289.516 473.24 289.052 472.992C288.596 472.744 288.236 472.396 287.972 471.948C287.708 471.492 287.552 470.956 287.504 470.34L289.016 470.256C289.072 470.648 289.172 470.976 289.316 471.24C289.468 471.496 289.664 471.692 289.904 471.828C290.152 471.956 290.436 472.02 290.756 472.02C291.06 472.02 291.316 471.98 291.524 471.9C291.74 471.82 291.904 471.7 292.016 471.54C292.128 471.38 292.184 471.188 292.184 470.964C292.184 470.724 292.128 470.516 292.016 470.34C291.904 470.164 291.704 470 291.416 469.848C291.128 469.696 290.716 469.548 290.18 469.404C289.604 469.252 289.132 469.076 288.764 468.876C288.396 468.676 288.124 468.428 287.948 468.132C287.772 467.828 287.684 467.448 287.684 466.992C287.684 466.48 287.796 466.036 288.02 465.66C288.252 465.276 288.584 464.98 289.016 464.772C289.456 464.564 289.98 464.46 290.588 464.46C291.188 464.46 291.7 464.576 292.124 464.808C292.548 465.032 292.88 465.356 293.12 465.78C293.368 466.196 293.52 466.692 293.576 467.268L292.052 467.34C292.012 467.028 291.928 466.76 291.8 466.536C291.68 466.304 291.512 466.124 291.296 465.996C291.088 465.868 290.832 465.804 290.528 465.804C290.12 465.804 289.796 465.908 289.556 466.116C289.316 466.316 289.196 466.58 289.196 466.908C289.196 467.14 289.248 467.332 289.352 467.484C289.464 467.636 289.652 467.772 289.916 467.892C290.18 468.012 290.552 468.132 291.032 468.252C291.696 468.428 292.22 468.636 292.604 468.876C292.996 469.116 293.276 469.404 293.444 469.74C293.612 470.076 293.696 470.472 293.696 470.928C293.696 471.416 293.572 471.844 293.324 472.212C293.076 472.58 292.728 472.864 292.28 473.064C291.832 473.264 291.3 473.364 290.684 473.364ZM297.207 473.172L296.307 464.652H297.747L298.359 471.708H298.215L299.043 465.612H300.147L300.975 471.708H300.831L301.443 464.652H302.883L301.983 473.172H300.267L299.451 467.412H299.739L298.923 473.172H297.207ZM306.023 473.172V464.652H311.303V466.02H307.511V468.24H311.159V469.56H307.511V471.804H311.399V473.172H306.023ZM315.018 473.172V464.652H320.298V466.02H316.506V468.24H320.154V469.56H316.506V471.804H320.394V473.172H315.018ZM325.837 473.172V466.02H323.461V464.652H329.701V466.02H327.325V473.172H325.837Z" fill="#424242"/>
<path d="M40.252 509.172L42.676 500.652H44.524L46.948 509.172H45.424L43.6 502.332L41.776 509.172H40.252ZM41.74 507.156L42.148 505.824H45.052L45.46 507.156H41.74ZM49.9073 509.172V500.652H52.0313C52.8073 500.652 53.4753 500.82 54.0353 501.156C54.6033 501.484 55.0353 501.968 55.3313 502.608C55.6353 503.24 55.7873 504.012 55.7873 504.924C55.7873 505.836 55.6353 506.608 55.3313 507.24C55.0353 507.872 54.6033 508.352 54.0353 508.68C53.4753 509.008 52.8073 509.172 52.0313 509.172H49.9073ZM51.3833 507.804H52.0313C52.7433 507.804 53.2913 507.564 53.6753 507.084C54.0593 506.604 54.2513 505.884 54.2513 504.924C54.2513 503.956 54.0593 503.232 53.6753 502.752C53.2913 502.264 52.7433 502.02 52.0313 502.02H51.3833V507.804ZM61.5906 509.364C60.9106 509.364 60.3306 509.192 59.8506 508.848C59.3786 508.504 59.0186 508 58.7706 507.336C58.5226 506.672 58.3986 505.868 58.3986 504.924C58.3986 503.964 58.5226 503.152 58.7706 502.488C59.0186 501.824 59.3786 501.32 59.8506 500.976C60.3306 500.632 60.9106 500.46 61.5906 500.46C62.2706 500.46 62.8466 500.632 63.3186 500.976C63.7986 501.32 64.1626 501.824 64.4106 502.488C64.6586 503.152 64.7826 503.964 64.7826 504.924C64.7826 505.868 64.6586 506.672 64.4106 507.336C64.1626 508 63.7986 508.504 63.3186 508.848C62.8466 509.192 62.2706 509.364 61.5906 509.364ZM61.5906 508.02C61.9506 508.02 62.2546 507.908 62.5026 507.684C62.7506 507.46 62.9346 507.12 63.0546 506.664C63.1826 506.2 63.2466 505.62 63.2466 504.924C63.2466 504.228 63.1826 503.648 63.0546 503.184C62.9346 502.72 62.7506 502.376 62.5026 502.152C62.2546 501.92 61.9506 501.804 61.5906 501.804C61.2306 501.804 60.9266 501.92 60.6786 502.152C60.4306 502.376 60.2426 502.72 60.1146 503.184C59.9946 503.648 59.9346 504.228 59.9346 504.924C59.9346 505.62 59.9946 506.2 60.1146 506.664C60.2426 507.12 60.4306 507.46 60.6786 507.684C60.9266 507.908 61.2306 508.02 61.5906 508.02ZM67.8979 509.172V500.652H70.4419C71.3859 500.652 72.1059 500.852 72.6019 501.252C73.0979 501.644 73.3459 502.212 73.3459 502.956C73.3459 503.3 73.2659 503.612 73.1059 503.892C72.9539 504.164 72.7219 504.384 72.4099 504.552C72.1059 504.712 71.7299 504.804 71.2819 504.828V504.744C71.8259 504.76 72.2739 504.856 72.6259 505.032C72.9859 505.208 73.2539 505.452 73.4299 505.764C73.6139 506.068 73.7059 506.42 73.7059 506.82C73.7059 507.58 73.4459 508.164 72.9259 508.572C72.4059 508.972 71.6699 509.172 70.7179 509.172H67.8979ZM69.3739 507.828H70.7179C71.2139 507.82 71.5779 507.72 71.8099 507.528C72.0499 507.328 72.1699 507.052 72.1699 506.7C72.1699 506.324 72.0459 506.032 71.7979 505.824C71.5579 505.616 71.1979 505.512 70.7179 505.512H69.3739V507.828ZM69.3739 504.192H70.4419C70.9139 504.192 71.2579 504.096 71.4739 503.904C71.6979 503.712 71.8099 503.44 71.8099 503.088C71.8099 502.736 71.6979 502.468 71.4739 502.284C71.2579 502.092 70.9139 501.996 70.4419 501.996H69.3739V504.192ZM77.0133 509.172V500.652H82.2933V502.02H78.5013V504.24H82.1493V505.56H78.5013V507.804H82.3893V509.172H77.0133ZM94.8839 509.172V507.804H96.8279V502.02H94.8839V500.652H100.26V502.02H98.3159V507.804H100.26V509.172H94.8839ZM104.119 509.172V500.652H105.607V508.692L104.587 507.804H109.495V509.172H104.119ZM113.115 509.172V500.652H114.603V508.692L113.583 507.804H118.491V509.172H113.115ZM124.558 509.364C123.638 509.364 122.918 509.092 122.398 508.548C121.886 507.996 121.63 507.22 121.63 506.22V500.652H123.118V506.316C123.118 506.86 123.238 507.28 123.478 507.576C123.726 507.872 124.086 508.02 124.558 508.02C125.03 508.02 125.386 507.872 125.626 507.576C125.874 507.28 125.998 506.86 125.998 506.316V500.652H127.486V506.22C127.486 507.22 127.226 507.996 126.706 508.548C126.194 509.092 125.478 509.364 124.558 509.364ZM133.637 509.364C133.013 509.364 132.469 509.24 132.005 508.992C131.549 508.744 131.189 508.396 130.925 507.948C130.661 507.492 130.505 506.956 130.457 506.34L131.969 506.256C132.025 506.648 132.125 506.976 132.269 507.24C132.421 507.496 132.617 507.692 132.857 507.828C133.105 507.956 133.389 508.02 133.709 508.02C134.013 508.02 134.269 507.98 134.477 507.9C134.693 507.82 134.857 507.7 134.969 507.54C135.081 507.38 135.137 507.188 135.137 506.964C135.137 506.724 135.081 506.516 134.969 506.34C134.857 506.164 134.657 506 134.369 505.848C134.081 505.696 133.669 505.548 133.133 505.404C132.557 505.252 132.085 505.076 131.717 504.876C131.349 504.676 131.077 504.428 130.901 504.132C130.725 503.828 130.637 503.448 130.637 502.992C130.637 502.48 130.749 502.036 130.973 501.66C131.205 501.276 131.537 500.98 131.969 500.772C132.409 500.564 132.933 500.46 133.541 500.46C134.141 500.46 134.653 500.576 135.077 500.808C135.501 501.032 135.833 501.356 136.073 501.78C136.321 502.196 136.473 502.692 136.529 503.268L135.005 503.34C134.965 503.028 134.881 502.76 134.753 502.536C134.633 502.304 134.465 502.124 134.249 501.996C134.041 501.868 133.785 501.804 133.481 501.804C133.073 501.804 132.749 501.908 132.509 502.116C132.269 502.316 132.149 502.58 132.149 502.908C132.149 503.14 132.201 503.332 132.305 503.484C132.417 503.636 132.605 503.772 132.869 503.892C133.133 504.012 133.505 504.132 133.985 504.252C134.649 504.428 135.173 504.636 135.557 504.876C135.949 505.116 136.229 505.404 136.397 505.74C136.565 506.076 136.649 506.472 136.649 506.928C136.649 507.416 136.525 507.844 136.277 508.212C136.029 508.58 135.681 508.864 135.233 509.064C134.785 509.264 134.253 509.364 133.637 509.364ZM141.804 509.172V502.02H139.428V500.652H145.668V502.02H143.292V509.172H141.804ZM148.712 509.172V500.652H151.412C152.324 500.652 153.04 500.88 153.56 501.336C154.08 501.792 154.34 502.416 154.34 503.208C154.34 503.616 154.248 503.976 154.064 504.288C153.888 504.6 153.652 504.848 153.356 505.032C153.06 505.208 152.736 505.308 152.384 505.332L152.336 505.176C152.952 505.2 153.412 505.336 153.716 505.584C154.02 505.824 154.196 506.22 154.244 506.772L154.448 509.172H152.96L152.78 507.12C152.756 506.816 152.696 506.58 152.6 506.412C152.512 506.244 152.372 506.128 152.18 506.064C151.996 506 151.74 505.968 151.412 505.968H150.2V509.172H148.712ZM150.2 504.6H151.376C151.84 504.6 152.192 504.488 152.432 504.264C152.68 504.04 152.804 503.72 152.804 503.304C152.804 502.888 152.68 502.572 152.432 502.356C152.192 502.132 151.84 502.02 151.376 502.02H150.2V504.6ZM157.191 509.172L159.615 500.652H161.463L163.887 509.172H162.363L160.539 502.332L158.715 509.172H157.191ZM158.679 507.156L159.087 505.824H161.991L162.399 507.156H158.679ZM168.79 509.172V502.02H166.414V500.652H172.654V502.02H170.278V509.172H168.79ZM178.53 509.364C177.85 509.364 177.27 509.192 176.79 508.848C176.318 508.504 175.958 508 175.71 507.336C175.462 506.672 175.338 505.868 175.338 504.924C175.338 503.964 175.462 503.152 175.71 502.488C175.958 501.824 176.318 501.32 176.79 500.976C177.27 500.632 177.85 500.46 178.53 500.46C179.21 500.46 179.786 500.632 180.258 500.976C180.738 501.32 181.102 501.824 181.35 502.488C181.598 503.152 181.722 503.964 181.722 504.924C181.722 505.868 181.598 506.672 181.35 507.336C181.102 508 180.738 508.504 180.258 508.848C179.786 509.192 179.21 509.364 178.53 509.364ZM178.53 508.02C178.89 508.02 179.194 507.908 179.442 507.684C179.69 507.46 179.874 507.12 179.994 506.664C180.122 506.2 180.186 505.62 180.186 504.924C180.186 504.228 180.122 503.648 179.994 503.184C179.874 502.72 179.69 502.376 179.442 502.152C179.194 501.92 178.89 501.804 178.53 501.804C178.17 501.804 177.866 501.92 177.618 502.152C177.37 502.376 177.182 502.72 177.054 503.184C176.934 503.648 176.874 504.228 176.874 504.924C176.874 505.62 176.934 506.2 177.054 506.664C177.182 507.12 177.37 507.46 177.618 507.684C177.866 507.908 178.17 508.02 178.53 508.02ZM184.693 509.172V500.652H187.393C188.305 500.652 189.021 500.88 189.541 501.336C190.061 501.792 190.321 502.416 190.321 503.208C190.321 503.616 190.229 503.976 190.045 504.288C189.869 504.6 189.633 504.848 189.337 505.032C189.041 505.208 188.717 505.308 188.365 505.332L188.317 505.176C188.933 505.2 189.393 505.336 189.697 505.584C190.001 505.824 190.177 506.22 190.225 506.772L190.429 509.172H188.941L188.761 507.12C188.737 506.816 188.677 506.58 188.581 506.412C188.493 506.244 188.353 506.128 188.161 506.064C187.977 506 187.721 505.968 187.393 505.968H186.181V509.172H184.693ZM186.181 504.6H187.357C187.821 504.6 188.173 504.488 188.413 504.264C188.661 504.04 188.785 503.72 188.785 503.304C188.785 502.888 188.661 502.572 188.413 502.356C188.173 502.132 187.821 502.02 187.357 502.02H186.181V504.6ZM204.676 509.364C203.844 509.364 203.2 509.168 202.744 508.776C202.288 508.384 202.06 507.832 202.06 507.12C202.06 506.744 202.116 506.412 202.228 506.124C202.34 505.828 202.52 505.552 202.768 505.296C203.024 505.032 203.356 504.764 203.764 504.492C203.596 504.284 203.452 504.08 203.332 503.88C203.212 503.672 203.116 503.464 203.044 503.256C202.972 503.04 202.936 502.808 202.936 502.56C202.936 501.92 203.136 501.412 203.536 501.036C203.944 500.652 204.508 500.46 205.228 500.46C205.972 500.46 206.524 500.636 206.884 500.988C207.244 501.332 207.424 501.796 207.424 502.38C207.424 502.868 207.276 503.3 206.98 503.676C206.692 504.044 206.244 504.424 205.636 504.816L207.1 506.724C207.22 506.572 207.316 506.372 207.388 506.124C207.468 505.868 207.512 505.584 207.52 505.272L208.84 505.428C208.816 505.892 208.716 506.34 208.54 506.772C208.364 507.196 208.148 507.556 207.892 507.852L208.924 509.172H207.352L206.956 508.68C206.74 508.88 206.444 509.044 206.068 509.172C205.7 509.3 205.236 509.364 204.676 509.364ZM204.856 508.032C205.176 508.032 205.44 507.996 205.648 507.924C205.864 507.844 206.032 507.748 206.152 507.636L204.508 505.5C204.18 505.716 203.94 505.94 203.788 506.172C203.644 506.404 203.572 506.668 203.572 506.964C203.572 507.284 203.676 507.544 203.884 507.744C204.1 507.936 204.424 508.032 204.856 508.032ZM204.94 503.856C205.188 503.704 205.388 503.56 205.54 503.424C205.7 503.28 205.812 503.136 205.876 502.992C205.948 502.84 205.984 502.684 205.984 502.524C205.984 502.284 205.916 502.1 205.78 501.972C205.652 501.836 205.464 501.768 205.216 501.768C204.952 501.768 204.748 501.84 204.604 501.984C204.46 502.12 204.388 502.312 204.388 502.56C204.388 502.688 204.404 502.82 204.436 502.956C204.468 503.092 204.524 503.232 204.604 503.376C204.692 503.52 204.804 503.68 204.94 503.856ZM220.89 509.172V500.652H223.59C224.174 500.652 224.69 500.764 225.138 500.988C225.586 501.212 225.934 501.524 226.182 501.924C226.43 502.324 226.554 502.8 226.554 503.352C226.554 503.896 226.43 504.368 226.182 504.768C225.934 505.168 225.586 505.48 225.138 505.704C224.69 505.92 224.174 506.028 223.59 506.028H222.378V509.172H220.89ZM222.378 504.672H223.434C223.97 504.672 224.366 504.56 224.622 504.336C224.886 504.104 225.018 503.776 225.018 503.352C225.018 502.912 224.886 502.58 224.622 502.356C224.366 502.132 223.97 502.02 223.434 502.02H222.378V504.672ZM229.526 509.172V500.652H231.014V504.72L230.414 504.204H234.59L233.99 504.72V500.652H235.478V509.172H233.99V505.056L234.59 505.572H230.414L231.014 505.056V509.172H229.526ZM241.497 509.364C240.817 509.364 240.237 509.192 239.757 508.848C239.285 508.504 238.925 508 238.677 507.336C238.429 506.672 238.305 505.868 238.305 504.924C238.305 503.964 238.429 503.152 238.677 502.488C238.925 501.824 239.285 501.32 239.757 500.976C240.237 500.632 240.817 500.46 241.497 500.46C242.177 500.46 242.753 500.632 243.225 500.976C243.705 501.32 244.069 501.824 244.317 502.488C244.565 503.152 244.689 503.964 244.689 504.924C244.689 505.868 244.565 506.672 244.317 507.336C244.069 508 243.705 508.504 243.225 508.848C242.753 509.192 242.177 509.364 241.497 509.364ZM241.497 508.02C241.857 508.02 242.161 507.908 242.409 507.684C242.657 507.46 242.841 507.12 242.961 506.664C243.089 506.2 243.153 505.62 243.153 504.924C243.153 504.228 243.089 503.648 242.961 503.184C242.841 502.72 242.657 502.376 242.409 502.152C242.161 501.92 241.857 501.804 241.497 501.804C241.137 501.804 240.833 501.92 240.585 502.152C240.337 502.376 240.149 502.72 240.021 503.184C239.901 503.648 239.841 504.228 239.841 504.924C239.841 505.62 239.901 506.2 240.021 506.664C240.149 507.12 240.337 507.46 240.585 507.684C240.833 507.908 241.137 508.02 241.497 508.02ZM249.748 509.172V502.02H247.372V500.652H253.612V502.02H251.236V509.172H249.748ZM259.487 509.364C258.807 509.364 258.227 509.192 257.747 508.848C257.275 508.504 256.915 508 256.667 507.336C256.419 506.672 256.295 505.868 256.295 504.924C256.295 503.964 256.419 503.152 256.667 502.488C256.915 501.824 257.275 501.32 257.747 500.976C258.227 500.632 258.807 500.46 259.487 500.46C260.167 500.46 260.743 500.632 261.215 500.976C261.695 501.32 262.059 501.824 262.307 502.488C262.555 503.152 262.679 503.964 262.679 504.924C262.679 505.868 262.555 506.672 262.307 507.336C262.059 508 261.695 508.504 261.215 508.848C260.743 509.192 260.167 509.364 259.487 509.364ZM259.487 508.02C259.847 508.02 260.151 507.908 260.399 507.684C260.647 507.46 260.831 507.12 260.951 506.664C261.079 506.2 261.143 505.62 261.143 504.924C261.143 504.228 261.079 503.648 260.951 503.184C260.831 502.72 260.647 502.376 260.399 502.152C260.151 501.92 259.847 501.804 259.487 501.804C259.127 501.804 258.823 501.92 258.575 502.152C258.327 502.376 258.139 502.72 258.011 503.184C257.891 503.648 257.831 504.228 257.831 504.924C257.831 505.62 257.891 506.2 258.011 506.664C258.139 507.12 258.327 507.46 258.575 507.684C258.823 507.908 259.127 508.02 259.487 508.02ZM268.567 509.364C267.943 509.364 267.399 509.24 266.935 508.992C266.479 508.744 266.119 508.396 265.855 507.948C265.591 507.492 265.435 506.956 265.387 506.34L266.899 506.256C266.955 506.648 267.055 506.976 267.199 507.24C267.351 507.496 267.547 507.692 267.787 507.828C268.035 507.956 268.319 508.02 268.639 508.02C268.943 508.02 269.199 507.98 269.407 507.9C269.623 507.82 269.787 507.7 269.899 507.54C270.011 507.38 270.067 507.188 270.067 506.964C270.067 506.724 270.011 506.516 269.899 506.34C269.787 506.164 269.587 506 269.299 505.848C269.011 505.696 268.599 505.548 268.063 505.404C267.487 505.252 267.015 505.076 266.647 504.876C266.279 504.676 266.007 504.428 265.831 504.132C265.655 503.828 265.567 503.448 265.567 502.992C265.567 502.48 265.679 502.036 265.903 501.66C266.135 501.276 266.467 500.98 266.899 500.772C267.339 500.564 267.863 500.46 268.471 500.46C269.071 500.46 269.583 500.576 270.007 500.808C270.431 501.032 270.763 501.356 271.003 501.78C271.251 502.196 271.403 502.692 271.459 503.268L269.935 503.34C269.895 503.028 269.811 502.76 269.683 502.536C269.563 502.304 269.395 502.124 269.179 501.996C268.971 501.868 268.715 501.804 268.411 501.804C268.003 501.804 267.679 501.908 267.439 502.116C267.199 502.316 267.079 502.58 267.079 502.908C267.079 503.14 267.131 503.332 267.235 503.484C267.347 503.636 267.535 503.772 267.799 503.892C268.063 504.012 268.435 504.132 268.915 504.252C269.579 504.428 270.103 504.636 270.487 504.876C270.879 505.116 271.159 505.404 271.327 505.74C271.495 506.076 271.579 506.472 271.579 506.928C271.579 507.416 271.455 507.844 271.207 508.212C270.959 508.58 270.611 508.864 270.163 509.064C269.715 509.264 269.183 509.364 268.567 509.364ZM274.502 509.172V500.652H275.99V504.72L275.39 504.204H279.566L278.966 504.72V500.652H280.454V509.172H278.966V505.056L279.566 505.572H275.39L275.99 505.056V509.172H274.502ZM286.473 509.364C285.793 509.364 285.213 509.192 284.733 508.848C284.261 508.504 283.901 508 283.653 507.336C283.405 506.672 283.281 505.868 283.281 504.924C283.281 503.964 283.405 503.152 283.653 502.488C283.901 501.824 284.261 501.32 284.733 500.976C285.213 500.632 285.793 500.46 286.473 500.46C287.153 500.46 287.729 500.632 288.201 500.976C288.681 501.32 289.045 501.824 289.293 502.488C289.541 503.152 289.665 503.964 289.665 504.924C289.665 505.868 289.541 506.672 289.293 507.336C289.045 508 288.681 508.504 288.201 508.848C287.729 509.192 287.153 509.364 286.473 509.364ZM286.473 508.02C286.833 508.02 287.137 507.908 287.385 507.684C287.633 507.46 287.817 507.12 287.937 506.664C288.065 506.2 288.129 505.62 288.129 504.924C288.129 504.228 288.065 503.648 287.937 503.184C287.817 502.72 287.633 502.376 287.385 502.152C287.137 501.92 286.833 501.804 286.473 501.804C286.113 501.804 285.809 501.92 285.561 502.152C285.313 502.376 285.125 502.72 284.997 503.184C284.877 503.648 284.817 504.228 284.817 504.924C284.817 505.62 284.877 506.2 284.997 506.664C285.125 507.12 285.313 507.46 285.561 507.684C285.809 507.908 286.113 508.02 286.473 508.02ZM292.853 509.172V500.652H295.553C296.137 500.652 296.653 500.764 297.101 500.988C297.549 501.212 297.897 501.524 298.145 501.924C298.393 502.324 298.517 502.8 298.517 503.352C298.517 503.896 298.393 504.368 298.145 504.768C297.897 505.168 297.549 505.48 297.101 505.704C296.653 505.92 296.137 506.028 295.553 506.028H294.341V509.172H292.853ZM294.341 504.672H295.397C295.933 504.672 296.329 504.56 296.585 504.336C296.849 504.104 296.981 503.776 296.981 503.352C296.981 502.912 296.849 502.58 296.585 502.356C296.329 502.132 295.933 502.02 295.397 502.02H294.341V504.672Z" fill="#750506"/>
<line x1="40" y1="529.672" x2="331" y2="529.672" stroke="#A0A09C"/>
<ellipse cx="304.864" cy="530.172" rx="1.9504" ry="5" fill="#B91D22"/>
<line x1="43.4766" y1="534.172" x2="43.4766" y2="525.172" stroke="#A0A09C" stroke-width="2"/>
<line x1="322.836" y1="534.172" x2="322.836" y2="525.172" stroke="#A0A09C" stroke-width="2"/>
<path opacity="0.5" d="M43.684 559.364C43.06 559.364 42.516 559.24 42.052 558.992C41.596 558.744 41.236 558.396 40.972 557.948C40.708 557.492 40.552 556.956 40.504 556.34L42.016 556.256C42.072 556.648 42.172 556.976 42.316 557.24C42.468 557.496 42.664 557.692 42.904 557.828C43.152 557.956 43.436 558.02 43.756 558.02C44.06 558.02 44.316 557.98 44.524 557.9C44.74 557.82 44.904 557.7 45.016 557.54C45.128 557.38 45.184 557.188 45.184 556.964C45.184 556.724 45.128 556.516 45.016 556.34C44.904 556.164 44.704 556 44.416 555.848C44.128 555.696 43.716 555.548 43.18 555.404C42.604 555.252 42.132 555.076 41.764 554.876C41.396 554.676 41.124 554.428 40.948 554.132C40.772 553.828 40.684 553.448 40.684 552.992C40.684 552.48 40.796 552.036 41.02 551.66C41.252 551.276 41.584 550.98 42.016 550.772C42.456 550.564 42.98 550.46 43.588 550.46C44.188 550.46 44.7 550.576 45.124 550.808C45.548 551.032 45.88 551.356 46.12 551.78C46.368 552.196 46.52 552.692 46.576 553.268L45.052 553.34C45.012 553.028 44.928 552.76 44.8 552.536C44.68 552.304 44.512 552.124 44.296 551.996C44.088 551.868 43.832 551.804 43.528 551.804C43.12 551.804 42.796 551.908 42.556 552.116C42.316 552.316 42.196 552.58 42.196 552.908C42.196 553.14 42.248 553.332 42.352 553.484C42.464 553.636 42.652 553.772 42.916 553.892C43.18 554.012 43.552 554.132 44.032 554.252C44.696 554.428 45.22 554.636 45.604 554.876C45.996 555.116 46.276 555.404 46.444 555.74C46.612 556.076 46.696 556.472 46.696 556.928C46.696 557.416 46.572 557.844 46.324 558.212C46.076 558.58 45.728 558.864 45.28 559.064C44.832 559.264 44.3 559.364 43.684 559.364ZM52.5953 559.364C51.9153 559.364 51.3353 559.192 50.8553 558.848C50.3833 558.504 50.0233 558 49.7753 557.336C49.5273 556.672 49.4033 555.868 49.4033 554.924C49.4033 553.964 49.5273 553.152 49.7753 552.488C50.0233 551.824 50.3833 551.32 50.8553 550.976C51.3353 550.632 51.9153 550.46 52.5953 550.46C53.2753 550.46 53.8513 550.632 54.3233 550.976C54.8033 551.32 55.1673 551.824 55.4153 552.488C55.6633 553.152 55.7873 553.964 55.7873 554.924C55.7873 555.868 55.6633 556.672 55.4153 557.336C55.1673 558 54.8033 558.504 54.3233 558.848C53.8513 559.192 53.2753 559.364 52.5953 559.364ZM52.5953 558.02C52.9553 558.02 53.2593 557.908 53.5073 557.684C53.7553 557.46 53.9393 557.12 54.0593 556.664C54.1873 556.2 54.2513 555.62 54.2513 554.924C54.2513 554.228 54.1873 553.648 54.0593 553.184C53.9393 552.72 53.7553 552.376 53.5073 552.152C53.2593 551.92 52.9553 551.804 52.5953 551.804C52.2353 551.804 51.9313 551.92 51.6833 552.152C51.4353 552.376 51.2473 552.72 51.1193 553.184C50.9993 553.648 50.9393 554.228 50.9393 554.924C50.9393 555.62 50.9993 556.2 51.1193 556.664C51.2473 557.12 51.4353 557.46 51.6833 557.684C51.9313 557.908 52.2353 558.02 52.5953 558.02ZM61.5906 559.364C60.6706 559.364 59.9506 559.092 59.4306 558.548C58.9186 557.996 58.6626 557.22 58.6626 556.22V550.652H60.1506V556.316C60.1506 556.86 60.2706 557.28 60.5106 557.576C60.7586 557.872 61.1186 558.02 61.5906 558.02C62.0626 558.02 62.4186 557.872 62.6586 557.576C62.9066 557.28 63.0306 556.86 63.0306 556.316V550.652H64.5186V556.22C64.5186 557.22 64.2586 557.996 63.7386 558.548C63.2266 559.092 62.5106 559.364 61.5906 559.364ZM67.7539 559.172V550.652H70.4539C71.3659 550.652 72.0819 550.88 72.6019 551.336C73.1219 551.792 73.3819 552.416 73.3819 553.208C73.3819 553.616 73.2899 553.976 73.1059 554.288C72.9299 554.6 72.6939 554.848 72.3979 555.032C72.1019 555.208 71.7779 555.308 71.4259 555.332L71.3779 555.176C71.9939 555.2 72.4539 555.336 72.7579 555.584C73.0619 555.824 73.2379 556.22 73.2859 556.772L73.4899 559.172H72.0019L71.8219 557.12C71.7979 556.816 71.7379 556.58 71.6419 556.412C71.5539 556.244 71.4139 556.128 71.2219 556.064C71.0379 556 70.7819 555.968 70.4539 555.968H69.2419V559.172H67.7539ZM69.2419 554.6H70.4179C70.8819 554.6 71.2339 554.488 71.4739 554.264C71.7219 554.04 71.8459 553.72 71.8459 553.304C71.8459 552.888 71.7219 552.572 71.4739 552.356C71.2339 552.132 70.8819 552.02 70.4179 552.02H69.2419V554.6Z" fill="#424242"/>
<path opacity="0.5" d="M290.684 559.364C290.06 559.364 289.516 559.24 289.052 558.992C288.596 558.744 288.236 558.396 287.972 557.948C287.708 557.492 287.552 556.956 287.504 556.34L289.016 556.256C289.072 556.648 289.172 556.976 289.316 557.24C289.468 557.496 289.664 557.692 289.904 557.828C290.152 557.956 290.436 558.02 290.756 558.02C291.06 558.02 291.316 557.98 291.524 557.9C291.74 557.82 291.904 557.7 292.016 557.54C292.128 557.38 292.184 557.188 292.184 556.964C292.184 556.724 292.128 556.516 292.016 556.34C291.904 556.164 291.704 556 291.416 555.848C291.128 555.696 290.716 555.548 290.18 555.404C289.604 555.252 289.132 555.076 288.764 554.876C288.396 554.676 288.124 554.428 287.948 554.132C287.772 553.828 287.684 553.448 287.684 552.992C287.684 552.48 287.796 552.036 288.02 551.66C288.252 551.276 288.584 550.98 289.016 550.772C289.456 550.564 289.98 550.46 290.588 550.46C291.188 550.46 291.7 550.576 292.124 550.808C292.548 551.032 292.88 551.356 293.12 551.78C293.368 552.196 293.52 552.692 293.576 553.268L292.052 553.34C292.012 553.028 291.928 552.76 291.8 552.536C291.68 552.304 291.512 552.124 291.296 551.996C291.088 551.868 290.832 551.804 290.528 551.804C290.12 551.804 289.796 551.908 289.556 552.116C289.316 552.316 289.196 552.58 289.196 552.908C289.196 553.14 289.248 553.332 289.352 553.484C289.464 553.636 289.652 553.772 289.916 553.892C290.18 554.012 290.552 554.132 291.032 554.252C291.696 554.428 292.22 554.636 292.604 554.876C292.996 555.116 293.276 555.404 293.444 555.74C293.612 556.076 293.696 556.472 293.696 556.928C293.696 557.416 293.572 557.844 293.324 558.212C293.076 558.58 292.728 558.864 292.28 559.064C291.832 559.264 291.3 559.364 290.684 559.364ZM297.207 559.172L296.307 550.652H297.747L298.359 557.708H298.215L299.043 551.612H300.147L300.975 557.708H300.831L301.443 550.652H302.883L301.983 559.172H300.267L299.451 553.412H299.739L298.923 559.172H297.207ZM306.023 559.172V550.652H311.303V552.02H307.511V554.24H311.159V555.56H307.511V557.804H311.399V559.172H306.023ZM315.018 559.172V550.652H320.298V552.02H316.506V554.24H320.154V555.56H316.506V557.804H320.394V559.172H315.018ZM325.837 559.172V552.02H323.461V550.652H329.701V552.02H327.325V559.172H325.837Z" fill="#424242"/>
</svg>
