<svg width="826" height="645" viewBox="0 0 826 645" fill="none" xmlns="http://www.w3.org/2000/svg">
<rect width="826" height="644.179" rx="6" fill="#FFFEF6"/>
<rect x="0.5" y="0.5" width="825" height="643.179" rx="5.5" stroke="#A9A683" stroke-opacity="0.5"/>
<path d="M411.19 43.8536C411.91 42.3207 414.09 42.3207 414.81 43.8536L416.848 48.192C417.046 48.614 417.386 48.9536 417.808 49.1518L422.146 51.1898C423.679 51.9098 423.679 54.0902 422.146 54.8102L417.808 56.8482C417.386 57.0464 417.046 57.386 416.848 57.808L414.81 62.1464C414.09 63.6793 411.91 63.6793 411.19 62.1464L409.152 57.808C408.954 57.386 408.614 57.0464 408.192 56.8482L403.854 54.8102C402.321 54.0902 402.321 51.9098 403.854 51.1898L408.192 49.1518C408.614 48.9536 408.954 48.614 409.152 48.192L411.19 43.8536Z" fill="#D9CD95"/>
<path d="M282.693 139.801C281.506 139.801 280.171 139.682 278.688 139.445C277.264 139.208 275.899 138.911 274.594 138.555C273.348 138.199 272.369 137.813 271.657 137.398C271.242 137.161 270.915 136.923 270.678 136.686C270.5 136.389 270.411 135.915 270.411 135.262L269.966 121.289C269.966 120.102 270.352 119.509 271.123 119.509C271.776 119.509 272.221 120.043 272.458 121.111L273.259 124.493C275.276 132.978 279.044 137.22 284.562 137.22C287.529 137.22 289.872 136.241 291.593 134.283C293.373 132.266 294.263 129.447 294.263 125.828C294.263 122.327 293.343 119.064 291.504 116.038C289.724 113.012 286.846 110.016 282.871 107.049C278.48 103.904 275.276 100.878 273.259 97.971C271.242 95.0043 270.233 91.8597 270.233 88.537C270.233 84.1463 271.746 80.6457 274.772 78.035C277.857 75.365 281.773 74.03 286.52 74.03C288.3 74.03 290.021 74.2377 291.682 74.653C293.343 75.0683 294.708 75.6617 295.776 76.433C296.132 76.6703 296.399 76.9373 296.577 77.234C296.814 77.5307 296.933 77.9163 296.933 78.391L297.2 91.83C297.2 92.8387 296.814 93.343 296.043 93.343C295.509 93.343 295.123 92.9277 294.886 92.097L294.263 89.872C292.958 85.3033 291.593 81.9807 290.169 79.904C288.804 77.768 286.817 76.7 284.206 76.7C281.655 76.7 279.608 77.5307 278.065 79.192C276.582 80.8533 275.84 83.197 275.84 86.223C275.84 88.7743 276.671 91.207 278.332 93.521C279.993 95.835 282.901 98.6533 287.054 101.976C291.504 105.595 294.738 109.096 296.755 112.478C298.832 115.801 299.87 119.361 299.87 123.158C299.87 126.481 299.128 129.388 297.645 131.88C296.162 134.372 294.115 136.33 291.504 137.754C288.953 139.119 286.016 139.801 282.693 139.801ZM301.403 139C300.691 139 300.335 138.674 300.335 138.021C300.335 137.428 300.661 137.072 301.314 136.953L302.56 136.775C303.806 136.597 304.607 136.241 304.963 135.707C305.378 135.173 305.586 134.283 305.586 133.037V82.04C305.586 80.972 305.408 80.26 305.052 79.904C304.755 79.4887 304.192 79.2217 303.361 79.103L301.492 78.836C300.839 78.7173 300.513 78.3613 300.513 77.768C300.513 77.1747 300.839 76.8187 301.492 76.7C303.153 76.344 304.548 75.9287 305.675 75.454C306.802 74.9793 307.752 74.5047 308.523 74.03C309.472 73.4367 310.184 73.14 310.659 73.14C311.312 73.14 311.638 73.6147 311.638 74.564V111.855C311.638 112.448 311.875 112.834 312.35 113.012C312.884 113.131 313.388 112.923 313.863 112.389L324.276 101.175C325.522 99.8103 326.026 98.683 325.789 97.793C325.611 96.8437 324.929 96.2503 323.742 96.013L321.695 95.657C320.924 95.479 320.538 95.0933 320.538 94.5C320.538 93.9067 320.953 93.61 321.784 93.61H337.092C337.923 93.61 338.338 93.9363 338.338 94.589C338.338 95.2417 337.952 95.5977 337.181 95.657L336.38 95.746C335.015 95.8647 333.651 96.3987 332.286 97.348C330.921 98.238 329.29 99.662 327.391 101.62L321.873 107.494C320.627 108.859 320.33 110.194 320.983 111.499L332.197 133.037C332.85 134.224 333.562 135.084 334.333 135.618C335.104 136.152 336.054 136.538 337.181 136.775L338.071 136.953C338.783 137.131 339.139 137.487 339.139 138.021C339.139 138.674 338.724 139 337.893 139H322.407C321.576 139 321.161 138.674 321.161 138.021C321.161 137.428 321.547 137.072 322.318 136.953L323.831 136.775C326.086 136.478 326.56 135.025 325.255 132.414L316.8 115.949C316.503 115.356 316.058 115.029 315.465 114.97C314.931 114.911 314.427 115.118 313.952 115.593L312.973 116.572C312.439 117.106 312.083 117.64 311.905 118.174C311.727 118.708 311.638 119.301 311.638 119.954V133.037C311.638 134.283 311.816 135.173 312.172 135.707C312.587 136.241 313.418 136.567 314.664 136.686L317.067 136.953C317.72 137.072 318.046 137.428 318.046 138.021C318.046 138.674 317.69 139 316.978 139H301.403ZM344.176 85.155C342.93 85.155 341.862 84.71 340.972 83.82C340.141 82.93 339.726 81.8027 339.726 80.438C339.726 79.0733 340.141 77.9757 340.972 77.145C341.862 76.255 342.93 75.81 344.176 75.81C345.422 75.81 346.46 76.255 347.291 77.145C348.122 77.9757 348.537 79.0733 348.537 80.438C348.537 81.8027 348.122 82.93 347.291 83.82C346.46 84.71 345.422 85.155 344.176 85.155ZM336.7 139C335.81 139 335.365 138.674 335.365 138.021C335.365 137.487 335.751 137.131 336.522 136.953L337.59 136.775C339.073 136.538 340.023 136.182 340.438 135.707C340.853 135.173 341.061 134.283 341.061 133.037V103.133C341.061 102.065 340.883 101.353 340.527 100.997C340.23 100.582 339.667 100.315 338.836 100.196L336.967 99.929C336.196 99.8697 335.81 99.5433 335.81 98.95C335.81 98.4753 336.285 98.149 337.234 97.971C339.073 97.6743 340.557 97.1997 341.684 96.547C342.811 95.8943 343.909 95.0933 344.977 94.144C345.511 93.61 345.956 93.343 346.312 93.343C346.846 93.343 347.113 93.699 347.113 94.411V133.037C347.113 134.283 347.291 135.173 347.647 135.707C348.003 136.241 348.685 136.567 349.694 136.686L351.919 136.953C352.572 137.072 352.898 137.398 352.898 137.932C352.898 138.644 352.453 139 351.563 139H336.7ZM352.066 139C351.354 139 350.998 138.674 350.998 138.021C350.998 137.428 351.325 137.072 351.977 136.953L353.223 136.775C354.469 136.597 355.389 136.241 355.982 135.707C356.576 135.173 356.872 134.283 356.872 133.037V82.04C356.872 80.972 356.694 80.2303 356.338 79.815C356.042 79.3997 355.478 79.1623 354.647 79.103L352.6 78.836C351.948 78.7173 351.621 78.3613 351.621 77.768C351.621 77.1747 351.948 76.8187 352.6 76.7C354.262 76.344 355.686 75.9287 356.872 75.454C358.059 74.9793 359.038 74.5047 359.809 74.03C360.759 73.4367 361.471 73.14 361.945 73.14C362.598 73.14 362.924 73.6147 362.924 74.564V133.037C362.924 134.283 363.102 135.173 363.458 135.707C363.874 136.182 364.704 136.508 365.95 136.686L367.997 136.953C368.65 137.072 368.976 137.428 368.976 138.021C368.976 138.674 368.62 139 367.908 139H352.066ZM368.062 139C367.35 139 366.994 138.674 366.994 138.021C366.994 137.428 367.32 137.072 367.973 136.953L369.219 136.775C370.465 136.597 371.385 136.241 371.978 135.707C372.571 135.173 372.868 134.283 372.868 133.037V82.04C372.868 80.972 372.69 80.2303 372.334 79.815C372.037 79.3997 371.474 79.1623 370.643 79.103L368.596 78.836C367.943 78.7173 367.617 78.3613 367.617 77.768C367.617 77.1747 367.943 76.8187 368.596 76.7C370.257 76.344 371.681 75.9287 372.868 75.454C374.055 74.9793 375.034 74.5047 375.805 74.03C376.754 73.4367 377.466 73.14 377.941 73.14C378.594 73.14 378.92 73.6147 378.92 74.564V133.037C378.92 134.283 379.098 135.173 379.454 135.707C379.869 136.182 380.7 136.508 381.946 136.686L383.993 136.953C384.646 137.072 384.972 137.428 384.972 138.021C384.972 138.674 384.616 139 383.904 139H368.062ZM396.511 139C395.621 139 395.176 138.674 395.176 138.021C395.176 137.487 395.561 137.131 396.333 136.953L397.401 136.775C398.647 136.538 399.448 136.182 399.804 135.707C400.219 135.173 400.427 134.283 400.427 133.037V103.133C400.427 102.065 400.249 101.353 399.893 100.997C399.596 100.582 399.032 100.315 398.202 100.196L396.333 99.929C395.561 99.8697 395.176 99.5433 395.176 98.95C395.176 98.4753 395.65 98.149 396.6 97.971C398.439 97.6743 399.833 97.1997 400.783 96.547C401.791 95.8943 402.83 95.0933 403.898 94.144C404.432 93.61 404.877 93.343 405.233 93.343C405.767 93.343 406.034 93.699 406.034 94.411V98.416C406.034 98.8313 406.212 99.1577 406.568 99.395C406.924 99.573 407.309 99.4543 407.725 99.039C410.157 96.725 412.264 95.1527 414.044 94.322C415.883 93.4913 417.722 93.076 419.562 93.076C421.282 93.076 422.795 93.5507 424.101 94.5C425.465 95.39 426.474 96.7547 427.127 98.594C427.305 99.0687 427.601 99.3653 428.017 99.484C428.491 99.5433 428.936 99.3653 429.352 98.95C431.784 96.6953 433.891 95.1527 435.671 94.322C437.451 93.4913 439.26 93.076 441.1 93.076C443.592 93.076 445.609 94.0253 447.152 95.924C448.754 97.7633 449.555 100.493 449.555 104.112V133.037C449.555 134.283 449.733 135.173 450.089 135.707C450.504 136.182 451.335 136.508 452.581 136.686L454.539 136.953C455.191 137.072 455.518 137.428 455.518 138.021C455.518 138.674 455.162 139 454.45 139H439.231C438.4 139 437.985 138.674 437.985 138.021C437.985 137.428 438.311 137.072 438.964 136.953L440.21 136.775C441.574 136.597 442.464 136.241 442.88 135.707C443.295 135.173 443.503 134.283 443.503 133.037V105.091C443.503 102.184 442.969 100.137 441.901 98.95C440.892 97.7633 439.498 97.17 437.718 97.17C435.938 97.17 434.306 97.7337 432.823 98.861C431.399 99.929 430.242 101.383 429.352 103.222C428.462 105.002 428.017 106.99 428.017 109.185V133.037C428.017 134.283 428.224 135.173 428.64 135.707C429.055 136.182 429.915 136.508 431.221 136.686L433.179 136.953C433.831 137.072 434.158 137.428 434.158 138.021C434.158 138.674 433.802 139 433.09 139H417.96C417.129 139 416.714 138.674 416.714 138.021C416.714 137.428 417.04 137.072 417.693 136.953L418.939 136.775C420.185 136.597 420.986 136.241 421.342 135.707C421.757 135.173 421.965 134.283 421.965 133.037V105.091C421.965 102.184 421.431 100.137 420.363 98.95C419.354 97.7633 417.96 97.17 416.18 97.17C414.4 97.17 412.768 97.7337 411.285 98.861C409.861 99.929 408.704 101.383 407.814 103.222C406.924 105.002 406.479 106.99 406.479 109.185V133.037C406.479 134.283 406.657 135.173 407.013 135.707C407.428 136.241 408.259 136.567 409.505 136.686L411.908 136.953C412.56 137.072 412.887 137.398 412.887 137.932C412.887 138.644 412.442 139 411.552 139H396.511ZM470.034 139.801C467.186 139.801 464.634 138.852 462.38 136.953C460.125 135.054 458.315 132.384 456.951 128.943C455.645 125.442 454.993 121.408 454.993 116.839C454.993 112.152 455.675 108.028 457.04 104.468C458.404 100.908 460.273 98.1193 462.647 96.102C465.02 94.0847 467.66 93.076 470.568 93.076C474.068 93.076 476.887 94.5297 479.023 97.437C481.218 100.285 482.316 104.943 482.316 111.41C482.316 113.368 481.574 114.347 480.091 114.347H463.181C461.994 114.347 461.401 115.029 461.401 116.394C461.401 122.683 462.32 127.4 464.16 130.545C465.999 133.69 468.343 135.262 471.191 135.262C473.445 135.262 475.285 134.461 476.709 132.859C478.133 131.257 479.29 128.557 480.18 124.76C480.358 124.107 480.743 123.781 481.337 123.781C482.049 123.781 482.316 124.374 482.138 125.561C481.188 130.842 479.675 134.55 477.599 136.686C475.522 138.763 473 139.801 470.034 139.801ZM462.914 112.122H471.903C474.751 112.122 476.175 110.639 476.175 107.672C476.175 103.815 475.7 100.789 474.751 98.594C473.801 96.3987 472.377 95.301 470.479 95.301C468.165 95.301 466.207 96.636 464.605 99.306C463.062 101.976 462.053 105.773 461.579 110.698C461.46 111.647 461.905 112.122 462.914 112.122ZM483.692 139C482.802 139 482.357 138.674 482.357 138.021C482.357 137.487 482.743 137.131 483.514 136.953L484.582 136.775C485.828 136.538 486.629 136.182 486.985 135.707C487.401 135.173 487.608 134.283 487.608 133.037V103.133C487.608 102.065 487.43 101.353 487.074 100.997C486.778 100.582 486.214 100.315 485.383 100.196L483.514 99.929C482.743 99.8697 482.357 99.5433 482.357 98.95C482.357 98.4753 482.832 98.149 483.781 97.971C485.621 97.6743 487.015 97.1997 487.964 96.547C488.973 95.8943 490.011 95.0933 491.079 94.144C491.613 93.61 492.058 93.343 492.414 93.343C492.948 93.343 493.215 93.699 493.215 94.411V98.416C493.215 98.95 493.393 99.306 493.749 99.484C494.165 99.6027 494.61 99.4247 495.084 98.95C497.458 96.6953 499.534 95.1527 501.314 94.322C503.154 93.4913 505.082 93.076 507.099 93.076C509.769 93.076 511.905 94.0253 513.507 95.924C515.109 97.7633 515.91 100.493 515.91 104.112V133.037C515.91 134.283 516.088 135.173 516.444 135.707C516.86 136.182 517.69 136.508 518.936 136.686L520.894 136.953C521.547 137.072 521.873 137.428 521.873 138.021C521.873 138.674 521.517 139 520.805 139H505.853C505.023 139 504.607 138.674 504.607 138.021C504.607 137.428 504.934 137.072 505.586 136.953L506.832 136.775C508.078 136.597 508.879 136.241 509.235 135.707C509.651 135.173 509.858 134.283 509.858 133.037V105.091C509.858 102.184 509.324 100.137 508.256 98.95C507.188 97.7633 505.675 97.17 503.717 97.17C501.819 97.17 500.098 97.7337 498.555 98.861C497.072 99.929 495.885 101.383 494.995 103.222C494.105 105.002 493.66 106.99 493.66 109.185V133.037C493.66 134.283 493.838 135.173 494.194 135.707C494.61 136.241 495.44 136.567 496.686 136.686L499.089 136.953C499.742 137.072 500.068 137.398 500.068 137.932C500.068 138.644 499.623 139 498.733 139H483.692ZM534.487 139.801C533.004 139.801 531.58 139.475 530.215 138.822C528.85 138.169 527.723 137.131 526.833 135.707C525.943 134.283 525.498 132.384 525.498 130.011V99.039C525.498 97.971 525.32 97.2293 524.964 96.814C524.667 96.3987 524.104 96.1613 523.273 96.102L521.76 95.924C520.751 95.8053 520.247 95.4197 520.247 94.767C520.247 93.9957 520.811 93.61 521.938 93.61H530.215C531.105 93.61 531.55 94.055 531.55 94.945V128.142C531.55 130.871 532.054 132.829 533.063 134.016C534.131 135.143 535.585 135.707 537.424 135.707C539.263 135.707 540.895 135.203 542.319 134.194C543.743 133.126 544.87 131.732 545.701 130.011C546.591 128.231 547.036 126.303 547.036 124.226V99.039C547.036 97.971 546.858 97.2293 546.502 96.814C546.205 96.3987 545.642 96.1613 544.811 96.102L543.298 95.924C542.289 95.8053 541.785 95.4197 541.785 94.767C541.785 93.9957 542.349 93.61 543.476 93.61H551.753C552.643 93.61 553.088 94.055 553.088 94.945V129.477C553.088 130.545 553.236 131.287 553.533 131.702C553.889 132.058 554.482 132.295 555.313 132.414L557.182 132.681C557.953 132.74 558.339 133.037 558.339 133.571C558.339 134.105 557.864 134.461 556.915 134.639C555.076 134.876 553.592 135.351 552.465 136.063C551.397 136.775 550.448 137.635 549.617 138.644C549.083 139.178 548.638 139.445 548.282 139.445C547.748 139.445 547.481 139.089 547.481 138.377V134.283C547.481 133.808 547.303 133.541 546.947 133.482C546.65 133.363 546.324 133.482 545.968 133.838C543.773 136.033 541.815 137.576 540.094 138.466C538.433 139.356 536.564 139.801 534.487 139.801Z" fill="#750506"/>
<path d="M50.71 250.66C50.6193 250.66 50.5173 250.626 50.404 250.558C50.2907 250.49 50.2113 250.343 50.166 250.116L45.032 229.274C45.0093 229.115 44.9413 229.047 44.828 229.07C44.7147 229.07 44.658 229.149 44.658 229.308L43.978 248.076C43.9553 248.711 44.0573 249.198 44.284 249.538C44.5107 249.855 44.9073 250.059 45.474 250.15L45.916 250.218C46.2107 250.241 46.358 250.377 46.358 250.626C46.358 250.875 46.188 251 45.848 251H40.986C40.646 251 40.476 250.875 40.476 250.626C40.476 250.377 40.6233 250.241 40.918 250.218L41.36 250.15C41.9493 250.059 42.346 249.855 42.55 249.538C42.7767 249.198 42.9013 248.711 42.924 248.076L43.604 228.764C43.6267 228.288 43.5587 227.971 43.4 227.812C43.2413 227.653 42.9013 227.529 42.38 227.438L41.598 227.302C41.3033 227.234 41.156 227.098 41.156 226.894C41.156 226.645 41.326 226.52 41.666 226.52H45.746C46.4487 226.52 46.8793 226.86 47.038 227.54L51.152 244.506C51.1973 244.665 51.2653 244.744 51.356 244.744C51.4693 244.744 51.5373 244.665 51.56 244.506L55.844 227.37C55.98 226.803 56.3427 226.52 56.932 226.52H60.944C61.284 226.52 61.454 226.645 61.454 226.894C61.454 227.098 61.3067 227.234 61.012 227.302L60.23 227.438C59.754 227.529 59.4367 227.653 59.278 227.812C59.1193 227.971 59.0513 228.288 59.074 228.764L59.754 248.756C59.7767 249.232 59.856 249.549 59.992 249.708C60.128 249.867 60.434 249.991 60.91 250.082L61.692 250.218C61.9867 250.286 62.134 250.422 62.134 250.626C62.134 250.875 61.964 251 61.624 251H55.47C55.13 251 54.96 250.875 54.96 250.626C54.96 250.422 55.1073 250.286 55.402 250.218L56.184 250.082C56.66 249.991 56.9773 249.867 57.136 249.708C57.2947 249.549 57.3627 249.232 57.34 248.756L56.762 229.308C56.762 229.149 56.7053 229.07 56.592 229.07C56.5013 229.047 56.4333 229.104 56.388 229.24L51.22 250.116C51.1747 250.343 51.0953 250.49 50.982 250.558C50.8913 250.626 50.8007 250.66 50.71 250.66ZM69.1813 251.306C68.0253 251.306 66.9826 250.921 66.0533 250.15C65.1466 249.357 64.4213 248.28 63.8773 246.92C63.3333 245.56 63.0613 244.041 63.0613 242.364C63.0613 240.687 63.3333 239.179 63.8773 237.842C64.4213 236.505 65.158 235.439 66.0873 234.646C67.0166 233.853 68.048 233.456 69.1813 233.456C70.3373 233.456 71.3686 233.853 72.2753 234.646C73.2046 235.439 73.9413 236.505 74.4853 237.842C75.0293 239.179 75.3013 240.687 75.3013 242.364C75.3013 244.041 75.0293 245.56 74.4853 246.92C73.964 248.28 73.2386 249.357 72.3093 250.15C71.38 250.921 70.3373 251.306 69.1813 251.306ZM69.1813 250.456C71.5386 250.456 72.7173 247.759 72.7173 242.364C72.7173 236.992 71.5386 234.306 69.1813 234.306C66.824 234.306 65.6453 236.992 65.6453 242.364C65.6453 247.759 66.824 250.456 69.1813 250.456ZM80.6122 251.306C80.0909 251.306 79.5355 251.238 78.9462 251.102C78.3569 250.989 77.8809 250.841 77.5182 250.66C77.3142 250.547 77.2122 250.354 77.2122 250.082L77.1102 246.274C77.1102 245.889 77.2575 245.696 77.5522 245.696C77.8015 245.696 77.9715 245.877 78.0622 246.24C78.4475 247.849 78.9122 248.949 79.4562 249.538C80.0229 250.127 80.7029 250.422 81.4962 250.422C82.1535 250.422 82.6975 250.173 83.1282 249.674C83.5589 249.153 83.7742 248.439 83.7742 247.532C83.7742 246.625 83.5249 245.821 83.0262 245.118C82.5275 244.415 81.6889 243.645 80.5102 242.806C79.3315 242.013 78.4702 241.219 77.9262 240.426C77.3822 239.61 77.1102 238.726 77.1102 237.774C77.1102 236.482 77.5635 235.439 78.4702 234.646C79.3769 233.853 80.5782 233.456 82.0742 233.456C82.5275 233.456 82.9695 233.513 83.4002 233.626C83.8309 233.717 84.2162 233.875 84.5562 234.102C84.7602 234.238 84.8622 234.419 84.8622 234.646L84.9302 238.386C84.9302 238.726 84.7942 238.896 84.5222 238.896C84.3635 238.896 84.2502 238.851 84.1822 238.76C84.1142 238.647 84.0575 238.511 84.0122 238.352C83.5589 236.879 83.1055 235.859 82.6522 235.292C82.1989 234.703 81.6435 234.408 80.9862 234.408C80.3969 234.408 79.9095 234.612 79.5242 235.02C79.1389 235.428 78.9462 235.938 78.9462 236.55C78.9462 237.343 79.1842 238.035 79.6602 238.624C80.1362 239.213 80.9975 239.939 82.2442 240.8C83.3775 241.616 84.2275 242.5 84.7942 243.452C85.3835 244.381 85.6782 245.401 85.6782 246.512C85.6782 247.963 85.2135 249.13 84.2842 250.014C83.3549 250.875 82.1309 251.306 80.6122 251.306ZM91.6152 251.306C90.8219 251.306 90.1645 251.034 89.6432 250.49C89.1445 249.923 88.8952 249.005 88.8952 247.736V235.02C88.8952 234.748 88.7592 234.612 88.4872 234.612H87.5012C87.1385 234.612 86.9572 234.476 86.9572 234.204C86.9572 234.023 87.0592 233.864 87.2632 233.728C88.0112 233.207 88.6119 232.651 89.0652 232.062C89.5185 231.45 89.9152 230.623 90.2552 229.58C90.4139 229.104 90.6065 228.866 90.8332 228.866C91.0825 228.866 91.2072 229.047 91.2072 229.41V233.184C91.2072 233.501 91.3659 233.66 91.6832 233.66H93.8932C94.2559 233.66 94.4372 233.819 94.4372 234.136C94.4372 234.453 94.2559 234.612 93.8932 234.612H91.6832C91.3659 234.612 91.2072 234.771 91.2072 235.088V247.77C91.2072 248.269 91.2865 248.665 91.4452 248.96C91.6039 249.232 91.8985 249.368 92.3292 249.368C92.8052 249.368 93.1905 249.13 93.4852 248.654C93.8025 248.178 94.0065 247.407 94.0972 246.342C94.1425 246.025 94.2899 245.866 94.5392 245.866C94.8112 245.866 94.9472 246.036 94.9472 246.376C94.8792 248.121 94.5165 249.379 93.8592 250.15C93.2245 250.921 92.4765 251.306 91.6152 251.306ZM107.007 251.306C106.441 251.306 105.897 251.181 105.375 250.932C104.854 250.683 104.423 250.286 104.083 249.742C103.743 249.198 103.573 248.473 103.573 247.566V235.734C103.573 235.326 103.505 235.043 103.369 234.884C103.256 234.725 103.041 234.635 102.723 234.612L102.145 234.544C101.76 234.499 101.567 234.351 101.567 234.102C101.567 233.807 101.783 233.66 102.213 233.66H105.375C105.715 233.66 105.885 233.83 105.885 234.17V246.852C105.885 247.895 106.078 248.643 106.463 249.096C106.871 249.527 107.427 249.742 108.129 249.742C108.832 249.742 109.455 249.549 109.999 249.164C110.543 248.756 110.974 248.223 111.291 247.566C111.631 246.886 111.801 246.149 111.801 245.356V235.734C111.801 235.326 111.733 235.043 111.597 234.884C111.484 234.725 111.269 234.635 110.951 234.612L110.373 234.544C109.988 234.499 109.795 234.351 109.795 234.102C109.795 233.807 110.011 233.66 110.441 233.66H113.603C113.943 233.66 114.113 233.83 114.113 234.17V247.362C114.113 247.77 114.17 248.053 114.283 248.212C114.419 248.348 114.646 248.439 114.963 248.484L115.677 248.586C115.972 248.609 116.119 248.722 116.119 248.926C116.119 249.13 115.938 249.266 115.575 249.334C114.873 249.425 114.306 249.606 113.875 249.878C113.467 250.15 113.105 250.479 112.787 250.864C112.583 251.068 112.413 251.17 112.277 251.17C112.073 251.17 111.971 251.034 111.971 250.762V249.198C111.971 249.017 111.903 248.915 111.767 248.892C111.654 248.847 111.529 248.892 111.393 249.028C110.555 249.867 109.807 250.456 109.149 250.796C108.515 251.136 107.801 251.306 107.007 251.306ZM121.087 251.306C120.565 251.306 120.01 251.238 119.421 251.102C118.831 250.989 118.355 250.841 117.993 250.66C117.789 250.547 117.687 250.354 117.687 250.082L117.585 246.274C117.585 245.889 117.732 245.696 118.027 245.696C118.276 245.696 118.446 245.877 118.537 246.24C118.922 247.849 119.387 248.949 119.931 249.538C120.497 250.127 121.177 250.422 121.971 250.422C122.628 250.422 123.172 250.173 123.603 249.674C124.033 249.153 124.249 248.439 124.249 247.532C124.249 246.625 123.999 245.821 123.501 245.118C123.002 244.415 122.163 243.645 120.985 242.806C119.806 242.013 118.945 241.219 118.401 240.426C117.857 239.61 117.585 238.726 117.585 237.774C117.585 236.482 118.038 235.439 118.945 234.646C119.851 233.853 121.053 233.456 122.549 233.456C123.002 233.456 123.444 233.513 123.875 233.626C124.305 233.717 124.691 233.875 125.031 234.102C125.235 234.238 125.337 234.419 125.337 234.646L125.405 238.386C125.405 238.726 125.269 238.896 124.997 238.896C124.838 238.896 124.725 238.851 124.657 238.76C124.589 238.647 124.532 238.511 124.487 238.352C124.033 236.879 123.58 235.859 123.127 235.292C122.673 234.703 122.118 234.408 121.461 234.408C120.871 234.408 120.384 234.612 119.999 235.02C119.613 235.428 119.421 235.938 119.421 236.55C119.421 237.343 119.659 238.035 120.135 238.624C120.611 239.213 121.472 239.939 122.719 240.8C123.852 241.616 124.702 242.5 125.269 243.452C125.858 244.381 126.153 245.401 126.153 246.512C126.153 247.963 125.688 249.13 124.759 250.014C123.829 250.875 122.605 251.306 121.087 251.306ZM133.62 251.306C132.532 251.306 131.557 250.943 130.696 250.218C129.834 249.493 129.143 248.473 128.622 247.158C128.123 245.821 127.874 244.279 127.874 242.534C127.874 240.743 128.134 239.168 128.656 237.808C129.177 236.448 129.891 235.383 130.798 234.612C131.704 233.841 132.713 233.456 133.824 233.456C135.161 233.456 136.238 234.011 137.054 235.122C137.892 236.21 138.312 237.989 138.312 240.46C138.312 241.208 138.028 241.582 137.462 241.582H131.002C130.548 241.582 130.322 241.843 130.322 242.364C130.322 244.767 130.673 246.569 131.376 247.77C132.078 248.971 132.974 249.572 134.062 249.572C134.923 249.572 135.626 249.266 136.17 248.654C136.714 248.042 137.156 247.011 137.496 245.56C137.564 245.311 137.711 245.186 137.938 245.186C138.21 245.186 138.312 245.413 138.244 245.866C137.881 247.883 137.303 249.3 136.51 250.116C135.716 250.909 134.753 251.306 133.62 251.306ZM130.9 240.732H134.334C135.422 240.732 135.966 240.165 135.966 239.032C135.966 237.559 135.784 236.403 135.422 235.564C135.059 234.725 134.515 234.306 133.79 234.306C132.906 234.306 132.158 234.816 131.546 235.836C130.956 236.856 130.571 238.307 130.39 240.188C130.344 240.551 130.514 240.732 130.9 240.732ZM145.332 251.306C144.334 251.306 143.439 250.966 142.646 250.286C141.875 249.583 141.274 248.62 140.844 247.396C140.413 246.149 140.198 244.71 140.198 243.078C140.198 241.174 140.492 239.508 141.082 238.08C141.671 236.629 142.487 235.496 143.53 234.68C144.572 233.864 145.751 233.456 147.066 233.456C147.383 233.456 147.7 233.49 148.018 233.558C148.335 233.603 148.641 233.694 148.936 233.83C149.298 234.011 149.48 233.932 149.48 233.592V229.24C149.48 228.832 149.412 228.549 149.276 228.39C149.162 228.231 148.947 228.141 148.63 228.118L147.746 228.016C147.496 227.971 147.372 227.835 147.372 227.608C147.372 227.381 147.496 227.245 147.746 227.2C148.471 227.064 149.049 226.905 149.48 226.724C149.933 226.543 150.307 226.361 150.602 226.18C150.964 225.953 151.236 225.84 151.418 225.84C151.667 225.84 151.792 226.021 151.792 226.384V247.77C151.792 248.722 152.03 249.198 152.506 249.198C152.8 249.198 153.072 249.005 153.322 248.62C153.571 248.212 153.696 247.532 153.696 246.58C153.696 246.217 153.843 246.036 154.138 246.036C154.41 246.036 154.546 246.229 154.546 246.614C154.546 248.269 154.262 249.47 153.696 250.218C153.129 250.943 152.483 251.306 151.758 251.306C151.1 251.306 150.602 251.091 150.262 250.66C149.922 250.207 149.695 249.674 149.582 249.062C149.559 248.881 149.48 248.79 149.344 248.79C149.208 248.767 149.083 248.847 148.97 249.028C148.335 249.912 147.757 250.513 147.236 250.83C146.714 251.147 146.08 251.306 145.332 251.306ZM146.08 249.742C146.669 249.742 147.213 249.549 147.712 249.164C148.233 248.756 148.652 248.212 148.97 247.532C149.31 246.852 149.48 246.093 149.48 245.254V237.604C149.48 236.584 149.242 235.779 148.766 235.19C148.312 234.601 147.712 234.306 146.964 234.306C145.694 234.306 144.663 235.054 143.87 236.55C143.099 238.023 142.714 240.041 142.714 242.602C142.714 244.937 143.008 246.716 143.598 247.94C144.21 249.141 145.037 249.742 146.08 249.742ZM165.492 251.306C164.699 251.306 164.041 251.034 163.52 250.49C163.021 249.923 162.772 249.005 162.772 247.736V235.02C162.772 234.748 162.636 234.612 162.364 234.612H161.378C161.015 234.612 160.834 234.476 160.834 234.204C160.834 234.023 160.936 233.864 161.14 233.728C161.888 233.207 162.489 232.651 162.942 232.062C163.395 231.45 163.792 230.623 164.132 229.58C164.291 229.104 164.483 228.866 164.71 228.866C164.959 228.866 165.084 229.047 165.084 229.41V233.184C165.084 233.501 165.243 233.66 165.56 233.66H167.77C168.133 233.66 168.314 233.819 168.314 234.136C168.314 234.453 168.133 234.612 167.77 234.612H165.56C165.243 234.612 165.084 234.771 165.084 235.088V247.77C165.084 248.269 165.163 248.665 165.322 248.96C165.481 249.232 165.775 249.368 166.206 249.368C166.682 249.368 167.067 249.13 167.362 248.654C167.679 248.178 167.883 247.407 167.974 246.342C168.019 246.025 168.167 245.866 168.416 245.866C168.688 245.866 168.824 246.036 168.824 246.376C168.756 248.121 168.393 249.379 167.736 250.15C167.101 250.921 166.353 251.306 165.492 251.306ZM175.821 251.306C174.733 251.306 173.758 250.943 172.897 250.218C172.036 249.493 171.344 248.473 170.823 247.158C170.324 245.821 170.075 244.279 170.075 242.534C170.075 240.743 170.336 239.168 170.857 237.808C171.378 236.448 172.092 235.383 172.999 234.612C173.906 233.841 174.914 233.456 176.025 233.456C177.362 233.456 178.439 234.011 179.255 235.122C180.094 236.21 180.513 237.989 180.513 240.46C180.513 241.208 180.23 241.582 179.663 241.582H173.203C172.75 241.582 172.523 241.843 172.523 242.364C172.523 244.767 172.874 246.569 173.577 247.77C174.28 248.971 175.175 249.572 176.263 249.572C177.124 249.572 177.827 249.266 178.371 248.654C178.915 248.042 179.357 247.011 179.697 245.56C179.765 245.311 179.912 245.186 180.139 245.186C180.411 245.186 180.513 245.413 180.445 245.866C180.082 247.883 179.504 249.3 178.711 250.116C177.918 250.909 176.954 251.306 175.821 251.306ZM173.101 240.732H176.535C177.623 240.732 178.167 240.165 178.167 239.032C178.167 237.559 177.986 236.403 177.623 235.564C177.26 234.725 176.716 234.306 175.991 234.306C175.107 234.306 174.359 234.816 173.747 235.836C173.158 236.856 172.772 238.307 172.591 240.188C172.546 240.551 172.716 240.732 173.101 240.732ZM187.499 251.306C186.502 251.306 185.595 250.977 184.779 250.32C183.986 249.64 183.351 248.677 182.875 247.43C182.399 246.183 182.161 244.699 182.161 242.976C182.161 241.049 182.444 239.372 183.011 237.944C183.6 236.516 184.394 235.417 185.391 234.646C186.388 233.853 187.499 233.456 188.723 233.456C189.766 233.456 190.582 233.66 191.171 234.068C191.398 234.227 191.511 234.476 191.511 234.816L191.579 238.964C191.579 239.304 191.443 239.474 191.171 239.474C190.922 239.474 190.763 239.327 190.695 239.032C190.378 237.785 190.072 236.822 189.777 236.142C189.482 235.462 189.176 234.997 188.859 234.748C188.542 234.476 188.19 234.34 187.805 234.34C187.352 234.34 186.876 234.601 186.377 235.122C185.901 235.643 185.493 236.493 185.153 237.672C184.836 238.828 184.677 240.358 184.677 242.262C184.677 244.687 184.983 246.512 185.595 247.736C186.23 248.96 187.046 249.572 188.043 249.572C188.836 249.572 189.494 249.243 190.015 248.586C190.559 247.929 191.024 246.739 191.409 245.016C191.477 244.767 191.613 244.642 191.817 244.642C192.089 244.642 192.191 244.869 192.123 245.322C191.874 246.909 191.522 248.144 191.069 249.028C190.638 249.889 190.117 250.49 189.505 250.83C188.916 251.147 188.247 251.306 187.499 251.306ZM193.818 251C193.546 251 193.41 250.875 193.41 250.626C193.41 250.399 193.535 250.263 193.784 250.218L194.26 250.15C194.736 250.082 195.042 249.946 195.178 249.742C195.337 249.538 195.416 249.198 195.416 248.722V229.24C195.416 228.832 195.348 228.56 195.212 228.424C195.099 228.265 194.884 228.163 194.566 228.118L193.852 228.016C193.603 227.971 193.478 227.835 193.478 227.608C193.478 227.381 193.603 227.245 193.852 227.2C194.487 227.064 195.02 226.905 195.45 226.724C195.881 226.543 196.244 226.361 196.538 226.18C196.901 225.953 197.173 225.84 197.354 225.84C197.604 225.84 197.728 226.021 197.728 226.384V235.394C197.728 235.598 197.796 235.723 197.932 235.768C198.068 235.791 198.238 235.711 198.442 235.53C199.304 234.737 200.063 234.193 200.72 233.898C201.378 233.603 202.069 233.456 202.794 233.456C203.86 233.456 204.698 233.819 205.31 234.544C205.922 235.247 206.228 236.289 206.228 237.672V248.722C206.228 249.198 206.296 249.538 206.432 249.742C206.591 249.923 206.908 250.048 207.384 250.116L208.132 250.218C208.382 250.263 208.506 250.399 208.506 250.626C208.506 250.875 208.37 251 208.098 251H202.386C202.069 251 201.91 250.875 201.91 250.626C201.91 250.399 202.035 250.263 202.284 250.218L202.76 250.15C203.236 250.082 203.542 249.946 203.678 249.742C203.837 249.538 203.916 249.198 203.916 248.722V238.046C203.916 236.935 203.712 236.153 203.304 235.7C202.896 235.247 202.318 235.02 201.57 235.02C200.845 235.02 200.188 235.235 199.598 235.666C199.032 236.074 198.578 236.629 198.238 237.332C197.898 238.012 197.728 238.771 197.728 239.61V248.722C197.728 249.198 197.796 249.538 197.932 249.742C198.091 249.946 198.408 250.071 198.884 250.116L199.802 250.218C200.052 250.263 200.176 250.399 200.176 250.626C200.176 250.875 200.04 251 199.768 251H193.818ZM219.102 251.306C218.581 251.306 218.026 251.238 217.436 251.102C216.847 250.989 216.371 250.841 216.008 250.66C215.804 250.547 215.702 250.354 215.702 250.082L215.6 246.274C215.6 245.889 215.748 245.696 216.042 245.696C216.292 245.696 216.462 245.877 216.552 246.24C216.938 247.849 217.402 248.949 217.946 249.538C218.513 250.127 219.193 250.422 219.986 250.422C220.644 250.422 221.188 250.173 221.618 249.674C222.049 249.153 222.264 248.439 222.264 247.532C222.264 246.625 222.015 245.821 221.516 245.118C221.018 244.415 220.179 243.645 219 242.806C217.822 242.013 216.96 241.219 216.416 240.426C215.872 239.61 215.6 238.726 215.6 237.774C215.6 236.482 216.054 235.439 216.96 234.646C217.867 233.853 219.068 233.456 220.564 233.456C221.018 233.456 221.46 233.513 221.89 233.626C222.321 233.717 222.706 233.875 223.046 234.102C223.25 234.238 223.352 234.419 223.352 234.646L223.42 238.386C223.42 238.726 223.284 238.896 223.012 238.896C222.854 238.896 222.74 238.851 222.672 238.76C222.604 238.647 222.548 238.511 222.502 238.352C222.049 236.879 221.596 235.859 221.142 235.292C220.689 234.703 220.134 234.408 219.476 234.408C218.887 234.408 218.4 234.612 218.014 235.02C217.629 235.428 217.436 235.938 217.436 236.55C217.436 237.343 217.674 238.035 218.15 238.624C218.626 239.213 219.488 239.939 220.734 240.8C221.868 241.616 222.718 242.5 223.284 243.452C223.874 244.381 224.168 245.401 224.168 246.512C224.168 247.963 223.704 249.13 222.774 250.014C221.845 250.875 220.621 251.306 219.102 251.306ZM230.105 251.306C229.312 251.306 228.655 251.034 228.133 250.49C227.635 249.923 227.385 249.005 227.385 247.736V235.02C227.385 234.748 227.249 234.612 226.977 234.612H225.991C225.629 234.612 225.447 234.476 225.447 234.204C225.447 234.023 225.549 233.864 225.753 233.728C226.501 233.207 227.102 232.651 227.555 232.062C228.009 231.45 228.405 230.623 228.745 229.58C228.904 229.104 229.097 228.866 229.323 228.866C229.573 228.866 229.697 229.047 229.697 229.41V233.184C229.697 233.501 229.856 233.66 230.173 233.66H232.383C232.746 233.66 232.927 233.819 232.927 234.136C232.927 234.453 232.746 234.612 232.383 234.612H230.173C229.856 234.612 229.697 234.771 229.697 235.088V247.77C229.697 248.269 229.777 248.665 229.935 248.96C230.094 249.232 230.389 249.368 230.819 249.368C231.295 249.368 231.681 249.13 231.975 248.654C232.293 248.178 232.497 247.407 232.587 246.342C232.633 246.025 232.78 245.866 233.029 245.866C233.301 245.866 233.437 246.036 233.437 246.376C233.369 248.121 233.007 249.379 232.349 250.15C231.715 250.921 230.967 251.306 230.105 251.306ZM237.986 251.306C237.034 251.306 236.252 251.011 235.64 250.422C235.028 249.81 234.722 249.005 234.722 248.008C234.722 247.033 235.028 246.115 235.64 245.254C236.252 244.37 237.091 243.577 238.156 242.874C239.222 242.171 240.434 241.605 241.794 241.174C242.089 241.083 242.236 240.891 242.236 240.596V237.502C242.236 236.414 242.066 235.643 241.726 235.19C241.386 234.714 240.922 234.476 240.332 234.476C239.766 234.476 239.244 234.737 238.768 235.258C238.315 235.757 237.986 236.607 237.782 237.808C237.669 238.533 237.42 239.066 237.034 239.406C236.672 239.723 236.298 239.882 235.912 239.882C235.278 239.882 234.96 239.565 234.96 238.93C234.96 238.273 235.142 237.627 235.504 236.992C235.89 236.335 236.388 235.745 237 235.224C237.612 234.68 238.281 234.249 239.006 233.932C239.732 233.615 240.457 233.456 241.182 233.456C243.426 233.456 244.548 234.759 244.548 237.366V247.77C244.548 248.722 244.786 249.198 245.262 249.198C245.557 249.198 245.829 249.005 246.078 248.62C246.328 248.212 246.452 247.532 246.452 246.58C246.452 246.217 246.6 246.036 246.894 246.036C247.166 246.036 247.302 246.229 247.302 246.614C247.302 248.269 247.008 249.47 246.418 250.218C245.852 250.943 245.206 251.306 244.48 251.306C243.936 251.306 243.506 251.091 243.188 250.66C242.871 250.207 242.656 249.674 242.542 249.062C242.52 248.835 242.418 248.722 242.236 248.722C242.078 248.699 241.919 248.801 241.76 249.028C241.216 249.776 240.661 250.343 240.094 250.728C239.528 251.113 238.825 251.306 237.986 251.306ZM238.904 249.742C239.494 249.742 240.038 249.538 240.536 249.13C241.035 248.699 241.443 248.133 241.76 247.43C242.078 246.727 242.236 245.934 242.236 245.05V242.568C242.236 242.137 241.998 242.013 241.522 242.194C240.14 242.693 239.063 243.384 238.292 244.268C237.544 245.129 237.17 246.172 237.17 247.396C237.17 248.96 237.748 249.742 238.904 249.742ZM253.606 251.306C252.609 251.306 251.702 250.977 250.886 250.32C250.093 249.64 249.458 248.677 248.982 247.43C248.506 246.183 248.268 244.699 248.268 242.976C248.268 241.049 248.552 239.372 249.118 237.944C249.708 236.516 250.501 235.417 251.498 234.646C252.496 233.853 253.606 233.456 254.83 233.456C255.873 233.456 256.689 233.66 257.278 234.068C257.505 234.227 257.618 234.476 257.618 234.816L257.686 238.964C257.686 239.304 257.55 239.474 257.278 239.474C257.029 239.474 256.87 239.327 256.802 239.032C256.485 237.785 256.179 236.822 255.884 236.142C255.59 235.462 255.284 234.997 254.966 234.748C254.649 234.476 254.298 234.34 253.912 234.34C253.459 234.34 252.983 234.601 252.484 235.122C252.008 235.643 251.6 236.493 251.26 237.672C250.943 238.828 250.784 240.358 250.784 242.262C250.784 244.687 251.09 246.512 251.702 247.736C252.337 248.96 253.153 249.572 254.15 249.572C254.944 249.572 255.601 249.243 256.122 248.586C256.666 247.929 257.131 246.739 257.516 245.016C257.584 244.767 257.72 244.642 257.924 244.642C258.196 244.642 258.298 244.869 258.23 245.322C257.981 246.909 257.63 248.144 257.176 249.028C256.746 249.889 256.224 250.49 255.612 250.83C255.023 251.147 254.354 251.306 253.606 251.306ZM259.926 251C259.654 251 259.518 250.875 259.518 250.626C259.518 250.399 259.642 250.263 259.892 250.218L260.368 250.15C260.844 250.082 261.15 249.946 261.286 249.742C261.444 249.538 261.524 249.198 261.524 248.722V229.24C261.524 228.832 261.456 228.56 261.32 228.424C261.206 228.265 260.991 228.163 260.674 228.118L259.96 228.016C259.71 227.971 259.586 227.835 259.586 227.608C259.586 227.381 259.71 227.245 259.96 227.2C260.594 227.064 261.127 226.905 261.558 226.724C261.988 226.543 262.351 226.361 262.646 226.18C263.008 225.953 263.28 225.84 263.462 225.84C263.711 225.84 263.836 226.021 263.836 226.384V240.63C263.836 240.857 263.926 241.004 264.108 241.072C264.312 241.117 264.504 241.038 264.686 240.834L268.664 236.55C269.14 236.029 269.332 235.598 269.242 235.258C269.174 234.895 268.913 234.669 268.46 234.578L267.678 234.442C267.383 234.374 267.236 234.227 267.236 234C267.236 233.773 267.394 233.66 267.712 233.66H273.56C273.877 233.66 274.036 233.785 274.036 234.034C274.036 234.283 273.888 234.419 273.594 234.442L273.288 234.476C272.766 234.521 272.245 234.725 271.724 235.088C271.202 235.428 270.579 235.972 269.854 236.72L267.746 238.964C267.27 239.485 267.156 239.995 267.406 240.494L271.69 248.722C271.939 249.175 272.211 249.504 272.506 249.708C272.8 249.912 273.163 250.059 273.594 250.15L273.934 250.218C274.206 250.286 274.342 250.422 274.342 250.626C274.342 250.875 274.183 251 273.866 251H267.95C267.632 251 267.474 250.875 267.474 250.626C267.474 250.399 267.621 250.263 267.916 250.218L268.494 250.15C269.355 250.037 269.536 249.481 269.038 248.484L265.808 242.194C265.694 241.967 265.524 241.843 265.298 241.82C265.094 241.797 264.901 241.877 264.72 242.058L264.346 242.432C264.142 242.636 264.006 242.84 263.938 243.044C263.87 243.248 263.836 243.475 263.836 243.724V248.722C263.836 249.198 263.904 249.538 264.04 249.742C264.198 249.946 264.516 250.071 264.992 250.116L265.91 250.218C266.159 250.263 266.284 250.399 266.284 250.626C266.284 250.875 266.148 251 265.876 251H259.926Z" fill="#750506"/>
<path d="M41.152 290V281.48H46.528V282.824H41.728L42.64 281.96V285.872L41.728 285.164H46.312V286.496H41.728L42.64 285.8V290H41.152ZM49.9073 290V288.632H51.8513V282.848H49.9073V281.48H55.2833V282.848H53.3393V288.632H55.2833V290H49.9073ZM61.5906 290.192C60.9666 290.192 60.4146 290.024 59.9346 289.688C59.4546 289.344 59.0786 288.84 58.8066 288.176C58.5346 287.512 58.3986 286.704 58.3986 285.752C58.3986 284.832 58.5266 284.04 58.7826 283.376C59.0386 282.712 59.4066 282.2 59.8866 281.84C60.3746 281.472 60.9546 281.288 61.6266 281.288C62.1706 281.288 62.6506 281.404 63.0666 281.636C63.4826 281.868 63.8266 282.204 64.0986 282.644C64.3786 283.076 64.5786 283.592 64.6986 284.192L63.1626 284.288C63.0586 283.768 62.8786 283.364 62.6226 283.076C62.3666 282.788 62.0386 282.644 61.6386 282.644C61.2786 282.644 60.9706 282.764 60.7146 283.004C60.4586 283.244 60.2626 283.596 60.1266 284.06C59.9986 284.524 59.9346 285.088 59.9346 285.752C59.9346 286.408 60.0026 286.968 60.1386 287.432C60.2826 287.888 60.4866 288.236 60.7506 288.476C61.0146 288.716 61.3386 288.836 61.7226 288.836C62.0426 288.836 62.3186 288.756 62.5506 288.596C62.7826 288.428 62.9626 288.192 63.0906 287.888C63.2266 287.584 63.3026 287.228 63.3186 286.82H61.6146V285.608H64.6866V290H63.6066L63.5346 288.104L63.8946 287.996C63.8226 288.396 63.6906 288.764 63.4986 289.1C63.3146 289.436 63.0626 289.704 62.7426 289.904C62.4306 290.096 62.0466 290.192 61.5906 290.192ZM70.0939 288.896L68.7499 283.304L68.9299 283.28V290H67.5379V281.48H69.3379L70.8139 287.408H70.3579L71.8339 281.48H73.6339V290H72.2419V283.28L72.4219 283.304L71.0779 288.896H70.0939ZM76.2333 290L78.6573 281.48H80.5053L82.9293 290H81.4053L79.5813 283.16L77.7573 290H76.2333ZM77.7213 287.984L78.1293 286.652H81.0333L81.4413 287.984H77.7213Z" fill="#750506"/>
<line x1="40" y1="310.5" x2="786" y2="310.5" stroke="#A0A09C"/>
<circle cx="774" cy="311" r="5" fill="#B91D22"/>
<line x1="50.4766" y1="315" x2="50.4766" y2="306" stroke="#A0A09C" stroke-width="2"/>
<line x1="766.637" y1="315" x2="766.637" y2="306" stroke="#A0A09C" stroke-width="2"/>
<path opacity="0.5" d="M43.684 340.192C43.06 340.192 42.516 340.068 42.052 339.82C41.596 339.572 41.236 339.224 40.972 338.776C40.708 338.32 40.552 337.784 40.504 337.168L42.016 337.084C42.072 337.476 42.172 337.804 42.316 338.068C42.468 338.324 42.664 338.52 42.904 338.656C43.152 338.784 43.436 338.848 43.756 338.848C44.06 338.848 44.316 338.808 44.524 338.728C44.74 338.648 44.904 338.528 45.016 338.368C45.128 338.208 45.184 338.016 45.184 337.792C45.184 337.552 45.128 337.344 45.016 337.168C44.904 336.992 44.704 336.828 44.416 336.676C44.128 336.524 43.716 336.376 43.18 336.232C42.604 336.08 42.132 335.904 41.764 335.704C41.396 335.504 41.124 335.256 40.948 334.96C40.772 334.656 40.684 334.276 40.684 333.82C40.684 333.308 40.796 332.864 41.02 332.488C41.252 332.104 41.584 331.808 42.016 331.6C42.456 331.392 42.98 331.288 43.588 331.288C44.188 331.288 44.7 331.404 45.124 331.636C45.548 331.86 45.88 332.184 46.12 332.608C46.368 333.024 46.52 333.52 46.576 334.096L45.052 334.168C45.012 333.856 44.928 333.588 44.8 333.364C44.68 333.132 44.512 332.952 44.296 332.824C44.088 332.696 43.832 332.632 43.528 332.632C43.12 332.632 42.796 332.736 42.556 332.944C42.316 333.144 42.196 333.408 42.196 333.736C42.196 333.968 42.248 334.16 42.352 334.312C42.464 334.464 42.652 334.6 42.916 334.72C43.18 334.84 43.552 334.96 44.032 335.08C44.696 335.256 45.22 335.464 45.604 335.704C45.996 335.944 46.276 336.232 46.444 336.568C46.612 336.904 46.696 337.3 46.696 337.756C46.696 338.244 46.572 338.672 46.324 339.04C46.076 339.408 45.728 339.692 45.28 339.892C44.832 340.092 44.3 340.192 43.684 340.192ZM52.5953 340.192C51.9153 340.192 51.3353 340.02 50.8553 339.676C50.3833 339.332 50.0233 338.828 49.7753 338.164C49.5273 337.5 49.4033 336.696 49.4033 335.752C49.4033 334.792 49.5273 333.98 49.7753 333.316C50.0233 332.652 50.3833 332.148 50.8553 331.804C51.3353 331.46 51.9153 331.288 52.5953 331.288C53.2753 331.288 53.8513 331.46 54.3233 331.804C54.8033 332.148 55.1673 332.652 55.4153 333.316C55.6633 333.98 55.7873 334.792 55.7873 335.752C55.7873 336.696 55.6633 337.5 55.4153 338.164C55.1673 338.828 54.8033 339.332 54.3233 339.676C53.8513 340.02 53.2753 340.192 52.5953 340.192ZM52.5953 338.848C52.9553 338.848 53.2593 338.736 53.5073 338.512C53.7553 338.288 53.9393 337.948 54.0593 337.492C54.1873 337.028 54.2513 336.448 54.2513 335.752C54.2513 335.056 54.1873 334.476 54.0593 334.012C53.9393 333.548 53.7553 333.204 53.5073 332.98C53.2593 332.748 52.9553 332.632 52.5953 332.632C52.2353 332.632 51.9313 332.748 51.6833 332.98C51.4353 333.204 51.2473 333.548 51.1193 334.012C50.9993 334.476 50.9393 335.056 50.9393 335.752C50.9393 336.448 50.9993 337.028 51.1193 337.492C51.2473 337.948 51.4353 338.288 51.6833 338.512C51.9313 338.736 52.2353 338.848 52.5953 338.848ZM61.5906 340.192C60.6706 340.192 59.9506 339.92 59.4306 339.376C58.9186 338.824 58.6626 338.048 58.6626 337.048V331.48H60.1506V337.144C60.1506 337.688 60.2706 338.108 60.5106 338.404C60.7586 338.7 61.1186 338.848 61.5906 338.848C62.0626 338.848 62.4186 338.7 62.6586 338.404C62.9066 338.108 63.0306 337.688 63.0306 337.144V331.48H64.5186V337.048C64.5186 338.048 64.2586 338.824 63.7386 339.376C63.2266 339.92 62.5106 340.192 61.5906 340.192ZM67.7539 340V331.48H70.4539C71.3659 331.48 72.0819 331.708 72.6019 332.164C73.1219 332.62 73.3819 333.244 73.3819 334.036C73.3819 334.444 73.2899 334.804 73.1059 335.116C72.9299 335.428 72.6939 335.676 72.3979 335.86C72.1019 336.036 71.7779 336.136 71.4259 336.16L71.3779 336.004C71.9939 336.028 72.4539 336.164 72.7579 336.412C73.0619 336.652 73.2379 337.048 73.2859 337.6L73.4899 340H72.0019L71.8219 337.948C71.7979 337.644 71.7379 337.408 71.6419 337.24C71.5539 337.072 71.4139 336.956 71.2219 336.892C71.0379 336.828 70.7819 336.796 70.4539 336.796H69.2419V340H67.7539ZM69.2419 335.428H70.4179C70.8819 335.428 71.2339 335.316 71.4739 335.092C71.7219 334.868 71.8459 334.548 71.8459 334.132C71.8459 333.716 71.7219 333.4 71.4739 333.184C71.2339 332.96 70.8819 332.848 70.4179 332.848H69.2419V335.428Z" fill="#424242"/>
<path opacity="0.5" d="M745.684 340.192C745.06 340.192 744.516 340.068 744.052 339.82C743.596 339.572 743.236 339.224 742.972 338.776C742.708 338.32 742.552 337.784 742.504 337.168L744.016 337.084C744.072 337.476 744.172 337.804 744.316 338.068C744.468 338.324 744.664 338.52 744.904 338.656C745.152 338.784 745.436 338.848 745.756 338.848C746.06 338.848 746.316 338.808 746.524 338.728C746.74 338.648 746.904 338.528 747.016 338.368C747.128 338.208 747.184 338.016 747.184 337.792C747.184 337.552 747.128 337.344 747.016 337.168C746.904 336.992 746.704 336.828 746.416 336.676C746.128 336.524 745.716 336.376 745.18 336.232C744.604 336.08 744.132 335.904 743.764 335.704C743.396 335.504 743.124 335.256 742.948 334.96C742.772 334.656 742.684 334.276 742.684 333.82C742.684 333.308 742.796 332.864 743.02 332.488C743.252 332.104 743.584 331.808 744.016 331.6C744.456 331.392 744.98 331.288 745.588 331.288C746.188 331.288 746.7 331.404 747.124 331.636C747.548 331.86 747.88 332.184 748.12 332.608C748.368 333.024 748.52 333.52 748.576 334.096L747.052 334.168C747.012 333.856 746.928 333.588 746.8 333.364C746.68 333.132 746.512 332.952 746.296 332.824C746.088 332.696 745.832 332.632 745.528 332.632C745.12 332.632 744.796 332.736 744.556 332.944C744.316 333.144 744.196 333.408 744.196 333.736C744.196 333.968 744.248 334.16 744.352 334.312C744.464 334.464 744.652 334.6 744.916 334.72C745.18 334.84 745.552 334.96 746.032 335.08C746.696 335.256 747.22 335.464 747.604 335.704C747.996 335.944 748.276 336.232 748.444 336.568C748.612 336.904 748.696 337.3 748.696 337.756C748.696 338.244 748.572 338.672 748.324 339.04C748.076 339.408 747.728 339.692 747.28 339.892C746.832 340.092 746.3 340.192 745.684 340.192ZM752.207 340L751.307 331.48H752.747L753.359 338.536H753.215L754.043 332.44H755.147L755.975 338.536H755.831L756.443 331.48H757.883L756.983 340H755.267L754.451 334.24H754.739L753.923 340H752.207ZM761.023 340V331.48H766.303V332.848H762.511V335.068H766.159V336.388H762.511V338.632H766.399V340H761.023ZM770.018 340V331.48H775.298V332.848H771.506V335.068H775.154V336.388H771.506V338.632H775.394V340H770.018ZM780.837 340V332.848H778.461V331.48H784.701V332.848H782.325V340H780.837Z" fill="#424242"/>
<path d="M41.152 376V367.48H46.528V368.824H41.728L42.64 367.96V371.872L41.728 371.164H46.312V372.496H41.728L42.64 371.8V376H41.152ZM49.7633 376V367.48H52.4633C53.3753 367.48 54.0913 367.708 54.6113 368.164C55.1313 368.62 55.3913 369.244 55.3913 370.036C55.3913 370.444 55.2993 370.804 55.1153 371.116C54.9393 371.428 54.7033 371.676 54.4073 371.86C54.1113 372.036 53.7873 372.136 53.4353 372.16L53.3873 372.004C54.0033 372.028 54.4633 372.164 54.7673 372.412C55.0713 372.652 55.2473 373.048 55.2953 373.6L55.4993 376H54.0113L53.8313 373.948C53.8073 373.644 53.7473 373.408 53.6513 373.24C53.5633 373.072 53.4233 372.956 53.2313 372.892C53.0473 372.828 52.7913 372.796 52.4633 372.796H51.2513V376H49.7633ZM51.2513 371.428H52.4273C52.8913 371.428 53.2433 371.316 53.4833 371.092C53.7313 370.868 53.8553 370.548 53.8553 370.132C53.8553 369.716 53.7313 369.4 53.4833 369.184C53.2433 368.96 52.8913 368.848 52.4273 368.848H51.2513V371.428ZM58.2426 376L60.6666 367.48H62.5146L64.9386 376H63.4146L61.5906 369.16L59.7666 376H58.2426ZM59.7306 373.984L60.1386 372.652H63.0426L63.4506 373.984H59.7306ZM70.0939 374.896L68.7499 369.304L68.9299 369.28V376H67.5379V367.48H69.3379L70.8139 373.408H70.3579L71.8339 367.48H73.6339V376H72.2419V369.28L72.4219 369.304L71.0779 374.896H70.0939ZM77.0133 376V367.48H82.2933V368.848H78.5013V371.068H82.1493V372.388H78.5013V374.632H82.3893V376H77.0133ZM85.7446 376V367.48H88.4446C89.3566 367.48 90.0726 367.708 90.5926 368.164C91.1126 368.62 91.3726 369.244 91.3726 370.036C91.3726 370.444 91.2806 370.804 91.0966 371.116C90.9206 371.428 90.6846 371.676 90.3886 371.86C90.0926 372.036 89.7686 372.136 89.4166 372.16L89.3686 372.004C89.9846 372.028 90.4446 372.164 90.7486 372.412C91.0526 372.652 91.2286 373.048 91.2766 373.6L91.4806 376H89.9926L89.8126 373.948C89.7886 373.644 89.7286 373.408 89.6326 373.24C89.5446 373.072 89.4046 372.956 89.2126 372.892C89.0286 372.828 88.7726 372.796 88.4446 372.796H87.2326V376H85.7446ZM87.2326 371.428H88.4086C88.8726 371.428 89.2246 371.316 89.4646 371.092C89.7126 370.868 89.8366 370.548 89.8366 370.132C89.8366 369.716 89.7126 369.4 89.4646 369.184C89.2246 368.96 88.8726 368.848 88.4086 368.848H87.2326V371.428Z" fill="#750506"/>
<line x1="40" y1="396.586" x2="786" y2="396.586" stroke="#A0A09C"/>
<circle cx="759.002" cy="397.086" r="5" transform="rotate(1 759.002 397.086)" fill="#B91D22"/>
<line x1="50.4766" y1="401.086" x2="50.4766" y2="392.086" stroke="#A0A09C" stroke-width="2"/>
<line x1="766.637" y1="401.086" x2="766.637" y2="392.086" stroke="#A0A09C" stroke-width="2"/>
<path opacity="0.5" d="M43.684 426.364C43.06 426.364 42.516 426.24 42.052 425.992C41.596 425.744 41.236 425.396 40.972 424.948C40.708 424.492 40.552 423.956 40.504 423.34L42.016 423.256C42.072 423.648 42.172 423.976 42.316 424.24C42.468 424.496 42.664 424.692 42.904 424.828C43.152 424.956 43.436 425.02 43.756 425.02C44.06 425.02 44.316 424.98 44.524 424.9C44.74 424.82 44.904 424.7 45.016 424.54C45.128 424.38 45.184 424.188 45.184 423.964C45.184 423.724 45.128 423.516 45.016 423.34C44.904 423.164 44.704 423 44.416 422.848C44.128 422.696 43.716 422.548 43.18 422.404C42.604 422.252 42.132 422.076 41.764 421.876C41.396 421.676 41.124 421.428 40.948 421.132C40.772 420.828 40.684 420.448 40.684 419.992C40.684 419.48 40.796 419.036 41.02 418.66C41.252 418.276 41.584 417.98 42.016 417.772C42.456 417.564 42.98 417.46 43.588 417.46C44.188 417.46 44.7 417.576 45.124 417.808C45.548 418.032 45.88 418.356 46.12 418.78C46.368 419.196 46.52 419.692 46.576 420.268L45.052 420.34C45.012 420.028 44.928 419.76 44.8 419.536C44.68 419.304 44.512 419.124 44.296 418.996C44.088 418.868 43.832 418.804 43.528 418.804C43.12 418.804 42.796 418.908 42.556 419.116C42.316 419.316 42.196 419.58 42.196 419.908C42.196 420.14 42.248 420.332 42.352 420.484C42.464 420.636 42.652 420.772 42.916 420.892C43.18 421.012 43.552 421.132 44.032 421.252C44.696 421.428 45.22 421.636 45.604 421.876C45.996 422.116 46.276 422.404 46.444 422.74C46.612 423.076 46.696 423.472 46.696 423.928C46.696 424.416 46.572 424.844 46.324 425.212C46.076 425.58 45.728 425.864 45.28 426.064C44.832 426.264 44.3 426.364 43.684 426.364ZM52.5953 426.364C51.9153 426.364 51.3353 426.192 50.8553 425.848C50.3833 425.504 50.0233 425 49.7753 424.336C49.5273 423.672 49.4033 422.868 49.4033 421.924C49.4033 420.964 49.5273 420.152 49.7753 419.488C50.0233 418.824 50.3833 418.32 50.8553 417.976C51.3353 417.632 51.9153 417.46 52.5953 417.46C53.2753 417.46 53.8513 417.632 54.3233 417.976C54.8033 418.32 55.1673 418.824 55.4153 419.488C55.6633 420.152 55.7873 420.964 55.7873 421.924C55.7873 422.868 55.6633 423.672 55.4153 424.336C55.1673 425 54.8033 425.504 54.3233 425.848C53.8513 426.192 53.2753 426.364 52.5953 426.364ZM52.5953 425.02C52.9553 425.02 53.2593 424.908 53.5073 424.684C53.7553 424.46 53.9393 424.12 54.0593 423.664C54.1873 423.2 54.2513 422.62 54.2513 421.924C54.2513 421.228 54.1873 420.648 54.0593 420.184C53.9393 419.72 53.7553 419.376 53.5073 419.152C53.2593 418.92 52.9553 418.804 52.5953 418.804C52.2353 418.804 51.9313 418.92 51.6833 419.152C51.4353 419.376 51.2473 419.72 51.1193 420.184C50.9993 420.648 50.9393 421.228 50.9393 421.924C50.9393 422.62 50.9993 423.2 51.1193 423.664C51.2473 424.12 51.4353 424.46 51.6833 424.684C51.9313 424.908 52.2353 425.02 52.5953 425.02ZM61.5906 426.364C60.6706 426.364 59.9506 426.092 59.4306 425.548C58.9186 424.996 58.6626 424.22 58.6626 423.22V417.652H60.1506V423.316C60.1506 423.86 60.2706 424.28 60.5106 424.576C60.7586 424.872 61.1186 425.02 61.5906 425.02C62.0626 425.02 62.4186 424.872 62.6586 424.576C62.9066 424.28 63.0306 423.86 63.0306 423.316V417.652H64.5186V423.22C64.5186 424.22 64.2586 424.996 63.7386 425.548C63.2266 426.092 62.5106 426.364 61.5906 426.364ZM67.7539 426.172V417.652H70.4539C71.3659 417.652 72.0819 417.88 72.6019 418.336C73.1219 418.792 73.3819 419.416 73.3819 420.208C73.3819 420.616 73.2899 420.976 73.1059 421.288C72.9299 421.6 72.6939 421.848 72.3979 422.032C72.1019 422.208 71.7779 422.308 71.4259 422.332L71.3779 422.176C71.9939 422.2 72.4539 422.336 72.7579 422.584C73.0619 422.824 73.2379 423.22 73.2859 423.772L73.4899 426.172H72.0019L71.8219 424.12C71.7979 423.816 71.7379 423.58 71.6419 423.412C71.5539 423.244 71.4139 423.128 71.2219 423.064C71.0379 423 70.7819 422.968 70.4539 422.968H69.2419V426.172H67.7539ZM69.2419 421.6H70.4179C70.8819 421.6 71.2339 421.488 71.4739 421.264C71.7219 421.04 71.8459 420.72 71.8459 420.304C71.8459 419.888 71.7219 419.572 71.4739 419.356C71.2339 419.132 70.8819 419.02 70.4179 419.02H69.2419V421.6Z" fill="#424242"/>
<path opacity="0.5" d="M745.684 426.364C745.06 426.364 744.516 426.24 744.052 425.992C743.596 425.744 743.236 425.396 742.972 424.948C742.708 424.492 742.552 423.956 742.504 423.34L744.016 423.256C744.072 423.648 744.172 423.976 744.316 424.24C744.468 424.496 744.664 424.692 744.904 424.828C745.152 424.956 745.436 425.02 745.756 425.02C746.06 425.02 746.316 424.98 746.524 424.9C746.74 424.82 746.904 424.7 747.016 424.54C747.128 424.38 747.184 424.188 747.184 423.964C747.184 423.724 747.128 423.516 747.016 423.34C746.904 423.164 746.704 423 746.416 422.848C746.128 422.696 745.716 422.548 745.18 422.404C744.604 422.252 744.132 422.076 743.764 421.876C743.396 421.676 743.124 421.428 742.948 421.132C742.772 420.828 742.684 420.448 742.684 419.992C742.684 419.48 742.796 419.036 743.02 418.66C743.252 418.276 743.584 417.98 744.016 417.772C744.456 417.564 744.98 417.46 745.588 417.46C746.188 417.46 746.7 417.576 747.124 417.808C747.548 418.032 747.88 418.356 748.12 418.78C748.368 419.196 748.52 419.692 748.576 420.268L747.052 420.34C747.012 420.028 746.928 419.76 746.8 419.536C746.68 419.304 746.512 419.124 746.296 418.996C746.088 418.868 745.832 418.804 745.528 418.804C745.12 418.804 744.796 418.908 744.556 419.116C744.316 419.316 744.196 419.58 744.196 419.908C744.196 420.14 744.248 420.332 744.352 420.484C744.464 420.636 744.652 420.772 744.916 420.892C745.18 421.012 745.552 421.132 746.032 421.252C746.696 421.428 747.22 421.636 747.604 421.876C747.996 422.116 748.276 422.404 748.444 422.74C748.612 423.076 748.696 423.472 748.696 423.928C748.696 424.416 748.572 424.844 748.324 425.212C748.076 425.58 747.728 425.864 747.28 426.064C746.832 426.264 746.3 426.364 745.684 426.364ZM752.207 426.172L751.307 417.652H752.747L753.359 424.708H753.215L754.043 418.612H755.147L755.975 424.708H755.831L756.443 417.652H757.883L756.983 426.172H755.267L754.451 420.412H754.739L753.923 426.172H752.207ZM761.023 426.172V417.652H766.303V419.02H762.511V421.24H766.159V422.56H762.511V424.804H766.399V426.172H761.023ZM770.018 426.172V417.652H775.298V419.02H771.506V421.24H775.154V422.56H771.506V424.804H775.394V426.172H770.018ZM780.837 426.172V419.02H778.461V417.652H784.701V419.02H782.325V426.172H780.837Z" fill="#424242"/>
<path d="M43.648 462.368C42.952 462.368 42.364 462.188 41.884 461.828C41.404 461.468 41.036 460.956 40.78 460.292C40.532 459.628 40.408 458.84 40.408 457.928C40.408 457.008 40.532 456.216 40.78 455.552C41.036 454.888 41.404 454.376 41.884 454.016C42.364 453.648 42.952 453.464 43.648 453.464C44.448 453.464 45.116 453.728 45.652 454.256C46.188 454.784 46.532 455.532 46.684 456.5L45.16 456.572C45.056 455.996 44.868 455.56 44.596 455.264C44.332 454.96 44.016 454.808 43.648 454.808C43.272 454.808 42.956 454.932 42.7 455.18C42.452 455.42 42.264 455.772 42.136 456.236C42.008 456.7 41.944 457.264 41.944 457.928C41.944 458.584 42.008 459.144 42.136 459.608C42.264 460.072 42.452 460.424 42.7 460.664C42.956 460.904 43.272 461.024 43.648 461.024C44.032 461.024 44.364 460.864 44.644 460.544C44.924 460.216 45.112 459.74 45.208 459.116L46.732 459.176C46.588 460.184 46.244 460.968 45.7 461.528C45.164 462.088 44.48 462.368 43.648 462.368ZM50.1473 462.176V453.656H51.6353V461.696L50.6153 460.808H55.5233V462.176H50.1473ZM58.2426 462.176L60.6666 453.656H62.5146L64.9386 462.176H63.4146L61.5906 455.336L59.7666 462.176H58.2426ZM59.7306 460.16L60.1386 458.828H63.0426L63.4506 460.16H59.7306ZM70.5859 462.368C69.6659 462.368 68.9459 462.096 68.4259 461.552C67.9139 461 67.6579 460.224 67.6579 459.224V453.656H69.1459V459.32C69.1459 459.864 69.2659 460.284 69.5059 460.58C69.7539 460.876 70.1139 461.024 70.5859 461.024C71.0579 461.024 71.4139 460.876 71.6539 460.58C71.9019 460.284 72.0259 459.864 72.0259 459.32V453.656H73.5139V459.224C73.5139 460.224 73.2539 461 72.7339 461.552C72.2219 462.096 71.5059 462.368 70.5859 462.368ZM76.8933 462.176V453.656H79.0173C79.7933 453.656 80.4613 453.824 81.0213 454.16C81.5893 454.488 82.0213 454.972 82.3173 455.612C82.6213 456.244 82.7733 457.016 82.7733 457.928C82.7733 458.84 82.6213 459.612 82.3173 460.244C82.0213 460.876 81.5893 461.356 81.0213 461.684C80.4613 462.012 79.7933 462.176 79.0173 462.176H76.8933ZM78.3693 460.808H79.0173C79.7293 460.808 80.2773 460.568 80.6613 460.088C81.0453 459.608 81.2373 458.888 81.2373 457.928C81.2373 456.96 81.0453 456.236 80.6613 455.756C80.2773 455.268 79.7293 455.024 79.0173 455.024H78.3693V460.808ZM86.0086 462.176V453.656H91.2886V455.024H87.4966V457.244H91.1446V458.564H87.4966V460.808H91.3846V462.176H86.0086ZM106.615 462.368C105.919 462.368 105.331 462.188 104.851 461.828C104.371 461.468 104.003 460.956 103.747 460.292C103.499 459.628 103.375 458.84 103.375 457.928C103.375 457.008 103.499 456.216 103.747 455.552C104.003 454.888 104.371 454.376 104.851 454.016C105.331 453.648 105.919 453.464 106.615 453.464C107.415 453.464 108.083 453.728 108.619 454.256C109.155 454.784 109.499 455.532 109.651 456.5L108.127 456.572C108.023 455.996 107.835 455.56 107.563 455.264C107.299 454.96 106.983 454.808 106.615 454.808C106.239 454.808 105.923 454.932 105.667 455.18C105.419 455.42 105.231 455.772 105.103 456.236C104.975 456.7 104.911 457.264 104.911 457.928C104.911 458.584 104.975 459.144 105.103 459.608C105.231 460.072 105.419 460.424 105.667 460.664C105.923 460.904 106.239 461.024 106.615 461.024C106.999 461.024 107.331 460.864 107.611 460.544C107.891 460.216 108.079 459.74 108.175 459.116L109.699 459.176C109.555 460.184 109.211 460.968 108.667 461.528C108.131 462.088 107.447 462.368 106.615 462.368ZM115.563 462.368C114.883 462.368 114.303 462.196 113.823 461.852C113.351 461.508 112.991 461.004 112.743 460.34C112.495 459.676 112.371 458.872 112.371 457.928C112.371 456.968 112.495 456.156 112.743 455.492C112.991 454.828 113.351 454.324 113.823 453.98C114.303 453.636 114.883 453.464 115.563 453.464C116.243 453.464 116.819 453.636 117.291 453.98C117.771 454.324 118.135 454.828 118.383 455.492C118.631 456.156 118.755 456.968 118.755 457.928C118.755 458.872 118.631 459.676 118.383 460.34C118.135 461.004 117.771 461.508 117.291 461.852C116.819 462.196 116.243 462.368 115.563 462.368ZM115.563 461.024C115.923 461.024 116.227 460.912 116.475 460.688C116.723 460.464 116.907 460.124 117.027 459.668C117.155 459.204 117.219 458.624 117.219 457.928C117.219 457.232 117.155 456.652 117.027 456.188C116.907 455.724 116.723 455.38 116.475 455.156C116.227 454.924 115.923 454.808 115.563 454.808C115.203 454.808 114.899 454.924 114.651 455.156C114.403 455.38 114.215 455.724 114.087 456.188C113.967 456.652 113.907 457.232 113.907 457.928C113.907 458.624 113.967 459.204 114.087 459.668C114.215 460.124 114.403 460.464 114.651 460.688C114.899 460.912 115.203 461.024 115.563 461.024ZM121.87 462.176V453.656H123.994C124.77 453.656 125.438 453.824 125.998 454.16C126.566 454.488 126.998 454.972 127.294 455.612C127.598 456.244 127.75 457.016 127.75 457.928C127.75 458.84 127.598 459.612 127.294 460.244C126.998 460.876 126.566 461.356 125.998 461.684C125.438 462.012 124.77 462.176 123.994 462.176H121.87ZM123.346 460.808H123.994C124.706 460.808 125.254 460.568 125.638 460.088C126.022 459.608 126.214 458.888 126.214 457.928C126.214 456.96 126.022 456.236 125.638 455.756C125.254 455.268 124.706 455.024 123.994 455.024H123.346V460.808ZM130.985 462.176V453.656H136.265V455.024H132.473V457.244H136.121V458.564H132.473V460.808H136.361V462.176H130.985Z" fill="#750506"/>
<line x1="40" y1="482.676" x2="786" y2="482.676" stroke="#A0A09C"/>
<circle cx="759" cy="483.176" r="5" fill="#B91D22"/>
<line x1="50.4766" y1="487.176" x2="50.4766" y2="478.176" stroke="#A0A09C" stroke-width="2"/>
<line x1="766.637" y1="487.176" x2="766.637" y2="478.176" stroke="#A0A09C" stroke-width="2"/>
<path opacity="0.5" d="M43.684 512.368C43.06 512.368 42.516 512.244 42.052 511.996C41.596 511.748 41.236 511.4 40.972 510.952C40.708 510.496 40.552 509.96 40.504 509.344L42.016 509.26C42.072 509.652 42.172 509.98 42.316 510.244C42.468 510.5 42.664 510.696 42.904 510.832C43.152 510.96 43.436 511.024 43.756 511.024C44.06 511.024 44.316 510.984 44.524 510.904C44.74 510.824 44.904 510.704 45.016 510.544C45.128 510.384 45.184 510.192 45.184 509.968C45.184 509.728 45.128 509.52 45.016 509.344C44.904 509.168 44.704 509.004 44.416 508.852C44.128 508.7 43.716 508.552 43.18 508.408C42.604 508.256 42.132 508.08 41.764 507.88C41.396 507.68 41.124 507.432 40.948 507.136C40.772 506.832 40.684 506.452 40.684 505.996C40.684 505.484 40.796 505.04 41.02 504.664C41.252 504.28 41.584 503.984 42.016 503.776C42.456 503.568 42.98 503.464 43.588 503.464C44.188 503.464 44.7 503.58 45.124 503.812C45.548 504.036 45.88 504.36 46.12 504.784C46.368 505.2 46.52 505.696 46.576 506.272L45.052 506.344C45.012 506.032 44.928 505.764 44.8 505.54C44.68 505.308 44.512 505.128 44.296 505C44.088 504.872 43.832 504.808 43.528 504.808C43.12 504.808 42.796 504.912 42.556 505.12C42.316 505.32 42.196 505.584 42.196 505.912C42.196 506.144 42.248 506.336 42.352 506.488C42.464 506.64 42.652 506.776 42.916 506.896C43.18 507.016 43.552 507.136 44.032 507.256C44.696 507.432 45.22 507.64 45.604 507.88C45.996 508.12 46.276 508.408 46.444 508.744C46.612 509.08 46.696 509.476 46.696 509.932C46.696 510.42 46.572 510.848 46.324 511.216C46.076 511.584 45.728 511.868 45.28 512.068C44.832 512.268 44.3 512.368 43.684 512.368ZM52.5953 512.368C51.9153 512.368 51.3353 512.196 50.8553 511.852C50.3833 511.508 50.0233 511.004 49.7753 510.34C49.5273 509.676 49.4033 508.872 49.4033 507.928C49.4033 506.968 49.5273 506.156 49.7753 505.492C50.0233 504.828 50.3833 504.324 50.8553 503.98C51.3353 503.636 51.9153 503.464 52.5953 503.464C53.2753 503.464 53.8513 503.636 54.3233 503.98C54.8033 504.324 55.1673 504.828 55.4153 505.492C55.6633 506.156 55.7873 506.968 55.7873 507.928C55.7873 508.872 55.6633 509.676 55.4153 510.34C55.1673 511.004 54.8033 511.508 54.3233 511.852C53.8513 512.196 53.2753 512.368 52.5953 512.368ZM52.5953 511.024C52.9553 511.024 53.2593 510.912 53.5073 510.688C53.7553 510.464 53.9393 510.124 54.0593 509.668C54.1873 509.204 54.2513 508.624 54.2513 507.928C54.2513 507.232 54.1873 506.652 54.0593 506.188C53.9393 505.724 53.7553 505.38 53.5073 505.156C53.2593 504.924 52.9553 504.808 52.5953 504.808C52.2353 504.808 51.9313 504.924 51.6833 505.156C51.4353 505.38 51.2473 505.724 51.1193 506.188C50.9993 506.652 50.9393 507.232 50.9393 507.928C50.9393 508.624 50.9993 509.204 51.1193 509.668C51.2473 510.124 51.4353 510.464 51.6833 510.688C51.9313 510.912 52.2353 511.024 52.5953 511.024ZM61.5906 512.368C60.6706 512.368 59.9506 512.096 59.4306 511.552C58.9186 511 58.6626 510.224 58.6626 509.224V503.656H60.1506V509.32C60.1506 509.864 60.2706 510.284 60.5106 510.58C60.7586 510.876 61.1186 511.024 61.5906 511.024C62.0626 511.024 62.4186 510.876 62.6586 510.58C62.9066 510.284 63.0306 509.864 63.0306 509.32V503.656H64.5186V509.224C64.5186 510.224 64.2586 511 63.7386 511.552C63.2266 512.096 62.5106 512.368 61.5906 512.368ZM67.7539 512.176V503.656H70.4539C71.3659 503.656 72.0819 503.884 72.6019 504.34C73.1219 504.796 73.3819 505.42 73.3819 506.212C73.3819 506.62 73.2899 506.98 73.1059 507.292C72.9299 507.604 72.6939 507.852 72.3979 508.036C72.1019 508.212 71.7779 508.312 71.4259 508.336L71.3779 508.18C71.9939 508.204 72.4539 508.34 72.7579 508.588C73.0619 508.828 73.2379 509.224 73.2859 509.776L73.4899 512.176H72.0019L71.8219 510.124C71.7979 509.82 71.7379 509.584 71.6419 509.416C71.5539 509.248 71.4139 509.132 71.2219 509.068C71.0379 509.004 70.7819 508.972 70.4539 508.972H69.2419V512.176H67.7539ZM69.2419 507.604H70.4179C70.8819 507.604 71.2339 507.492 71.4739 507.268C71.7219 507.044 71.8459 506.724 71.8459 506.308C71.8459 505.892 71.7219 505.576 71.4739 505.36C71.2339 505.136 70.8819 505.024 70.4179 505.024H69.2419V507.604Z" fill="#424242"/>
<path opacity="0.5" d="M745.684 512.368C745.06 512.368 744.516 512.244 744.052 511.996C743.596 511.748 743.236 511.4 742.972 510.952C742.708 510.496 742.552 509.96 742.504 509.344L744.016 509.26C744.072 509.652 744.172 509.98 744.316 510.244C744.468 510.5 744.664 510.696 744.904 510.832C745.152 510.96 745.436 511.024 745.756 511.024C746.06 511.024 746.316 510.984 746.524 510.904C746.74 510.824 746.904 510.704 747.016 510.544C747.128 510.384 747.184 510.192 747.184 509.968C747.184 509.728 747.128 509.52 747.016 509.344C746.904 509.168 746.704 509.004 746.416 508.852C746.128 508.7 745.716 508.552 745.18 508.408C744.604 508.256 744.132 508.08 743.764 507.88C743.396 507.68 743.124 507.432 742.948 507.136C742.772 506.832 742.684 506.452 742.684 505.996C742.684 505.484 742.796 505.04 743.02 504.664C743.252 504.28 743.584 503.984 744.016 503.776C744.456 503.568 744.98 503.464 745.588 503.464C746.188 503.464 746.7 503.58 747.124 503.812C747.548 504.036 747.88 504.36 748.12 504.784C748.368 505.2 748.52 505.696 748.576 506.272L747.052 506.344C747.012 506.032 746.928 505.764 746.8 505.54C746.68 505.308 746.512 505.128 746.296 505C746.088 504.872 745.832 504.808 745.528 504.808C745.12 504.808 744.796 504.912 744.556 505.12C744.316 505.32 744.196 505.584 744.196 505.912C744.196 506.144 744.248 506.336 744.352 506.488C744.464 506.64 744.652 506.776 744.916 506.896C745.18 507.016 745.552 507.136 746.032 507.256C746.696 507.432 747.22 507.64 747.604 507.88C747.996 508.12 748.276 508.408 748.444 508.744C748.612 509.08 748.696 509.476 748.696 509.932C748.696 510.42 748.572 510.848 748.324 511.216C748.076 511.584 747.728 511.868 747.28 512.068C746.832 512.268 746.3 512.368 745.684 512.368ZM752.207 512.176L751.307 503.656H752.747L753.359 510.712H753.215L754.043 504.616H755.147L755.975 510.712H755.831L756.443 503.656H757.883L756.983 512.176H755.267L754.451 506.416H754.739L753.923 512.176H752.207ZM761.023 512.176V503.656H766.303V505.024H762.511V507.244H766.159V508.564H762.511V510.808H766.399V512.176H761.023ZM770.018 512.176V503.656H775.298V505.024H771.506V507.244H775.154V508.564H771.506V510.808H775.394V512.176H770.018ZM780.837 512.176V505.024H778.461V503.656H784.701V505.024H782.325V512.176H780.837Z" fill="#424242"/>
<path d="M40.252 548.176L42.676 539.656H44.524L46.948 548.176H45.424L43.6 541.336L41.776 548.176H40.252ZM41.74 546.16L42.148 544.828H45.052L45.46 546.16H41.74ZM49.9073 548.176V539.656H52.0313C52.8073 539.656 53.4753 539.824 54.0353 540.16C54.6033 540.488 55.0353 540.972 55.3313 541.612C55.6353 542.244 55.7873 543.016 55.7873 543.928C55.7873 544.84 55.6353 545.612 55.3313 546.244C55.0353 546.876 54.6033 547.356 54.0353 547.684C53.4753 548.012 52.8073 548.176 52.0313 548.176H49.9073ZM51.3833 546.808H52.0313C52.7433 546.808 53.2913 546.568 53.6753 546.088C54.0593 545.608 54.2513 544.888 54.2513 543.928C54.2513 542.96 54.0593 542.236 53.6753 541.756C53.2913 541.268 52.7433 541.024 52.0313 541.024H51.3833V546.808ZM61.5906 548.368C60.9106 548.368 60.3306 548.196 59.8506 547.852C59.3786 547.508 59.0186 547.004 58.7706 546.34C58.5226 545.676 58.3986 544.872 58.3986 543.928C58.3986 542.968 58.5226 542.156 58.7706 541.492C59.0186 540.828 59.3786 540.324 59.8506 539.98C60.3306 539.636 60.9106 539.464 61.5906 539.464C62.2706 539.464 62.8466 539.636 63.3186 539.98C63.7986 540.324 64.1626 540.828 64.4106 541.492C64.6586 542.156 64.7826 542.968 64.7826 543.928C64.7826 544.872 64.6586 545.676 64.4106 546.34C64.1626 547.004 63.7986 547.508 63.3186 547.852C62.8466 548.196 62.2706 548.368 61.5906 548.368ZM61.5906 547.024C61.9506 547.024 62.2546 546.912 62.5026 546.688C62.7506 546.464 62.9346 546.124 63.0546 545.668C63.1826 545.204 63.2466 544.624 63.2466 543.928C63.2466 543.232 63.1826 542.652 63.0546 542.188C62.9346 541.724 62.7506 541.38 62.5026 541.156C62.2546 540.924 61.9506 540.808 61.5906 540.808C61.2306 540.808 60.9266 540.924 60.6786 541.156C60.4306 541.38 60.2426 541.724 60.1146 542.188C59.9946 542.652 59.9346 543.232 59.9346 543.928C59.9346 544.624 59.9946 545.204 60.1146 545.668C60.2426 546.124 60.4306 546.464 60.6786 546.688C60.9266 546.912 61.2306 547.024 61.5906 547.024ZM67.8979 548.176V539.656H70.4419C71.3859 539.656 72.1059 539.856 72.6019 540.256C73.0979 540.648 73.3459 541.216 73.3459 541.96C73.3459 542.304 73.2659 542.616 73.1059 542.896C72.9539 543.168 72.7219 543.388 72.4099 543.556C72.1059 543.716 71.7299 543.808 71.2819 543.832V543.748C71.8259 543.764 72.2739 543.86 72.6259 544.036C72.9859 544.212 73.2539 544.456 73.4299 544.768C73.6139 545.072 73.7059 545.424 73.7059 545.824C73.7059 546.584 73.4459 547.168 72.9259 547.576C72.4059 547.976 71.6699 548.176 70.7179 548.176H67.8979ZM69.3739 546.832H70.7179C71.2139 546.824 71.5779 546.724 71.8099 546.532C72.0499 546.332 72.1699 546.056 72.1699 545.704C72.1699 545.328 72.0459 545.036 71.7979 544.828C71.5579 544.62 71.1979 544.516 70.7179 544.516H69.3739V546.832ZM69.3739 543.196H70.4419C70.9139 543.196 71.2579 543.1 71.4739 542.908C71.6979 542.716 71.8099 542.444 71.8099 542.092C71.8099 541.74 71.6979 541.472 71.4739 541.288C71.2579 541.096 70.9139 541 70.4419 541H69.3739V543.196ZM77.0133 548.176V539.656H82.2933V541.024H78.5013V543.244H82.1493V544.564H78.5013V546.808H82.3893V548.176H77.0133ZM94.8839 548.176V546.808H96.8279V541.024H94.8839V539.656H100.26V541.024H98.3159V546.808H100.26V548.176H94.8839ZM104.119 548.176V539.656H105.607V547.696L104.587 546.808H109.495V548.176H104.119ZM113.115 548.176V539.656H114.603V547.696L113.583 546.808H118.491V548.176H113.115ZM124.558 548.368C123.638 548.368 122.918 548.096 122.398 547.552C121.886 547 121.63 546.224 121.63 545.224V539.656H123.118V545.32C123.118 545.864 123.238 546.284 123.478 546.58C123.726 546.876 124.086 547.024 124.558 547.024C125.03 547.024 125.386 546.876 125.626 546.58C125.874 546.284 125.998 545.864 125.998 545.32V539.656H127.486V545.224C127.486 546.224 127.226 547 126.706 547.552C126.194 548.096 125.478 548.368 124.558 548.368ZM133.637 548.368C133.013 548.368 132.469 548.244 132.005 547.996C131.549 547.748 131.189 547.4 130.925 546.952C130.661 546.496 130.505 545.96 130.457 545.344L131.969 545.26C132.025 545.652 132.125 545.98 132.269 546.244C132.421 546.5 132.617 546.696 132.857 546.832C133.105 546.96 133.389 547.024 133.709 547.024C134.013 547.024 134.269 546.984 134.477 546.904C134.693 546.824 134.857 546.704 134.969 546.544C135.081 546.384 135.137 546.192 135.137 545.968C135.137 545.728 135.081 545.52 134.969 545.344C134.857 545.168 134.657 545.004 134.369 544.852C134.081 544.7 133.669 544.552 133.133 544.408C132.557 544.256 132.085 544.08 131.717 543.88C131.349 543.68 131.077 543.432 130.901 543.136C130.725 542.832 130.637 542.452 130.637 541.996C130.637 541.484 130.749 541.04 130.973 540.664C131.205 540.28 131.537 539.984 131.969 539.776C132.409 539.568 132.933 539.464 133.541 539.464C134.141 539.464 134.653 539.58 135.077 539.812C135.501 540.036 135.833 540.36 136.073 540.784C136.321 541.2 136.473 541.696 136.529 542.272L135.005 542.344C134.965 542.032 134.881 541.764 134.753 541.54C134.633 541.308 134.465 541.128 134.249 541C134.041 540.872 133.785 540.808 133.481 540.808C133.073 540.808 132.749 540.912 132.509 541.12C132.269 541.32 132.149 541.584 132.149 541.912C132.149 542.144 132.201 542.336 132.305 542.488C132.417 542.64 132.605 542.776 132.869 542.896C133.133 543.016 133.505 543.136 133.985 543.256C134.649 543.432 135.173 543.64 135.557 543.88C135.949 544.12 136.229 544.408 136.397 544.744C136.565 545.08 136.649 545.476 136.649 545.932C136.649 546.42 136.525 546.848 136.277 547.216C136.029 547.584 135.681 547.868 135.233 548.068C134.785 548.268 134.253 548.368 133.637 548.368ZM141.804 548.176V541.024H139.428V539.656H145.668V541.024H143.292V548.176H141.804ZM148.712 548.176V539.656H151.412C152.324 539.656 153.04 539.884 153.56 540.34C154.08 540.796 154.34 541.42 154.34 542.212C154.34 542.62 154.248 542.98 154.064 543.292C153.888 543.604 153.652 543.852 153.356 544.036C153.06 544.212 152.736 544.312 152.384 544.336L152.336 544.18C152.952 544.204 153.412 544.34 153.716 544.588C154.02 544.828 154.196 545.224 154.244 545.776L154.448 548.176H152.96L152.78 546.124C152.756 545.82 152.696 545.584 152.6 545.416C152.512 545.248 152.372 545.132 152.18 545.068C151.996 545.004 151.74 544.972 151.412 544.972H150.2V548.176H148.712ZM150.2 543.604H151.376C151.84 543.604 152.192 543.492 152.432 543.268C152.68 543.044 152.804 542.724 152.804 542.308C152.804 541.892 152.68 541.576 152.432 541.36C152.192 541.136 151.84 541.024 151.376 541.024H150.2V543.604ZM157.191 548.176L159.615 539.656H161.463L163.887 548.176H162.363L160.539 541.336L158.715 548.176H157.191ZM158.679 546.16L159.087 544.828H161.991L162.399 546.16H158.679ZM168.79 548.176V541.024H166.414V539.656H172.654V541.024H170.278V548.176H168.79ZM178.53 548.368C177.85 548.368 177.27 548.196 176.79 547.852C176.318 547.508 175.958 547.004 175.71 546.34C175.462 545.676 175.338 544.872 175.338 543.928C175.338 542.968 175.462 542.156 175.71 541.492C175.958 540.828 176.318 540.324 176.79 539.98C177.27 539.636 177.85 539.464 178.53 539.464C179.21 539.464 179.786 539.636 180.258 539.98C180.738 540.324 181.102 540.828 181.35 541.492C181.598 542.156 181.722 542.968 181.722 543.928C181.722 544.872 181.598 545.676 181.35 546.34C181.102 547.004 180.738 547.508 180.258 547.852C179.786 548.196 179.21 548.368 178.53 548.368ZM178.53 547.024C178.89 547.024 179.194 546.912 179.442 546.688C179.69 546.464 179.874 546.124 179.994 545.668C180.122 545.204 180.186 544.624 180.186 543.928C180.186 543.232 180.122 542.652 179.994 542.188C179.874 541.724 179.69 541.38 179.442 541.156C179.194 540.924 178.89 540.808 178.53 540.808C178.17 540.808 177.866 540.924 177.618 541.156C177.37 541.38 177.182 541.724 177.054 542.188C176.934 542.652 176.874 543.232 176.874 543.928C176.874 544.624 176.934 545.204 177.054 545.668C177.182 546.124 177.37 546.464 177.618 546.688C177.866 546.912 178.17 547.024 178.53 547.024ZM184.693 548.176V539.656H187.393C188.305 539.656 189.021 539.884 189.541 540.34C190.061 540.796 190.321 541.42 190.321 542.212C190.321 542.62 190.229 542.98 190.045 543.292C189.869 543.604 189.633 543.852 189.337 544.036C189.041 544.212 188.717 544.312 188.365 544.336L188.317 544.18C188.933 544.204 189.393 544.34 189.697 544.588C190.001 544.828 190.177 545.224 190.225 545.776L190.429 548.176H188.941L188.761 546.124C188.737 545.82 188.677 545.584 188.581 545.416C188.493 545.248 188.353 545.132 188.161 545.068C187.977 545.004 187.721 544.972 187.393 544.972H186.181V548.176H184.693ZM186.181 543.604H187.357C187.821 543.604 188.173 543.492 188.413 543.268C188.661 543.044 188.785 542.724 188.785 542.308C188.785 541.892 188.661 541.576 188.413 541.36C188.173 541.136 187.821 541.024 187.357 541.024H186.181V543.604ZM204.676 548.368C203.844 548.368 203.2 548.172 202.744 547.78C202.288 547.388 202.06 546.836 202.06 546.124C202.06 545.748 202.116 545.416 202.228 545.128C202.34 544.832 202.52 544.556 202.768 544.3C203.024 544.036 203.356 543.768 203.764 543.496C203.596 543.288 203.452 543.084 203.332 542.884C203.212 542.676 203.116 542.468 203.044 542.26C202.972 542.044 202.936 541.812 202.936 541.564C202.936 540.924 203.136 540.416 203.536 540.04C203.944 539.656 204.508 539.464 205.228 539.464C205.972 539.464 206.524 539.64 206.884 539.992C207.244 540.336 207.424 540.8 207.424 541.384C207.424 541.872 207.276 542.304 206.98 542.68C206.692 543.048 206.244 543.428 205.636 543.82L207.1 545.728C207.22 545.576 207.316 545.376 207.388 545.128C207.468 544.872 207.512 544.588 207.52 544.276L208.84 544.432C208.816 544.896 208.716 545.344 208.54 545.776C208.364 546.2 208.148 546.56 207.892 546.856L208.924 548.176H207.352L206.956 547.684C206.74 547.884 206.444 548.048 206.068 548.176C205.7 548.304 205.236 548.368 204.676 548.368ZM204.856 547.036C205.176 547.036 205.44 547 205.648 546.928C205.864 546.848 206.032 546.752 206.152 546.64L204.508 544.504C204.18 544.72 203.94 544.944 203.788 545.176C203.644 545.408 203.572 545.672 203.572 545.968C203.572 546.288 203.676 546.548 203.884 546.748C204.1 546.94 204.424 547.036 204.856 547.036ZM204.94 542.86C205.188 542.708 205.388 542.564 205.54 542.428C205.7 542.284 205.812 542.14 205.876 541.996C205.948 541.844 205.984 541.688 205.984 541.528C205.984 541.288 205.916 541.104 205.78 540.976C205.652 540.84 205.464 540.772 205.216 540.772C204.952 540.772 204.748 540.844 204.604 540.988C204.46 541.124 204.388 541.316 204.388 541.564C204.388 541.692 204.404 541.824 204.436 541.96C204.468 542.096 204.524 542.236 204.604 542.38C204.692 542.524 204.804 542.684 204.94 542.86ZM220.89 548.176V539.656H223.59C224.174 539.656 224.69 539.768 225.138 539.992C225.586 540.216 225.934 540.528 226.182 540.928C226.43 541.328 226.554 541.804 226.554 542.356C226.554 542.9 226.43 543.372 226.182 543.772C225.934 544.172 225.586 544.484 225.138 544.708C224.69 544.924 224.174 545.032 223.59 545.032H222.378V548.176H220.89ZM222.378 543.676H223.434C223.97 543.676 224.366 543.564 224.622 543.34C224.886 543.108 225.018 542.78 225.018 542.356C225.018 541.916 224.886 541.584 224.622 541.36C224.366 541.136 223.97 541.024 223.434 541.024H222.378V543.676ZM229.526 548.176V539.656H231.014V543.724L230.414 543.208H234.59L233.99 543.724V539.656H235.478V548.176H233.99V544.06L234.59 544.576H230.414L231.014 544.06V548.176H229.526ZM241.497 548.368C240.817 548.368 240.237 548.196 239.757 547.852C239.285 547.508 238.925 547.004 238.677 546.34C238.429 545.676 238.305 544.872 238.305 543.928C238.305 542.968 238.429 542.156 238.677 541.492C238.925 540.828 239.285 540.324 239.757 539.98C240.237 539.636 240.817 539.464 241.497 539.464C242.177 539.464 242.753 539.636 243.225 539.98C243.705 540.324 244.069 540.828 244.317 541.492C244.565 542.156 244.689 542.968 244.689 543.928C244.689 544.872 244.565 545.676 244.317 546.34C244.069 547.004 243.705 547.508 243.225 547.852C242.753 548.196 242.177 548.368 241.497 548.368ZM241.497 547.024C241.857 547.024 242.161 546.912 242.409 546.688C242.657 546.464 242.841 546.124 242.961 545.668C243.089 545.204 243.153 544.624 243.153 543.928C243.153 543.232 243.089 542.652 242.961 542.188C242.841 541.724 242.657 541.38 242.409 541.156C242.161 540.924 241.857 540.808 241.497 540.808C241.137 540.808 240.833 540.924 240.585 541.156C240.337 541.38 240.149 541.724 240.021 542.188C239.901 542.652 239.841 543.232 239.841 543.928C239.841 544.624 239.901 545.204 240.021 545.668C240.149 546.124 240.337 546.464 240.585 546.688C240.833 546.912 241.137 547.024 241.497 547.024ZM249.748 548.176V541.024H247.372V539.656H253.612V541.024H251.236V548.176H249.748ZM259.487 548.368C258.807 548.368 258.227 548.196 257.747 547.852C257.275 547.508 256.915 547.004 256.667 546.34C256.419 545.676 256.295 544.872 256.295 543.928C256.295 542.968 256.419 542.156 256.667 541.492C256.915 540.828 257.275 540.324 257.747 539.98C258.227 539.636 258.807 539.464 259.487 539.464C260.167 539.464 260.743 539.636 261.215 539.98C261.695 540.324 262.059 540.828 262.307 541.492C262.555 542.156 262.679 542.968 262.679 543.928C262.679 544.872 262.555 545.676 262.307 546.34C262.059 547.004 261.695 547.508 261.215 547.852C260.743 548.196 260.167 548.368 259.487 548.368ZM259.487 547.024C259.847 547.024 260.151 546.912 260.399 546.688C260.647 546.464 260.831 546.124 260.951 545.668C261.079 545.204 261.143 544.624 261.143 543.928C261.143 543.232 261.079 542.652 260.951 542.188C260.831 541.724 260.647 541.38 260.399 541.156C260.151 540.924 259.847 540.808 259.487 540.808C259.127 540.808 258.823 540.924 258.575 541.156C258.327 541.38 258.139 541.724 258.011 542.188C257.891 542.652 257.831 543.232 257.831 543.928C257.831 544.624 257.891 545.204 258.011 545.668C258.139 546.124 258.327 546.464 258.575 546.688C258.823 546.912 259.127 547.024 259.487 547.024ZM268.567 548.368C267.943 548.368 267.399 548.244 266.935 547.996C266.479 547.748 266.119 547.4 265.855 546.952C265.591 546.496 265.435 545.96 265.387 545.344L266.899 545.26C266.955 545.652 267.055 545.98 267.199 546.244C267.351 546.5 267.547 546.696 267.787 546.832C268.035 546.96 268.319 547.024 268.639 547.024C268.943 547.024 269.199 546.984 269.407 546.904C269.623 546.824 269.787 546.704 269.899 546.544C270.011 546.384 270.067 546.192 270.067 545.968C270.067 545.728 270.011 545.52 269.899 545.344C269.787 545.168 269.587 545.004 269.299 544.852C269.011 544.7 268.599 544.552 268.063 544.408C267.487 544.256 267.015 544.08 266.647 543.88C266.279 543.68 266.007 543.432 265.831 543.136C265.655 542.832 265.567 542.452 265.567 541.996C265.567 541.484 265.679 541.04 265.903 540.664C266.135 540.28 266.467 539.984 266.899 539.776C267.339 539.568 267.863 539.464 268.471 539.464C269.071 539.464 269.583 539.58 270.007 539.812C270.431 540.036 270.763 540.36 271.003 540.784C271.251 541.2 271.403 541.696 271.459 542.272L269.935 542.344C269.895 542.032 269.811 541.764 269.683 541.54C269.563 541.308 269.395 541.128 269.179 541C268.971 540.872 268.715 540.808 268.411 540.808C268.003 540.808 267.679 540.912 267.439 541.12C267.199 541.32 267.079 541.584 267.079 541.912C267.079 542.144 267.131 542.336 267.235 542.488C267.347 542.64 267.535 542.776 267.799 542.896C268.063 543.016 268.435 543.136 268.915 543.256C269.579 543.432 270.103 543.64 270.487 543.88C270.879 544.12 271.159 544.408 271.327 544.744C271.495 545.08 271.579 545.476 271.579 545.932C271.579 546.42 271.455 546.848 271.207 547.216C270.959 547.584 270.611 547.868 270.163 548.068C269.715 548.268 269.183 548.368 268.567 548.368ZM274.502 548.176V539.656H275.99V543.724L275.39 543.208H279.566L278.966 543.724V539.656H280.454V548.176H278.966V544.06L279.566 544.576H275.39L275.99 544.06V548.176H274.502ZM286.473 548.368C285.793 548.368 285.213 548.196 284.733 547.852C284.261 547.508 283.901 547.004 283.653 546.34C283.405 545.676 283.281 544.872 283.281 543.928C283.281 542.968 283.405 542.156 283.653 541.492C283.901 540.828 284.261 540.324 284.733 539.98C285.213 539.636 285.793 539.464 286.473 539.464C287.153 539.464 287.729 539.636 288.201 539.98C288.681 540.324 289.045 540.828 289.293 541.492C289.541 542.156 289.665 542.968 289.665 543.928C289.665 544.872 289.541 545.676 289.293 546.34C289.045 547.004 288.681 547.508 288.201 547.852C287.729 548.196 287.153 548.368 286.473 548.368ZM286.473 547.024C286.833 547.024 287.137 546.912 287.385 546.688C287.633 546.464 287.817 546.124 287.937 545.668C288.065 545.204 288.129 544.624 288.129 543.928C288.129 543.232 288.065 542.652 287.937 542.188C287.817 541.724 287.633 541.38 287.385 541.156C287.137 540.924 286.833 540.808 286.473 540.808C286.113 540.808 285.809 540.924 285.561 541.156C285.313 541.38 285.125 541.724 284.997 542.188C284.877 542.652 284.817 543.232 284.817 543.928C284.817 544.624 284.877 545.204 284.997 545.668C285.125 546.124 285.313 546.464 285.561 546.688C285.809 546.912 286.113 547.024 286.473 547.024ZM292.853 548.176V539.656H295.553C296.137 539.656 296.653 539.768 297.101 539.992C297.549 540.216 297.897 540.528 298.145 540.928C298.393 541.328 298.517 541.804 298.517 542.356C298.517 542.9 298.393 543.372 298.145 543.772C297.897 544.172 297.549 544.484 297.101 544.708C296.653 544.924 296.137 545.032 295.553 545.032H294.341V548.176H292.853ZM294.341 543.676H295.397C295.933 543.676 296.329 543.564 296.585 543.34C296.849 543.108 296.981 542.78 296.981 542.356C296.981 541.916 296.849 541.584 296.585 541.36C296.329 541.136 295.933 541.024 295.397 541.024H294.341V543.676Z" fill="#750506"/>
<line x1="40" y1="568.676" x2="786" y2="568.676" stroke="#A0A09C"/>
<circle cx="719" cy="569.176" r="5" fill="#B91D22"/>
<line x1="50.4766" y1="573.176" x2="50.4766" y2="564.176" stroke="#A0A09C" stroke-width="2"/>
<line x1="766.637" y1="573.176" x2="766.637" y2="564.176" stroke="#A0A09C" stroke-width="2"/>
<path opacity="0.5" d="M43.684 598.372C43.06 598.372 42.516 598.248 42.052 598C41.596 597.752 41.236 597.404 40.972 596.956C40.708 596.5 40.552 595.964 40.504 595.348L42.016 595.264C42.072 595.656 42.172 595.984 42.316 596.248C42.468 596.504 42.664 596.7 42.904 596.836C43.152 596.964 43.436 597.028 43.756 597.028C44.06 597.028 44.316 596.988 44.524 596.908C44.74 596.828 44.904 596.708 45.016 596.548C45.128 596.388 45.184 596.196 45.184 595.972C45.184 595.732 45.128 595.524 45.016 595.348C44.904 595.172 44.704 595.008 44.416 594.856C44.128 594.704 43.716 594.556 43.18 594.412C42.604 594.26 42.132 594.084 41.764 593.884C41.396 593.684 41.124 593.436 40.948 593.14C40.772 592.836 40.684 592.456 40.684 592C40.684 591.488 40.796 591.044 41.02 590.668C41.252 590.284 41.584 589.988 42.016 589.78C42.456 589.572 42.98 589.468 43.588 589.468C44.188 589.468 44.7 589.584 45.124 589.816C45.548 590.04 45.88 590.364 46.12 590.788C46.368 591.204 46.52 591.7 46.576 592.276L45.052 592.348C45.012 592.036 44.928 591.768 44.8 591.544C44.68 591.312 44.512 591.132 44.296 591.004C44.088 590.876 43.832 590.812 43.528 590.812C43.12 590.812 42.796 590.916 42.556 591.124C42.316 591.324 42.196 591.588 42.196 591.916C42.196 592.148 42.248 592.34 42.352 592.492C42.464 592.644 42.652 592.78 42.916 592.9C43.18 593.02 43.552 593.14 44.032 593.26C44.696 593.436 45.22 593.644 45.604 593.884C45.996 594.124 46.276 594.412 46.444 594.748C46.612 595.084 46.696 595.48 46.696 595.936C46.696 596.424 46.572 596.852 46.324 597.22C46.076 597.588 45.728 597.872 45.28 598.072C44.832 598.272 44.3 598.372 43.684 598.372ZM52.5953 598.372C51.9153 598.372 51.3353 598.2 50.8553 597.856C50.3833 597.512 50.0233 597.008 49.7753 596.344C49.5273 595.68 49.4033 594.876 49.4033 593.932C49.4033 592.972 49.5273 592.16 49.7753 591.496C50.0233 590.832 50.3833 590.328 50.8553 589.984C51.3353 589.64 51.9153 589.468 52.5953 589.468C53.2753 589.468 53.8513 589.64 54.3233 589.984C54.8033 590.328 55.1673 590.832 55.4153 591.496C55.6633 592.16 55.7873 592.972 55.7873 593.932C55.7873 594.876 55.6633 595.68 55.4153 596.344C55.1673 597.008 54.8033 597.512 54.3233 597.856C53.8513 598.2 53.2753 598.372 52.5953 598.372ZM52.5953 597.028C52.9553 597.028 53.2593 596.916 53.5073 596.692C53.7553 596.468 53.9393 596.128 54.0593 595.672C54.1873 595.208 54.2513 594.628 54.2513 593.932C54.2513 593.236 54.1873 592.656 54.0593 592.192C53.9393 591.728 53.7553 591.384 53.5073 591.16C53.2593 590.928 52.9553 590.812 52.5953 590.812C52.2353 590.812 51.9313 590.928 51.6833 591.16C51.4353 591.384 51.2473 591.728 51.1193 592.192C50.9993 592.656 50.9393 593.236 50.9393 593.932C50.9393 594.628 50.9993 595.208 51.1193 595.672C51.2473 596.128 51.4353 596.468 51.6833 596.692C51.9313 596.916 52.2353 597.028 52.5953 597.028ZM61.5906 598.372C60.6706 598.372 59.9506 598.1 59.4306 597.556C58.9186 597.004 58.6626 596.228 58.6626 595.228V589.66H60.1506V595.324C60.1506 595.868 60.2706 596.288 60.5106 596.584C60.7586 596.88 61.1186 597.028 61.5906 597.028C62.0626 597.028 62.4186 596.88 62.6586 596.584C62.9066 596.288 63.0306 595.868 63.0306 595.324V589.66H64.5186V595.228C64.5186 596.228 64.2586 597.004 63.7386 597.556C63.2266 598.1 62.5106 598.372 61.5906 598.372ZM67.7539 598.18V589.66H70.4539C71.3659 589.66 72.0819 589.888 72.6019 590.344C73.1219 590.8 73.3819 591.424 73.3819 592.216C73.3819 592.624 73.2899 592.984 73.1059 593.296C72.9299 593.608 72.6939 593.856 72.3979 594.04C72.1019 594.216 71.7779 594.316 71.4259 594.34L71.3779 594.184C71.9939 594.208 72.4539 594.344 72.7579 594.592C73.0619 594.832 73.2379 595.228 73.2859 595.78L73.4899 598.18H72.0019L71.8219 596.128C71.7979 595.824 71.7379 595.588 71.6419 595.42C71.5539 595.252 71.4139 595.136 71.2219 595.072C71.0379 595.008 70.7819 594.976 70.4539 594.976H69.2419V598.18H67.7539ZM69.2419 593.608H70.4179C70.8819 593.608 71.2339 593.496 71.4739 593.272C71.7219 593.048 71.8459 592.728 71.8459 592.312C71.8459 591.896 71.7219 591.58 71.4739 591.364C71.2339 591.14 70.8819 591.028 70.4179 591.028H69.2419V593.608Z" fill="#424242"/>
<path opacity="0.5" d="M745.684 598.372C745.06 598.372 744.516 598.248 744.052 598C743.596 597.752 743.236 597.404 742.972 596.956C742.708 596.5 742.552 595.964 742.504 595.348L744.016 595.264C744.072 595.656 744.172 595.984 744.316 596.248C744.468 596.504 744.664 596.7 744.904 596.836C745.152 596.964 745.436 597.028 745.756 597.028C746.06 597.028 746.316 596.988 746.524 596.908C746.74 596.828 746.904 596.708 747.016 596.548C747.128 596.388 747.184 596.196 747.184 595.972C747.184 595.732 747.128 595.524 747.016 595.348C746.904 595.172 746.704 595.008 746.416 594.856C746.128 594.704 745.716 594.556 745.18 594.412C744.604 594.26 744.132 594.084 743.764 593.884C743.396 593.684 743.124 593.436 742.948 593.14C742.772 592.836 742.684 592.456 742.684 592C742.684 591.488 742.796 591.044 743.02 590.668C743.252 590.284 743.584 589.988 744.016 589.78C744.456 589.572 744.98 589.468 745.588 589.468C746.188 589.468 746.7 589.584 747.124 589.816C747.548 590.04 747.88 590.364 748.12 590.788C748.368 591.204 748.52 591.7 748.576 592.276L747.052 592.348C747.012 592.036 746.928 591.768 746.8 591.544C746.68 591.312 746.512 591.132 746.296 591.004C746.088 590.876 745.832 590.812 745.528 590.812C745.12 590.812 744.796 590.916 744.556 591.124C744.316 591.324 744.196 591.588 744.196 591.916C744.196 592.148 744.248 592.34 744.352 592.492C744.464 592.644 744.652 592.78 744.916 592.9C745.18 593.02 745.552 593.14 746.032 593.26C746.696 593.436 747.22 593.644 747.604 593.884C747.996 594.124 748.276 594.412 748.444 594.748C748.612 595.084 748.696 595.48 748.696 595.936C748.696 596.424 748.572 596.852 748.324 597.22C748.076 597.588 747.728 597.872 747.28 598.072C746.832 598.272 746.3 598.372 745.684 598.372ZM752.207 598.18L751.307 589.66H752.747L753.359 596.716H753.215L754.043 590.62H755.147L755.975 596.716H755.831L756.443 589.66H757.883L756.983 598.18H755.267L754.451 592.42H754.739L753.923 598.18H752.207ZM761.023 598.18V589.66H766.303V591.028H762.511V593.248H766.159V594.568H762.511V596.812H766.399V598.18H761.023ZM770.018 598.18V589.66H775.298V591.028H771.506V593.248H775.154V594.568H771.506V596.812H775.394V598.18H770.018ZM780.837 598.18V591.028H778.461V589.66H784.701V591.028H782.325V598.18H780.837Z" fill="#424242"/>
</svg>
