<svg width="24" height="24" viewBox="0 0 24 24" fill="none" xmlns="http://www.w3.org/2000/svg">
<path d="M7.97331 2.30091C9.41344 -0.764816 13.7741 -0.764814 15.2142 2.30091L16.4136 4.85418C16.8101 5.69832 17.4892 6.37737 18.3333 6.77391L20.8866 7.97331C23.9523 9.41344 23.9523 13.7741 20.8866 15.2142L18.3333 16.4136C17.4892 16.8101 16.8101 17.4892 16.4136 18.3333L15.2142 20.8866C13.7741 23.9523 9.41343 23.9523 7.97331 20.8866L6.77391 18.3333C6.37737 17.4892 5.69832 16.8101 4.85417 16.4136L2.30091 15.2142C-0.764816 13.7741 -0.764814 9.41343 2.30091 7.97331L4.85418 6.77391C5.69832 6.37737 6.37737 5.69832 6.77391 4.85417L7.97331 2.30091Z" fill="#D9CD95"/>
</svg>
