<svg width="13" height="13" viewBox="0 0 13 13" fill="none" xmlns="http://www.w3.org/2000/svg">
<path d="M4.48665 1.15046C5.20672 -0.382406 7.38703 -0.382406 8.1071 1.15046L8.8666 2.76728C9.06487 3.18936 9.40439 3.52888 9.82647 3.72715L11.4433 4.48665C12.9762 5.20672 12.9762 7.38703 11.4433 8.1071L9.82647 8.8666C9.40439 9.06487 9.06487 9.40439 8.8666 9.82647L8.1071 11.4433C7.38703 12.9762 5.20672 12.9762 4.48665 11.4433L3.72715 9.82647C3.52888 9.40439 3.18936 9.06487 2.76728 8.8666L1.15046 8.1071C-0.382406 7.38703 -0.382406 5.20672 1.15046 4.48665L2.76728 3.72715C3.18936 3.52888 3.52888 3.18936 3.72715 2.76728L4.48665 1.15046Z" fill="#680E0F"/>
</svg>
