<svg width="15" height="15" viewBox="0 0 15 15" fill="none" xmlns="http://www.w3.org/2000/svg">
<path d="M4.72998 1.72569C5.81008 -0.573611 9.08055 -0.57361 10.1606 1.72569L10.6607 2.79015C10.9581 3.42326 11.4674 3.93255 12.1005 4.22995L13.1649 4.72998C15.4642 5.81008 15.4642 9.08055 13.1649 10.1606L12.1005 10.6607C11.4674 10.9581 10.9581 11.4674 10.6607 12.1005L10.1606 13.1649C9.08055 15.4642 5.81008 15.4642 4.72998 13.1649L4.22995 12.1005C3.93255 11.4674 3.42326 10.9581 2.79015 10.6607L1.72569 10.1606C-0.573611 9.08055 -0.57361 5.81008 1.72569 4.72998L2.79015 4.22995C3.42326 3.93255 3.93255 3.42326 4.22995 2.79015L4.72998 1.72569Z" fill="#D9CD95"/>
</svg>
